PrestigeElite-Slanted.ufo
<glyph name="exclam" format="1">
  <advance width="600"/>
  <unicode hex="0021"/>
  <outline>
    <contour>
      <point x="348" y="159" type="line"/>
      <point x="318" y="159" type="line"/>
      <point x="372" y="567" type="line"/>
      <point x="377" y="593"/>
      <point x="403" y="612"/>
      <point x="429" y="612" type="curve" smooth="yes"/>
      <point x="455" y="612"/>
      <point x="473" y="593"/>
      <point x="468" y="567" type="curve"/>
    </contour>
    <contour>
      <point x="255" y="42" type="curve" smooth="yes"/>
      <point x="261" y="71"/>
      <point x="290" y="95"/>
      <point x="319" y="95" type="curve" smooth="yes"/>
      <point x="349" y="95"/>
      <point x="368" y="71"/>
      <point x="362" y="42" type="curve" smooth="yes"/>
      <point x="356" y="12"/>
      <point x="326" y="-12"/>
      <point x="296" y="-12" type="curve" smooth="yes"/>
      <point x="267" y="-12"/>
      <point x="249" y="12"/>
    </contour>
  </outline>
</glyph>
<glyph name="quotedbl" format="1">
  <advance width="600"/>
  <unicode hex="0022"/>
  <outline>
    <contour>
      <point x="294" y="320" type="line"/>
      <point x="254" y="320" type="line"/>
      <point x="264" y="498" type="line" smooth="yes"/>
      <point x="266" y="520"/>
      <point x="268" y="556"/>
      <point x="272" y="574" type="curve" smooth="yes"/>
      <point x="275" y="589"/>
      <point x="305" y="612"/>
      <point x="336" y="612" type="curve" smooth="yes"/>
      <point x="367" y="612"/>
      <point x="387" y="589"/>
      <point x="384" y="574" type="curve" smooth="yes"/>
      <point x="380" y="556"/>
      <point x="368" y="520"/>
      <point x="360" y="498" type="curve" smooth="yes"/>
    </contour>
    <contour>
      <point x="482" y="320" type="line"/>
      <point x="442" y="320" type="line"/>
      <point x="452" y="498" type="line" smooth="yes"/>
      <point x="454" y="520"/>
      <point x="456" y="556"/>
      <point x="460" y="574" type="curve" smooth="yes"/>
      <point x="463" y="589"/>
      <point x="493" y="612"/>
      <point x="524" y="612" type="curve" smooth="yes"/>
      <point x="555" y="612"/>
      <point x="575" y="589"/>
      <point x="572" y="574" type="curve" smooth="yes"/>
      <point x="568" y="556"/>
      <point x="556" y="520"/>
      <point x="548" y="498" type="curve" smooth="yes"/>
    </contour>
  </outline>
</glyph>
<glyph name="dollar" format="1">
  <advance width="600"/>
  <unicode hex="0024"/>
  <outline>
    <contour>
      <point x="411" y="604" type="curve"/>
      <point x="434" y="709" type="line"/>
      <point x="473" y="709" type="line"/>
      <point x="450" y="604" type="line"/>
      <point x="504" y="606"/>
      <point x="556" y="593"/>
      <point x="583" y="552" type="curve"/>
      <point x="576" y="537"/>
      <point x="572" y="522"/>
      <point x="570" y="507" type="curve" smooth="yes"/>
      <point x="560" y="442" type="line"/>
      <point x="521" y="442" type="line"/>
      <point x="526" y="464" type="line"/>
      <point x="542" y="541"/>
      <point x="526" y="568"/>
      <point x="444" y="568" type="curve" smooth="yes"/>
      <point x="373" y="568"/>
      <point x="288" y="533"/>
      <point x="270" y="448" type="curve" smooth="yes"/>
      <point x="240" y="307"/>
      <point x="564" y="357"/>
      <point x="525" y="173" type="curve" smooth="yes"/>
      <point x="506" y="83"/>
      <point x="411" y="19"/>
      <point x="325" y="14" type="curve"/>
      <point x="296" y="-120" type="line"/>
      <point x="257" y="-120" type="line"/>
      <point x="286" y="14" type="line"/>
      <point x="230" y="18"/>
      <point x="178" y="34"/>
      <point x="127" y="49" type="curve"/>
      <point x="143" y="103" type="line"/>
      <point x="148" y="128"/>
      <point x="151" y="154"/>
      <point x="149" y="179" type="curve"/>
      <point x="189" y="179" type="line"/>
      <point x="186" y="153"/>
      <point x="181" y="119"/>
      <point x="193" y="97" type="curve"/>
      <point x="210" y="62"/>
      <point x="275" y="50"/>
      <point x="314" y="50" type="curve" smooth="yes"/>
      <point x="386" y="50"/>
      <point x="466" y="92"/>
      <point x="482" y="171" type="curve"/>
      <point x="516" y="328"/>
      <point x="191" y="272"/>
      <point x="227" y="444" type="curve" smooth="yes"/>
      <point x="245" y="527"/>
      <point x="330" y="593"/>
    </contour>
  </outline>
</glyph>
<glyph name="percent" format="1">
  <advance width="600"/>
  <unicode hex="0025"/>
  <outline>
    <contour>
      <point x="280" y="612" type="curve" smooth="yes"/>
      <point x="351" y="612"/>
      <point x="357" y="540"/>
      <point x="344" y="481" type="curve" smooth="yes"/>
      <point x="332" y="422"/>
      <point x="295" y="350"/>
      <point x="224" y="350" type="curve" smooth="yes"/>
      <point x="153" y="350"/>
      <point x="148" y="423"/>
      <point x="160" y="481" type="curve" smooth="yes"/>
      <point x="173" y="540"/>
      <point x="209" y="612"/>
    </contour>
    <contour>
      <point x="274" y="584" type="curve" smooth="yes"/>
      <point x="221" y="584"/>
      <point x="204" y="521"/>
      <point x="195" y="481" type="curve" smooth="yes"/>
      <point x="187" y="442"/>
      <point x="177" y="378"/>
      <point x="230" y="378" type="curve" smooth="yes"/>
      <point x="283" y="378"/>
      <point x="301" y="441"/>
      <point x="309" y="481" type="curve" smooth="yes"/>
      <point x="318" y="521"/>
      <point x="327" y="584"/>
    </contour>
    <contour>
      <point x="558" y="629" type="line"/>
      <point x="581" y="613" type="line"/>
      <point x="170" y="-27" type="line"/>
      <point x="147" y="-11" type="line"/>
    </contour>
    <contour>
      <point x="503" y="250" type="curve" smooth="yes"/>
      <point x="574" y="250"/>
      <point x="580" y="178"/>
      <point x="567" y="119" type="curve" smooth="yes"/>
      <point x="555" y="60"/>
      <point x="518" y="-12"/>
      <point x="447" y="-12" type="curve" smooth="yes"/>
      <point x="376" y="-12"/>
      <point x="371" y="61"/>
      <point x="383" y="119" type="curve" smooth="yes"/>
      <point x="396" y="178"/>
      <point x="432" y="250"/>
    </contour>
    <contour>
      <point x="497" y="222" type="curve" smooth="yes"/>
      <point x="444" y="222"/>
      <point x="427" y="159"/>
      <point x="418" y="119" type="curve" smooth="yes"/>
      <point x="410" y="80"/>
      <point x="400" y="16"/>
      <point x="453" y="16" type="curve" smooth="yes"/>
      <point x="506" y="16"/>
      <point x="524" y="79"/>
      <point x="532" y="119" type="curve" smooth="yes"/>
      <point x="541" y="159"/>
      <point x="550" y="222"/>
    </contour>
  </outline>
</glyph>
<glyph name="ampersand" format="1">
  <advance width="600"/>
  <unicode hex="0026"/>
  <outline>
    <contour>
      <point x="365" y="239" type="curve" smooth="yes"/>
      <point x="316" y="329" type="line"/>
      <point x="241" y="306"/>
      <point x="195" y="246"/>
      <point x="180" y="174" type="curve" smooth="yes"/>
      <point x="164" y="99"/>
      <point x="191" y="24"/>
      <point x="274" y="24" type="curve" smooth="yes"/>
      <point x="323" y="24"/>
      <point x="367" y="49"/>
      <point x="406" y="86" type="curve"/>
      <point x="399" y="119" type="line" smooth="yes"/>
      <point x="390" y="162"/>
      <point x="385" y="202"/>
    </contour>
    <contour>
      <point x="508" y="556" type="curve"/>
      <point x="473" y="526" type="line"/>
      <point x="458" y="552"/>
      <point x="439" y="576"/>
      <point x="405" y="576" type="curve" smooth="yes"/>
      <point x="363" y="576"/>
      <point x="323" y="543"/>
      <point x="315" y="502" type="curve" smooth="yes"/>
      <point x="304" y="451"/>
      <point x="326" y="400"/>
      <point x="348" y="362" type="curve" smooth="yes"/>
      <point x="373" y="317" type="line" smooth="yes"/>
      <point x="407" y="257"/>
      <point x="431" y="195"/>
      <point x="440" y="123" type="curve"/>
      <point x="475" y="176"/>
      <point x="495" y="235"/>
      <point x="509" y="292" type="curve"/>
      <point x="594" y="292" type="line"/>
      <point x="586" y="256" type="line"/>
      <point x="535" y="256" type="line"/>
      <point x="524" y="208"/>
      <point x="497" y="138"/>
      <point x="449" y="81" type="curve"/>
      <point x="453" y="64"/>
      <point x="461" y="33"/>
      <point x="482" y="33" type="curve" smooth="yes"/>
      <point x="501" y="33"/>
      <point x="513" y="58"/>
      <point x="520" y="73" type="curve"/>
      <point x="544" y="57" type="line"/>
      <point x="532" y="25"/>
      <point x="510" y="-3"/>
      <point x="474" y="-3" type="curve" smooth="yes"/>
      <point x="439" y="-3"/>
      <point x="426" y="22"/>
      <point x="415" y="50" type="curve"/>
      <point x="372" y="8"/>
      <point x="313" y="-12"/>
      <point x="260" y="-12" type="curve" smooth="yes"/>
      <point x="162" y="-12"/>
      <point x="118" y="79"/>
      <point x="137" y="171" type="curve" smooth="yes"/>
      <point x="155" y="255"/>
      <point x="214" y="327"/>
      <point x="300" y="357" type="curve"/>
      <point x="278" y="398"/>
      <point x="262" y="451"/>
      <point x="273" y="503" type="curve" smooth="yes"/>
      <point x="287" y="568"/>
      <point x="354" y="612"/>
      <point x="416" y="612" type="curve" smooth="yes"/>
      <point x="458" y="612"/>
      <point x="490" y="589"/>
    </contour>
  </outline>
</glyph>
<glyph name="quotesingle" format="1">
  <advance width="600"/>
  <unicode hex="0027"/>
  <outline>
    <contour>
      <point x="388" y="320" type="line"/>
      <point x="348" y="320" type="line"/>
      <point x="358" y="498" type="line" smooth="yes"/>
      <point x="360" y="520"/>
      <point x="362" y="556"/>
      <point x="366" y="574" type="curve" smooth="yes"/>
      <point x="369" y="589"/>
      <point x="399" y="612"/>
      <point x="430" y="612" type="curve" smooth="yes"/>
      <point x="461" y="612"/>
      <point x="481" y="589"/>
      <point x="478" y="574" type="curve" smooth="yes"/>
      <point x="474" y="556"/>
      <point x="462" y="520"/>
      <point x="454" y="498" type="curve" smooth="yes"/>
    </contour>
  </outline>
</glyph>
<glyph name="parenleft" format="1">
  <advance width="600"/>
  <unicode hex="0028"/>
  <outline>
    <contour>
      <point x="443" y="-79" type="curve"/>
      <point x="412" y="-109" type="line"/>
      <point x="300" y="-8"/>
      <point x="278" y="135"/>
      <point x="313" y="300" type="curve" smooth="yes"/>
      <point x="348" y="464"/>
      <point x="431" y="607"/>
      <point x="586" y="709" type="curve"/>
      <point x="604" y="678" type="line"/>
      <point x="459" y="592"/>
      <point x="386" y="446"/>
      <point x="355" y="300" type="curve" smooth="yes"/>
      <point x="324" y="153"/>
      <point x="334" y="7"/>
    </contour>
  </outline>
</glyph>
<glyph name="parenright" format="1">
  <advance width="600"/>
  <unicode hex="0029"/>
  <outline>
    <contour>
      <point x="284" y="679" type="curve"/>
      <point x="316" y="709" type="line"/>
      <point x="427" y="608"/>
      <point x="450" y="465"/>
      <point x="415" y="300" type="curve" smooth="yes"/>
      <point x="380" y="136"/>
      <point x="297" y="-7"/>
      <point x="142" y="-109" type="curve"/>
      <point x="123" y="-78" type="line"/>
      <point x="269" y="8"/>
      <point x="342" y="154"/>
      <point x="373" y="300" type="curve" smooth="yes"/>
      <point x="404" y="447"/>
      <point x="393" y="593"/>
    </contour>
  </outline>
</glyph>
<glyph name="asterisk" format="1">
  <advance width="600"/>
  <unicode hex="002A"/>
  <outline>
    <contour>
      <point x="287" y="341" type="curve"/>
      <point x="275" y="353"/>
      <point x="280" y="372"/>
      <point x="294" y="388" type="curve"/>
      <point x="313" y="407"/>
      <point x="349" y="428"/>
      <point x="369" y="440" type="curve"/>
      <point x="365" y="447"/>
      <point x="362" y="453"/>
      <point x="363" y="461" type="curve"/>
      <point x="342" y="461"/>
      <point x="303" y="460"/>
      <point x="283" y="467" type="curve" smooth="yes"/>
      <point x="265" y="473"/>
      <point x="257" y="488"/>
      <point x="266" y="507" type="curve"/>
      <point x="276" y="524"/>
      <point x="296" y="530"/>
      <point x="313" y="524" type="curve" smooth="yes"/>
      <point x="334" y="517"/>
      <point x="359" y="493"/>
      <point x="373" y="480" type="curve"/>
      <point x="379" y="487"/>
      <point x="387" y="493"/>
      <point x="397" y="497" type="curve"/>
      <point x="394" y="517"/>
      <point x="389" y="553"/>
      <point x="393" y="576" type="curve"/>
      <point x="398" y="596"/>
      <point x="412" y="612"/>
      <point x="431" y="612" type="curve" smooth="yes"/>
      <point x="450" y="612"/>
      <point x="458" y="596"/>
      <point x="453" y="576" type="curve"/>
      <point x="449" y="553"/>
      <point x="427" y="517"/>
      <point x="417" y="497" type="curve"/>
      <point x="424" y="493"/>
      <point x="429" y="487"/>
      <point x="430" y="480" type="curve"/>
      <point x="450" y="493"/>
      <point x="485" y="517"/>
      <point x="508" y="524" type="curve" smooth="yes"/>
      <point x="529" y="530"/>
      <point x="546" y="524"/>
      <point x="549" y="506" type="curve"/>
      <point x="550" y="488"/>
      <point x="536" y="473"/>
      <point x="515" y="467" type="curve" smooth="yes"/>
      <point x="492" y="460"/>
      <point x="454" y="461"/>
      <point x="432" y="461" type="curve"/>
      <point x="431" y="454"/>
      <point x="425" y="447"/>
      <point x="420" y="442" type="curve"/>
      <point x="434" y="430"/>
      <point x="462" y="409"/>
      <point x="471" y="390" type="curve" smooth="yes"/>
      <point x="479" y="374"/>
      <point x="476" y="355"/>
      <point x="458" y="343" type="curve" smooth="yes"/>
      <point x="441" y="332"/>
      <point x="424" y="339"/>
      <point x="415" y="355" type="curve" smooth="yes"/>
      <point x="405" y="374"/>
      <point x="403" y="410"/>
      <point x="402" y="431" type="curve"/>
      <point x="396" y="428"/>
      <point x="388" y="428"/>
      <point x="382" y="429" type="curve"/>
      <point x="372" y="408"/>
      <point x="353" y="371"/>
      <point x="336" y="353" type="curve" smooth="yes"/>
      <point x="321" y="337"/>
      <point x="301" y="330"/>
    </contour>
  </outline>
</glyph>
<glyph name="zero" format="1">
  <advance width="600"/>
  <unicode hex="0030"/>
  <outline>
    <contour>
      <point x="430" y="612" type="curve" smooth="yes"/>
      <point x="525" y="612"/>
      <point x="613" y="536"/>
      <point x="563" y="300" type="curve" smooth="yes"/>
      <point x="513" y="64"/>
      <point x="392" y="-12"/>
      <point x="297" y="-12" type="curve" smooth="yes"/>
      <point x="202" y="-12"/>
      <point x="115" y="64"/>
      <point x="165" y="300" type="curve" smooth="yes"/>
      <point x="215" y="536"/>
      <point x="335" y="612"/>
    </contour>
    <contour>
      <point x="521" y="300" type="curve" smooth="yes"/>
      <point x="565" y="506"/>
      <point x="503" y="576"/>
      <point x="422" y="576" type="curve" smooth="yes"/>
      <point x="341" y="576"/>
      <point x="251" y="506"/>
      <point x="207" y="300" type="curve" smooth="yes"/>
      <point x="163" y="94"/>
      <point x="224" y="24"/>
      <point x="305" y="24" type="curve" smooth="yes"/>
      <point x="386" y="24"/>
      <point x="477" y="94"/>
    </contour>
  </outline>
</glyph>
<glyph name="one" format="1">
  <advance width="600"/>
  <unicode hex="0031"/>
  <outline>
    <contour>
      <point x="446" y="573" type="curve" smooth="yes"/>
      <point x="332" y="36" type="line"/>
      <point x="469" y="36" type="line"/>
      <point x="461" y="0" type="line"/>
      <point x="138" y="0" type="line"/>
      <point x="146" y="36" type="line"/>
      <point x="293" y="36" type="line"/>
      <point x="401" y="548" type="line"/>
      <point x="372" y="542"/>
      <point x="312" y="534"/>
      <point x="262" y="533" type="curve"/>
      <point x="264" y="568" type="line"/>
      <point x="312" y="569"/>
      <point x="388" y="574"/>
      <point x="414" y="599" type="curve" smooth="yes"/>
      <point x="422" y="606"/>
      <point x="428" y="612"/>
      <point x="439" y="612" type="curve" smooth="yes"/>
      <point x="453" y="612"/>
      <point x="449" y="587"/>
    </contour>
  </outline>
</glyph>
<glyph name="two" format="1">
  <advance width="600"/>
  <unicode hex="0032"/>
  <outline>
    <contour>
      <point x="475" y="102" type="line"/>
      <point x="508" y="94" type="line"/>
      <point x="444" y="0" type="line"/>
      <point x="114" y="0" type="line"/>
      <point x="123" y="42" type="line"/>
      <point x="359" y="250" type="line" smooth="yes"/>
      <point x="421" y="304"/>
      <point x="493" y="384"/>
      <point x="509" y="460" type="curve" smooth="yes"/>
      <point x="520" y="512"/>
      <point x="490" y="576"/>
      <point x="410" y="576" type="curve" smooth="yes"/>
      <point x="369" y="576"/>
      <point x="328" y="561"/>
      <point x="296" y="520" type="curve"/>
      <point x="289" y="491"/>
      <point x="272" y="453"/>
      <point x="243" y="453" type="curve" smooth="yes"/>
      <point x="230" y="453"/>
      <point x="227" y="464"/>
      <point x="229" y="475" type="curve" smooth="yes"/>
      <point x="247" y="559"/>
      <point x="343" y="612"/>
      <point x="419" y="612" type="curve" smooth="yes"/>
      <point x="506" y="612"/>
      <point x="570" y="552"/>
      <point x="551" y="461" type="curve" smooth="yes"/>
      <point x="535" y="384"/>
      <point x="478" y="314"/>
      <point x="416" y="258" type="curve" smooth="yes"/>
      <point x="224" y="85" type="line"/>
      <point x="166" y="36" type="line"/>
      <point x="427" y="36" type="line"/>
    </contour>
  </outline>
</glyph>
<glyph name="three" format="1">
  <advance width="600"/>
  <unicode hex="0033"/>
  <outline>
    <contour>
      <point x="345" y="308" type="curve" smooth="yes"/>
      <point x="305" y="308" type="line"/>
      <point x="313" y="344" type="line"/>
      <point x="338" y="344" type="line" smooth="yes"/>
      <point x="412" y="344"/>
      <point x="472" y="372"/>
      <point x="489" y="450" type="curve" smooth="yes"/>
      <point x="509" y="545"/>
      <point x="448" y="576"/>
      <point x="395" y="576" type="curve" smooth="yes"/>
      <point x="365" y="576"/>
      <point x="334" y="566"/>
      <point x="308" y="546" type="curve"/>
      <point x="302" y="521"/>
      <point x="274" y="476"/>
      <point x="244" y="476" type="curve" smooth="yes"/>
      <point x="231" y="476"/>
      <point x="229" y="488"/>
      <point x="231" y="500" type="curve" smooth="yes"/>
      <point x="244" y="558"/>
      <point x="334" y="612"/>
      <point x="412" y="612" type="curve" smooth="yes"/>
      <point x="502" y="612"/>
      <point x="550" y="543"/>
      <point x="532" y="455" type="curve"/>
      <point x="520" y="402"/>
      <point x="484" y="351"/>
      <point x="429" y="329" type="curve"/>
      <point x="493" y="302"/>
      <point x="518" y="244"/>
      <point x="502" y="169" type="curve" smooth="yes"/>
      <point x="478" y="56"/>
      <point x="374" y="-12"/>
      <point x="266" y="-12" type="curve" smooth="yes"/>
      <point x="207" y="-12"/>
      <point x="141" y="0"/>
      <point x="97" y="30" type="curve"/>
      <point x="120" y="62" type="line"/>
      <point x="159" y="37"/>
      <point x="217" y="24"/>
      <point x="268" y="24" type="curve" smooth="yes"/>
      <point x="356" y="24"/>
      <point x="439" y="70"/>
      <point x="459" y="166" type="curve" smooth="yes"/>
      <point x="478" y="255"/>
      <point x="435" y="308"/>
    </contour>
  </outline>
</glyph>
<glyph name="four" format="1">
  <advance width="600"/>
  <unicode hex="0034"/>
  <outline>
    <contour>
      <point x="477" y="414" type="line"/>
      <point x="516" y="414" type="line"/>
      <point x="470" y="198" type="line"/>
      <point x="558" y="198" type="line"/>
      <point x="550" y="162" type="line"/>
      <point x="462" y="162" type="line"/>
      <point x="436" y="36" type="line"/>
      <point x="524" y="36" type="line"/>
      <point x="516" y="0" type="line"/>
      <point x="287" y="0" type="line"/>
      <point x="295" y="36" type="line"/>
      <point x="397" y="36" type="line"/>
      <point x="423" y="162" type="line"/>
      <point x="123" y="162" type="line"/>
      <point x="132" y="204" type="line"/>
      <point x="244" y="343"/>
      <point x="353" y="487"/>
      <point x="427" y="645" type="curve"/>
      <point x="464" y="633" type="line"/>
      <point x="388" y="477"/>
      <point x="277" y="335"/>
      <point x="164" y="198" type="curve"/>
      <point x="431" y="198" type="line"/>
    </contour>
  </outline>
</glyph>
<glyph name="five" format="1">
  <advance width="600"/>
  <unicode hex="0035"/>
  <outline>
    <contour>
      <point x="559" y="600" type="line"/>
      <point x="551" y="564" type="line"/>
      <point x="316" y="564" type="line"/>
      <point x="266" y="397" type="line"/>
      <point x="291" y="402"/>
      <point x="317" y="408"/>
      <point x="341" y="408" type="curve" smooth="yes"/>
      <point x="460" y="408"/>
      <point x="529" y="334"/>
      <point x="503" y="211" type="curve" smooth="yes"/>
      <point x="474" y="75"/>
      <point x="349" y="-12"/>
      <point x="218" y="-12" type="curve" smooth="yes"/>
      <point x="170" y="-12"/>
      <point x="129" y="-3"/>
      <point x="89" y="14" type="curve"/>
      <point x="106" y="48" type="line"/>
      <point x="143" y="32"/>
      <point x="179" y="24"/>
      <point x="223" y="24" type="curve" smooth="yes"/>
      <point x="334" y="24"/>
      <point x="436" y="93"/>
      <point x="460" y="208" type="curve" smooth="yes"/>
      <point x="481" y="305"/>
      <point x="431" y="372"/>
      <point x="334" y="372" type="curve" smooth="yes"/>
      <point x="296" y="372"/>
      <point x="256" y="363"/>
      <point x="218" y="352" type="curve"/>
      <point x="290" y="600" type="line"/>
    </contour>
  </outline>
</glyph>
<glyph name="six" format="1">
  <advance width="600"/>
  <unicode hex="0036"/>
  <outline>
    <contour>
      <point x="546" y="612" type="curve"/>
      <point x="538" y="576" type="line"/>
      <point x="379" y="579"/>
      <point x="257" y="445"/>
      <point x="217" y="299" type="curve"/>
      <point x="218" y="297" type="line"/>
      <point x="260" y="350"/>
      <point x="329" y="384"/>
      <point x="389" y="384" type="curve" smooth="yes"/>
      <point x="498" y="384"/>
      <point x="550" y="289"/>
      <point x="529" y="186" type="curve" smooth="yes"/>
      <point x="507" y="83"/>
      <point x="413" y="-12"/>
      <point x="304" y="-12" type="curve" smooth="yes"/>
      <point x="230" y="-12"/>
      <point x="117" y="33"/>
      <point x="162" y="244" type="curve" smooth="yes"/>
      <point x="203" y="437"/>
      <point x="332" y="610"/>
    </contour>
    <contour>
      <point x="196" y="194" type="curve"/>
      <point x="179" y="111"/>
      <point x="216" y="24"/>
      <point x="312" y="24" type="curve" smooth="yes"/>
      <point x="394" y="24"/>
      <point x="469" y="103"/>
      <point x="487" y="186" type="curve" smooth="yes"/>
      <point x="504" y="269"/>
      <point x="463" y="348"/>
      <point x="381" y="348" type="curve" smooth="yes"/>
      <point x="295" y="348"/>
      <point x="215" y="281"/>
    </contour>
  </outline>
</glyph>
<glyph name="seven" format="1">
  <advance width="600"/>
  <unicode hex="0037"/>
  <outline>
    <contour>
      <point x="242" y="600" type="line"/>
      <point x="598" y="600" type="line"/>
      <point x="218" y="-12" type="line"/>
      <point x="175" y="-12" type="line"/>
      <point x="536" y="564" type="line"/>
      <point x="234" y="564" type="line"/>
    </contour>
  </outline>
</glyph>
<glyph name="eight" format="1">
  <advance width="600"/>
  <unicode hex="0038"/>
  <outline>
    <contour>
      <point x="362" y="294" type="curve" smooth="yes"/>
      <point x="288" y="294"/>
      <point x="199" y="247"/>
      <point x="180" y="162" type="curve"/>
      <point x="163" y="81"/>
      <point x="230" y="24"/>
      <point x="305" y="24" type="curve" smooth="yes"/>
      <point x="380" y="24"/>
      <point x="471" y="81"/>
      <point x="488" y="162" type="curve"/>
      <point x="507" y="247"/>
      <point x="436" y="294"/>
    </contour>
    <contour>
      <point x="297" y="-12" type="curve" smooth="yes"/>
      <point x="193" y="-12"/>
      <point x="117" y="61"/>
      <point x="138" y="158" type="curve" smooth="yes"/>
      <point x="156" y="243"/>
      <point x="233" y="301"/>
      <point x="316" y="316" type="curve"/>
      <point x="256" y="343"/>
      <point x="211" y="399"/>
      <point x="227" y="475" type="curve" smooth="yes"/>
      <point x="246" y="564"/>
      <point x="341" y="612"/>
      <point x="430" y="612" type="curve" smooth="yes"/>
      <point x="519" y="612"/>
      <point x="594" y="564"/>
      <point x="575" y="475" type="curve" smooth="yes"/>
      <point x="559" y="399"/>
      <point x="490" y="343"/>
      <point x="418" y="316" type="curve"/>
      <point x="495" y="301"/>
      <point x="548" y="243"/>
      <point x="530" y="158" type="curve" smooth="yes"/>
      <point x="509" y="61"/>
      <point x="401" y="-12"/>
    </contour>
    <contour>
      <point x="422" y="576" type="curve" smooth="yes"/>
      <point x="359" y="576"/>
      <point x="284" y="547"/>
      <point x="269" y="474" type="curve" smooth="yes"/>
      <point x="253" y="401"/>
      <point x="290" y="371"/>
      <point x="370" y="331" type="curve"/>
      <point x="468" y="371"/>
      <point x="517" y="401"/>
      <point x="533" y="474" type="curve" smooth="yes"/>
      <point x="548" y="547"/>
      <point x="485" y="576"/>
    </contour>
  </outline>
</glyph>
<glyph name="nine" format="1">
  <advance width="600"/>
  <unicode hex="0039"/>
  <outline>
    <contour>
      <point x="151" y="-12" type="line"/>
      <point x="159" y="24" type="line"/>
      <point x="206" y="24" type="line" smooth="yes"/>
      <point x="355" y="24"/>
      <point x="476" y="167"/>
      <point x="512" y="304" type="curve"/>
      <point x="510" y="306" type="line"/>
      <point x="469" y="255"/>
      <point x="399" y="218"/>
      <point x="338" y="218" type="curve" smooth="yes"/>
      <point x="232" y="218"/>
      <point x="176" y="305"/>
      <point x="198" y="409" type="curve" smooth="yes"/>
      <point x="221" y="516"/>
      <point x="313" y="612"/>
      <point x="426" y="612" type="curve" smooth="yes"/>
      <point x="503" y="612"/>
      <point x="607" y="557"/>
      <point x="565" y="358" type="curve" smooth="yes"/>
      <point x="526" y="176"/>
      <point x="396" y="-12"/>
      <point x="190" y="-12" type="curve" smooth="yes"/>
    </contour>
    <contour>
      <point x="529" y="405" type="curve" smooth="yes"/>
      <point x="547" y="487"/>
      <point x="509" y="576"/>
      <point x="420" y="576" type="curve" smooth="yes"/>
      <point x="333" y="576"/>
      <point x="258" y="496"/>
      <point x="241" y="415" type="curve" smooth="yes"/>
      <point x="224" y="334"/>
      <point x="259" y="254"/>
      <point x="346" y="254" type="curve" smooth="yes"/>
      <point x="441" y="254"/>
      <point x="515" y="340"/>
    </contour>
  </outline>
</glyph>
<glyph name="colon" format="1">
  <advance width="600"/>
  <unicode hex="003A"/>
  <outline>
    <contour>
      <point x="249" y="49" type="curve" smooth="yes"/>
      <point x="256" y="82"/>
      <point x="290" y="110"/>
      <point x="323" y="110" type="curve" smooth="yes"/>
      <point x="356" y="110"/>
      <point x="378" y="82"/>
      <point x="371" y="49" type="curve" smooth="yes"/>
      <point x="364" y="16"/>
      <point x="330" y="-12"/>
      <point x="297" y="-12" type="curve" smooth="yes"/>
      <point x="264" y="-12"/>
      <point x="242" y="16"/>
    </contour>
    <contour>
      <point x="315" y="359" type="curve" smooth="yes"/>
      <point x="322" y="392"/>
      <point x="356" y="420"/>
      <point x="389" y="420" type="curve" smooth="yes"/>
      <point x="422" y="420"/>
      <point x="444" y="392"/>
      <point x="437" y="359" type="curve" smooth="yes"/>
      <point x="430" y="326"/>
      <point x="396" y="298"/>
      <point x="363" y="298" type="curve" smooth="yes"/>
      <point x="330" y="298"/>
      <point x="308" y="326"/>
    </contour>
  </outline>
</glyph>
<glyph name="semicolon" format="1">
  <advance width="600"/>
  <unicode hex="003B"/>
  <outline>
    <contour>
      <point x="231" y="-92" type="curve"/>
      <point x="240" y="-54" type="line"/>
      <point x="268" y="-46"/>
      <point x="303" y="-30"/>
      <point x="320" y="-2" type="curve"/>
      <point x="313" y="-4"/>
      <point x="308" y="-5"/>
      <point x="303" y="-5" type="curve" smooth="yes"/>
      <point x="272" y="-5"/>
      <point x="252" y="16"/>
      <point x="259" y="48" type="curve" smooth="yes"/>
      <point x="266" y="82"/>
      <point x="296" y="108"/>
      <point x="331" y="108" type="curve" smooth="yes"/>
      <point x="370" y="108"/>
      <point x="386" y="71"/>
      <point x="379" y="36" type="curve" smooth="yes"/>
      <point x="365" y="-28"/>
      <point x="291" y="-77"/>
    </contour>
    <contour>
      <point x="325" y="359" type="curve" smooth="yes"/>
      <point x="332" y="392"/>
      <point x="366" y="420"/>
      <point x="399" y="420" type="curve" smooth="yes"/>
      <point x="432" y="420"/>
      <point x="454" y="392"/>
      <point x="447" y="359" type="curve" smooth="yes"/>
      <point x="440" y="326"/>
      <point x="406" y="298"/>
      <point x="373" y="298" type="curve" smooth="yes"/>
      <point x="340" y="298"/>
      <point x="318" y="326"/>
    </contour>
  </outline>
</glyph>
<glyph name="question" format="1">
  <advance width="600"/>
  <unicode hex="003F"/>
  <outline>
    <contour>
      <point x="322" y="159" type="curve"/>
      <point x="285" y="159" type="line"/>
      <point x="289" y="178" type="line" smooth="yes"/>
      <point x="321" y="327"/>
      <point x="459" y="364"/>
      <point x="482" y="469" type="curve" smooth="yes"/>
      <point x="494" y="527"/>
      <point x="464" y="576"/>
      <point x="405" y="576" type="curve" smooth="yes"/>
      <point x="349" y="576"/>
      <point x="293" y="541"/>
      <point x="274" y="484" type="curve"/>
      <point x="276" y="474"/>
      <point x="276" y="464"/>
      <point x="273" y="453" type="curve" smooth="yes"/>
      <point x="270" y="439"/>
      <point x="259" y="420"/>
      <point x="243" y="420" type="curve" smooth="yes"/>
      <point x="218" y="420"/>
      <point x="222" y="448"/>
      <point x="226" y="467" type="curve" smooth="yes"/>
      <point x="243" y="544"/>
      <point x="321" y="612"/>
      <point x="413" y="612" type="curve" smooth="yes"/>
      <point x="488" y="612"/>
      <point x="542" y="554"/>
      <point x="525" y="477" type="curve" smooth="yes"/>
      <point x="511" y="409"/>
      <point x="467" y="367"/>
      <point x="415" y="318" type="curve" smooth="yes"/>
      <point x="355" y="263"/>
      <point x="336" y="234"/>
    </contour>
    <contour>
      <point x="225" y="42" type="curve" smooth="yes"/>
      <point x="231" y="71"/>
      <point x="260" y="95"/>
      <point x="289" y="95" type="curve" smooth="yes"/>
      <point x="319" y="95"/>
      <point x="338" y="71"/>
      <point x="332" y="42" type="curve" smooth="yes"/>
      <point x="326" y="12"/>
      <point x="296" y="-12"/>
      <point x="266" y="-12" type="curve" smooth="yes"/>
      <point x="237" y="-12"/>
      <point x="219" y="12"/>
    </contour>
  </outline>
</glyph>
<glyph name="at" format="1">
  <advance width="600"/>
  <unicode hex="0040"/>
  <outline>
    <contour>
      <point x="506" y="91" type="curve"/>
      <point x="513" y="54" type="line"/>
      <point x="443" y="17"/>
      <point x="367" y="-12"/>
      <point x="277" y="-12" type="curve" smooth="yes"/>
      <point x="135" y="-12"/>
      <point x="62" y="91"/>
      <point x="96" y="248" type="curve"/>
      <point x="130" y="410"/>
      <point x="264" y="612"/>
      <point x="451" y="612" type="curve" smooth="yes"/>
      <point x="579" y="612"/>
      <point x="665" y="513"/>
      <point x="633" y="361" type="curve" smooth="yes"/>
      <point x="616" y="283"/>
      <point x="554" y="154"/>
      <point x="456" y="154" type="curve" smooth="yes"/>
      <point x="422" y="154"/>
      <point x="394" y="173"/>
      <point x="390" y="207" type="curve"/>
      <point x="363" y="177"/>
      <point x="326" y="154"/>
      <point x="288" y="154" type="curve" smooth="yes"/>
      <point x="243" y="154"/>
      <point x="221" y="187"/>
      <point x="230" y="231" type="curve" smooth="yes"/>
      <point x="240" y="277"/>
      <point x="269" y="342"/>
      <point x="326" y="386" type="curve" smooth="yes"/>
      <point x="372" y="421"/>
      <point x="423" y="426"/>
      <point x="476" y="426" type="curve" smooth="yes"/>
      <point x="499" y="426" type="line"/>
      <point x="445" y="286" type="line" smooth="yes"/>
      <point x="418" y="218"/>
      <point x="428" y="190"/>
      <point x="463" y="190" type="curve" smooth="yes"/>
      <point x="535" y="190"/>
      <point x="578" y="301"/>
      <point x="590" y="359" type="curve" smooth="yes"/>
      <point x="617" y="485"/>
      <point x="556" y="576"/>
      <point x="439" y="576" type="curve" smooth="yes"/>
      <point x="355" y="576"/>
      <point x="187" y="482"/>
      <point x="138" y="247" type="curve"/>
      <point x="108" y="110"/>
      <point x="168" y="24"/>
      <point x="291" y="24" type="curve" smooth="yes"/>
      <point x="364" y="24"/>
      <point x="436" y="52"/>
    </contour>
    <contour>
      <point x="434" y="357" type="curve"/>
      <point x="445" y="388" type="line"/>
      <point x="421" y="386"/>
      <point x="381" y="382"/>
      <point x="360" y="369" type="curve" smooth="yes"/>
      <point x="304" y="334"/>
      <point x="281" y="274"/>
      <point x="273" y="236" type="curve" smooth="yes"/>
      <point x="268" y="213"/>
      <point x="276" y="190"/>
      <point x="300" y="190" type="curve" smooth="yes"/>
      <point x="332" y="190"/>
      <point x="368" y="227"/>
      <point x="386" y="254" type="curve"/>
      <point x="409" y="285"/>
      <point x="421" y="324"/>
    </contour>
  </outline>
</glyph>
<glyph name="B" format="1">
  <advance width="600"/>
  <unicode hex="0042"/>
  <outline>
    <contour>
      <point x="263" y="306" type="line"/>
      <point x="208" y="48" type="line"/>
      <point x="246" y="48" type="line"/>
      <point x="346" y="36" type="line" smooth="yes"/>
      <point x="428" y="27"/>
      <point x="496" y="71"/>
      <point x="516" y="163" type="curve" smooth="yes"/>
      <point x="531" y="234"/>
      <point x="503" y="306"/>
      <point x="364" y="306" type="curve" smooth="yes"/>
    </contour>
    <contour>
      <point x="63" y="0" type="curve"/>
      <point x="63" y="36" type="line"/>
      <point x="169" y="48" type="line"/>
      <point x="276" y="552" type="line"/>
      <point x="173" y="564" type="line"/>
      <point x="181" y="600" type="line"/>
      <point x="214" y="596"/>
      <point x="246" y="588"/>
      <point x="280" y="588" type="curve" smooth="yes"/>
      <point x="312" y="588"/>
      <point x="411" y="600"/>
      <point x="454" y="600" type="curve" smooth="yes"/>
      <point x="530" y="600"/>
      <point x="589" y="553"/>
      <point x="571" y="472" type="curve" smooth="yes"/>
      <point x="558" y="410"/>
      <point x="504" y="356"/>
      <point x="443" y="333" type="curve"/>
      <point x="530" y="315"/>
      <point x="578" y="257"/>
      <point x="557" y="161" type="curve" smooth="yes"/>
      <point x="536" y="62"/>
      <point x="455" y="0"/>
      <point x="360" y="0" type="curve" smooth="yes"/>
      <point x="319" y="0"/>
      <point x="240" y="12"/>
      <point x="205" y="12" type="curve" smooth="yes"/>
      <point x="150" y="12"/>
      <point x="101" y="4"/>
    </contour>
    <contour>
      <point x="315" y="552" type="curve"/>
      <point x="271" y="342" type="line"/>
      <point x="322" y="342" type="line" smooth="yes"/>
      <point x="457" y="342"/>
      <point x="515" y="406"/>
      <point x="528" y="468" type="curve" smooth="yes"/>
      <point x="542" y="532"/>
      <point x="502" y="567"/>
      <point x="442" y="567" type="curve" smooth="yes"/>
      <point x="401" y="567"/>
      <point x="357" y="556"/>
    </contour>
  </outline>
</glyph>
<glyph name="C" format="1">
  <advance width="600"/>
  <unicode hex="0043"/>
  <outline>
    <contour>
      <point x="596" y="571" type="curve"/>
      <point x="616" y="609" type="line"/>
      <point x="649" y="597" type="line"/>
      <point x="630" y="565"/>
      <point x="621" y="530"/>
      <point x="613" y="496" type="curve"/>
      <point x="602" y="426" type="line"/>
      <point x="564" y="420" type="line"/>
      <point x="581" y="517"/>
      <point x="557" y="576"/>
      <point x="452" y="576" type="curve" smooth="yes"/>
      <point x="303" y="576"/>
      <point x="219" y="427"/>
      <point x="192" y="302" type="curve" smooth="yes"/>
      <point x="166" y="179"/>
      <point x="188" y="24"/>
      <point x="334" y="24" type="curve" smooth="yes"/>
      <point x="438" y="24"/>
      <point x="503" y="92"/>
      <point x="524" y="192" type="curve"/>
      <point x="563" y="192" type="line"/>
      <point x="538" y="75" type="line"/>
      <point x="474" y="22"/>
      <point x="398" y="-12"/>
      <point x="323" y="-12" type="curve" smooth="yes"/>
      <point x="218" y="-12"/>
      <point x="101" y="71"/>
      <point x="151" y="306" type="curve" smooth="yes"/>
      <point x="200" y="537"/>
      <point x="352" y="612"/>
      <point x="458" y="612" type="curve" smooth="yes"/>
      <point x="509" y="612"/>
      <point x="558" y="597"/>
    </contour>
  </outline>
</glyph>
<glyph name="E" format="1">
  <advance width="600"/>
  <unicode hex="0045"/>
  <outline>
    <contour>
      <point x="527" y="0" type="line"/>
      <point x="47" y="0" type="line"/>
      <point x="55" y="36" type="line"/>
      <point x="158" y="36" type="line"/>
      <point x="270" y="564" type="line"/>
      <point x="167" y="564" type="line"/>
      <point x="175" y="600" type="line"/>
      <point x="637" y="600" type="line"/>
      <point x="603" y="442" type="line"/>
      <point x="564" y="442" type="line"/>
      <point x="567" y="457" type="line" smooth="yes"/>
      <point x="586" y="548"/>
      <point x="582" y="564"/>
      <point x="493" y="564" type="curve" smooth="yes"/>
      <point x="309" y="564" type="line"/>
      <point x="263" y="346" type="line"/>
      <point x="427" y="346" type="line"/>
      <point x="445" y="433" type="line"/>
      <point x="484" y="433" type="line"/>
      <point x="437" y="212" type="line"/>
      <point x="398" y="212" type="line"/>
      <point x="419" y="310" type="line"/>
      <point x="255" y="310" type="line"/>
      <point x="197" y="36" type="line"/>
      <point x="377" y="36" type="line" smooth="yes"/>
      <point x="492" y="36"/>
      <point x="500" y="58"/>
      <point x="521" y="157" type="curve" smooth="yes"/>
      <point x="526" y="180" type="line"/>
      <point x="565" y="180" type="line"/>
    </contour>
  </outline>
</glyph>
<glyph name="F" format="1">
  <advance width="600"/>
  <unicode hex="0046"/>
  <outline>
    <contour>
      <point x="190" y="600" type="line"/>
      <point x="649" y="600" type="line"/>
      <point x="615" y="442" type="line"/>
      <point x="576" y="442" type="line"/>
      <point x="579" y="457" type="line"/>
      <point x="598" y="546"/>
      <point x="593" y="564"/>
      <point x="505" y="564" type="curve" smooth="yes"/>
      <point x="321" y="564" type="line"/>
      <point x="271" y="330" type="line"/>
      <point x="435" y="330" type="line"/>
      <point x="454" y="417" type="line"/>
      <point x="493" y="417" type="line"/>
      <point x="446" y="196" type="line"/>
      <point x="407" y="196" type="line"/>
      <point x="427" y="294" type="line"/>
      <point x="263" y="294" type="line"/>
      <point x="209" y="36" type="line"/>
      <point x="389" y="36" type="line"/>
      <point x="381" y="0" type="line"/>
      <point x="62" y="0" type="line"/>
      <point x="70" y="36" type="line"/>
      <point x="170" y="36" type="line"/>
      <point x="282" y="564" type="line"/>
      <point x="182" y="564" type="line"/>
    </contour>
  </outline>
</glyph>
<glyph name="G" format="1">
  <advance width="600"/>
  <unicode hex="0047"/>
  <outline>
    <contour>
      <point x="584" y="567" type="curve"/>
      <point x="608" y="610" type="line"/>
      <point x="637" y="601" type="line"/>
      <point x="621" y="569"/>
      <point x="610" y="536"/>
      <point x="603" y="503" type="curve"/>
      <point x="593" y="424" type="line"/>
      <point x="552" y="418" type="line"/>
      <point x="555" y="446"/>
      <point x="558" y="475"/>
      <point x="553" y="502" type="curve" smooth="yes"/>
      <point x="543" y="556"/>
      <point x="492" y="576"/>
      <point x="437" y="576" type="curve" smooth="yes"/>
      <point x="359" y="576"/>
      <point x="221" y="525"/>
      <point x="175" y="311" type="curve" smooth="yes"/>
      <point x="131" y="102"/>
      <point x="225" y="24"/>
      <point x="308" y="24" type="curve" smooth="yes"/>
      <point x="358" y="24"/>
      <point x="431" y="44"/>
      <point x="471" y="85" type="curve"/>
      <point x="498" y="111"/>
      <point x="503" y="154"/>
      <point x="509" y="185" type="curve" smooth="yes"/>
      <point x="515" y="212" type="line"/>
      <point x="379" y="212" type="line"/>
      <point x="387" y="248" type="line"/>
      <point x="624" y="248" type="line"/>
      <point x="616" y="212" type="line"/>
      <point x="554" y="212" type="line"/>
      <point x="525" y="75" type="line"/>
      <point x="459" y="23"/>
      <point x="379" y="-12"/>
      <point x="302" y="-12" type="curve" smooth="yes"/>
      <point x="208" y="-12"/>
      <point x="82" y="69"/>
      <point x="131" y="300" type="curve" smooth="yes"/>
      <point x="179" y="529"/>
      <point x="329" y="612"/>
      <point x="445" y="612" type="curve" smooth="yes"/>
      <point x="497" y="612"/>
      <point x="546" y="595"/>
    </contour>
  </outline>
</glyph>
<glyph name="I" format="1">
  <advance width="600"/>
  <unicode hex="0049"/>
  <outline>
    <contour>
      <point x="245" y="600" type="line"/>
      <point x="611" y="600" type="line"/>
      <point x="603" y="564" type="line"/>
      <point x="440" y="564" type="line"/>
      <point x="328" y="36" type="line"/>
      <point x="491" y="36" type="line"/>
      <point x="483" y="0" type="line"/>
      <point x="117" y="0" type="line"/>
      <point x="125" y="36" type="line"/>
      <point x="289" y="36" type="line"/>
      <point x="401" y="564" type="line"/>
      <point x="237" y="564" type="line"/>
    </contour>
  </outline>
</glyph>
<glyph name="J" format="1">
  <advance width="600"/>
  <unicode hex="004A"/>
  <outline>
    <contour>
      <point x="391" y="600" type="line"/>
      <point x="661" y="600" type="line"/>
      <point x="653" y="564" type="line"/>
      <point x="550" y="564" type="line"/>
      <point x="458" y="134" type="line" smooth="yes"/>
      <point x="437" y="32"/>
      <point x="383" y="-12"/>
      <point x="270" y="-12" type="curve" smooth="yes"/>
      <point x="200" y="-12"/>
      <point x="140" y="4"/>
      <point x="87" y="40" type="curve"/>
      <point x="118" y="187" type="line"/>
      <point x="157" y="187" type="line"/>
      <point x="152" y="166" type="line" smooth="yes"/>
      <point x="145" y="134"/>
      <point x="135" y="93"/>
      <point x="151" y="68" type="curve" smooth="yes"/>
      <point x="173" y="35"/>
      <point x="236" y="24"/>
      <point x="278" y="24" type="curve" smooth="yes"/>
      <point x="374" y="24"/>
      <point x="405" y="66"/>
      <point x="425" y="158" type="curve" smooth="yes"/>
      <point x="511" y="564" type="line"/>
      <point x="383" y="564" type="line"/>
    </contour>
  </outline>
</glyph>
<glyph name="K" format="1">
  <advance width="600"/>
  <unicode hex="004B"/>
  <outline>
    <contour>
      <point x="168" y="600" type="line"/>
      <point x="372" y="600" type="line"/>
      <point x="364" y="564" type="line"/>
      <point x="282" y="564" type="line"/>
      <point x="228" y="312" type="line"/>
      <point x="281" y="315"/>
      <point x="347" y="362"/>
      <point x="390" y="397" type="curve" smooth="yes"/>
      <point x="451" y="446"/>
      <point x="506" y="504"/>
      <point x="555" y="564" type="curve"/>
      <point x="472" y="564" type="line"/>
      <point x="480" y="600" type="line"/>
      <point x="684" y="600" type="line"/>
      <point x="676" y="564" type="line"/>
      <point x="598" y="564" type="line"/>
      <point x="524" y="472"/>
      <point x="442" y="383"/>
      <point x="341" y="320" type="curve"/>
      <point x="507" y="36" type="line"/>
      <point x="592" y="36" type="line"/>
      <point x="584" y="0" type="line"/>
      <point x="374" y="0" type="line"/>
      <point x="382" y="36" type="line"/>
      <point x="455" y="36" type="line"/>
      <point x="301" y="300" type="line"/>
      <point x="275" y="287"/>
      <point x="247" y="279"/>
      <point x="221" y="277" type="curve"/>
      <point x="170" y="36" type="line"/>
      <point x="252" y="36" type="line"/>
      <point x="244" y="0" type="line"/>
      <point x="40" y="0" type="line"/>
      <point x="48" y="36" type="line"/>
      <point x="131" y="36" type="line"/>
      <point x="243" y="564" type="line"/>
      <point x="160" y="564" type="line"/>
    </contour>
  </outline>
</glyph>
<glyph name="L" format="1">
  <advance width="600"/>
  <unicode hex="004C"/>
  <outline>
    <contour>
      <point x="179" y="600" type="line"/>
      <point x="444" y="600" type="line"/>
      <point x="436" y="564" type="line"/>
      <point x="321" y="564" type="line"/>
      <point x="209" y="36" type="line"/>
      <point x="411" y="36" type="line" smooth="yes"/>
      <point x="478" y="36"/>
      <point x="511" y="74"/>
      <point x="520" y="117" type="curve" smooth="yes"/>
      <point x="537" y="196" type="line"/>
      <point x="576" y="196" type="line"/>
      <point x="534" y="0" type="line"/>
      <point x="51" y="0" type="line"/>
      <point x="59" y="36" type="line"/>
      <point x="170" y="36" type="line"/>
      <point x="282" y="564" type="line"/>
      <point x="171" y="564" type="line"/>
    </contour>
  </outline>
</glyph>
<glyph name="M" format="1">
  <advance width="600"/>
  <unicode hex="004D"/>
  <outline>
    <contour>
      <point x="622" y="564" type="line"/>
      <point x="510" y="36" type="line"/>
      <point x="582" y="36" type="line"/>
      <point x="574" y="0" type="line"/>
      <point x="379" y="0" type="line"/>
      <point x="387" y="36" type="line"/>
      <point x="471" y="36" type="line"/>
      <point x="578" y="543" type="line"/>
      <point x="576" y="543" type="line"/>
      <point x="339" y="185" type="line"/>
      <point x="254" y="543" type="line"/>
      <point x="252" y="543" type="line"/>
      <point x="145" y="36" type="line"/>
      <point x="229" y="36" type="line"/>
      <point x="221" y="0" type="line"/>
      <point x="26" y="0" type="line"/>
      <point x="34" y="36" type="line"/>
      <point x="106" y="36" type="line"/>
      <point x="218" y="564" type="line"/>
      <point x="146" y="564" type="line"/>
      <point x="154" y="600" type="line"/>
      <point x="280" y="600" type="line"/>
      <point x="358" y="273" type="line"/>
      <point x="576" y="600" type="line"/>
      <point x="702" y="600" type="line"/>
      <point x="694" y="564" type="line"/>
    </contour>
  </outline>
</glyph>
<glyph name="N" format="1">
  <advance width="600"/>
  <unicode hex="004E"/>
  <outline>
    <contour>
      <point x="623" y="564" type="line"/>
      <point x="503" y="0" type="line"/>
      <point x="457" y="0" type="line"/>
      <point x="264" y="543" type="line"/>
      <point x="262" y="543" type="line"/>
      <point x="155" y="36" type="line"/>
      <point x="249" y="36" type="line"/>
      <point x="241" y="0" type="line"/>
      <point x="32" y="0" type="line"/>
      <point x="40" y="36" type="line"/>
      <point x="116" y="36" type="line"/>
      <point x="228" y="564" type="line"/>
      <point x="152" y="564" type="line"/>
      <point x="160" y="600" type="line"/>
      <point x="287" y="600" type="line"/>
      <point x="476" y="64" type="line"/>
      <point x="478" y="64" type="line"/>
      <point x="584" y="564" type="line"/>
      <point x="487" y="564" type="line"/>
      <point x="495" y="600" type="line"/>
      <point x="695" y="600" type="line"/>
      <point x="687" y="564" type="line"/>
    </contour>
  </outline>
</glyph>
<glyph name="P" format="1">
  <advance width="600"/>
  <unicode hex="0050"/>
  <outline>
    <contour>
      <point x="260" y="268" type="line"/>
      <point x="211" y="36" type="line"/>
      <point x="364" y="36" type="line"/>
      <point x="356" y="0" type="line"/>
      <point x="79" y="0" type="line"/>
      <point x="87" y="36" type="line"/>
      <point x="172" y="36" type="line"/>
      <point x="283" y="558" type="line"/>
      <point x="199" y="564" type="line"/>
      <point x="207" y="601" type="line"/>
      <point x="300" y="597" type="line" smooth="yes"/>
      <point x="353" y="595"/>
      <point x="410" y="603"/>
      <point x="464" y="603" type="curve" smooth="yes"/>
      <point x="571" y="603"/>
      <point x="632" y="551"/>
      <point x="609" y="444" type="curve" smooth="yes"/>
      <point x="585" y="329"/>
      <point x="495" y="268"/>
      <point x="329" y="268" type="curve" smooth="yes"/>
    </contour>
    <contour>
      <point x="322" y="559" type="line"/>
      <point x="268" y="304" type="line"/>
      <point x="344" y="304" type="line" smooth="yes"/>
      <point x="468" y="304"/>
      <point x="547" y="346"/>
      <point x="568" y="447" type="curve" smooth="yes"/>
      <point x="586" y="531"/>
      <point x="536" y="572"/>
      <point x="457" y="567" type="curve" smooth="yes"/>
    </contour>
  </outline>
</glyph>
<glyph name="Q" format="1">
  <advance width="600"/>
  <unicode hex="0051"/>
  <outline>
    <contour>
      <point x="448" y="39" type="curve"/>
      <point x="491" y="-54" type="line"/>
      <point x="560" y="-54" type="line"/>
      <point x="552" y="-90" type="line"/>
      <point x="458" y="-90" type="line"/>
      <point x="410" y="16" type="line"/>
      <point x="380" y="1"/>
      <point x="337" y="-12"/>
      <point x="297" y="-12" type="curve" smooth="yes"/>
      <point x="195" y="-12"/>
      <point x="81" y="66"/>
      <point x="131" y="300" type="curve" smooth="yes"/>
      <point x="181" y="534"/>
      <point x="328" y="612"/>
      <point x="430" y="612" type="curve" smooth="yes"/>
      <point x="532" y="612"/>
      <point x="647" y="534"/>
      <point x="597" y="300" type="curve" smooth="yes"/>
      <point x="577" y="209"/>
      <point x="533" y="101"/>
    </contour>
    <contour>
      <point x="397" y="47" type="curve"/>
      <point x="340" y="175" type="line"/>
      <point x="375" y="199" type="line"/>
      <point x="433" y="72" type="line"/>
      <point x="502" y="128"/>
      <point x="539" y="228"/>
      <point x="555" y="300" type="curve" smooth="yes"/>
      <point x="598" y="504"/>
      <point x="513" y="576"/>
      <point x="422" y="576" type="curve" smooth="yes"/>
      <point x="331" y="576"/>
      <point x="216" y="504"/>
      <point x="173" y="300" type="curve" smooth="yes"/>
      <point x="129" y="96"/>
      <point x="214" y="24"/>
      <point x="305" y="24" type="curve" smooth="yes"/>
      <point x="338" y="24"/>
      <point x="368" y="32"/>
    </contour>
  </outline>
</glyph>
<glyph name="R" format="1">
  <advance width="600"/>
  <unicode hex="0052"/>
  <outline>
    <contour>
      <point x="579" y="36" type="line"/>
      <point x="571" y="0" type="line"/>
      <point x="477" y="0" type="line"/>
      <point x="353" y="282" type="line"/>
      <point x="234" y="282" type="line"/>
      <point x="182" y="36" type="line"/>
      <point x="279" y="36" type="line"/>
      <point x="271" y="0" type="line"/>
      <point x="50" y="0" type="line"/>
      <point x="58" y="36" type="line"/>
      <point x="143" y="36" type="line"/>
      <point x="254" y="558" type="line"/>
      <point x="170" y="564" type="line"/>
      <point x="178" y="601" type="line"/>
      <point x="271" y="597" type="line" smooth="yes"/>
      <point x="324" y="595"/>
      <point x="381" y="603"/>
      <point x="435" y="603" type="curve" smooth="yes"/>
      <point x="514" y="603"/>
      <point x="591" y="557"/>
      <point x="569" y="450" type="curve" smooth="yes"/>
      <point x="550" y="361"/>
      <point x="481" y="307"/>
      <point x="394" y="289" type="curve"/>
      <point x="510" y="36" type="line"/>
    </contour>
    <contour>
      <point x="293" y="560" type="curve"/>
      <point x="242" y="318" type="line"/>
      <point x="296" y="318" type="line" smooth="yes"/>
      <point x="390" y="318"/>
      <point x="501" y="331"/>
      <point x="527" y="450" type="curve" smooth="yes"/>
      <point x="544" y="530"/>
      <point x="484" y="567"/>
      <point x="412" y="567" type="curve" smooth="yes"/>
      <point x="375" y="567"/>
      <point x="316" y="561"/>
    </contour>
  </outline>
</glyph>
<glyph name="S" format="1">
  <advance width="600"/>
  <unicode hex="0053"/>
  <outline>
    <contour>
      <point x="525" y="152" type="curve" smooth="yes"/>
      <point x="504" y="51"/>
      <point x="406" y="-12"/>
      <point x="298" y="-12" type="curve" smooth="yes"/>
      <point x="245" y="-12"/>
      <point x="191" y="2"/>
      <point x="156" y="35" type="curve"/>
      <point x="141" y="-12" type="line"/>
      <point x="106" y="-7" type="line"/>
      <point x="136" y="94" type="line" smooth="yes"/>
      <point x="144" y="122"/>
      <point x="145" y="150"/>
      <point x="145" y="177" type="curve"/>
      <point x="183" y="182" type="line"/>
      <point x="180" y="145" type="line" smooth="yes"/>
      <point x="174" y="72"/>
      <point x="197" y="24"/>
      <point x="311" y="24" type="curve" smooth="yes"/>
      <point x="377" y="24"/>
      <point x="463" y="58"/>
      <point x="482" y="145" type="curve" smooth="yes"/>
      <point x="524" y="343"/>
      <point x="172" y="236"/>
      <point x="219" y="455" type="curve" smooth="yes"/>
      <point x="241" y="559"/>
      <point x="348" y="612"/>
      <point x="442" y="612" type="curve" smooth="yes"/>
      <point x="485" y="612"/>
      <point x="529" y="601"/>
      <point x="561" y="578" type="curve"/>
      <point x="577" y="624" type="line"/>
      <point x="613" y="617" type="line"/>
      <point x="585" y="522" type="line" smooth="yes"/>
      <point x="577" y="494"/>
      <point x="578" y="467"/>
      <point x="575" y="439" type="curve"/>
      <point x="536" y="434" type="line"/>
      <point x="540" y="463"/>
      <point x="548" y="497"/>
      <point x="540" y="523" type="curve" smooth="yes"/>
      <point x="527" y="563"/>
      <point x="483" y="576"/>
      <point x="441" y="576" type="curve" smooth="yes"/>
      <point x="369" y="576"/>
      <point x="280" y="544"/>
      <point x="262" y="460" type="curve" smooth="yes"/>
      <point x="224" y="280"/>
      <point x="573" y="375"/>
    </contour>
  </outline>
</glyph>
<glyph name="T" format="1">
  <advance width="600"/>
  <unicode hex="0054"/>
  <outline>
    <contour>
      <point x="454" y="0" type="line"/>
      <point x="145" y="0" type="line"/>
      <point x="153" y="36" type="line"/>
      <point x="288" y="36" type="line"/>
      <point x="400" y="564" type="line"/>
      <point x="305" y="564" type="line" smooth="yes"/>
      <point x="228" y="564"/>
      <point x="214" y="549"/>
      <point x="197" y="472" type="curve"/>
      <point x="183" y="403" type="line"/>
      <point x="144" y="403" type="line"/>
      <point x="186" y="600" type="line"/>
      <point x="669" y="600" type="line"/>
      <point x="627" y="403" type="line"/>
      <point x="588" y="403" type="line"/>
      <point x="602" y="472" type="line"/>
      <point x="619" y="549"/>
      <point x="611" y="564"/>
      <point x="534" y="564" type="curve" smooth="yes"/>
      <point x="439" y="564" type="line"/>
      <point x="327" y="36" type="line"/>
      <point x="462" y="36" type="line"/>
    </contour>
  </outline>
</glyph>
<glyph name="V" format="1">
  <advance width="600"/>
  <unicode hex="0056"/>
  <outline>
    <contour>
      <point x="162" y="600" type="line"/>
      <point x="351" y="600" type="line"/>
      <point x="343" y="564" type="line"/>
      <point x="256" y="564" type="line"/>
      <point x="306" y="27" type="line"/>
      <point x="584" y="564" type="line"/>
      <point x="496" y="564" type="line"/>
      <point x="504" y="600" type="line"/>
      <point x="694" y="600" type="line"/>
      <point x="686" y="564" type="line"/>
      <point x="623" y="564" type="line"/>
      <point x="326" y="-12" type="line"/>
      <point x="268" y="-12" type="line"/>
      <point x="217" y="564" type="line"/>
      <point x="154" y="564" type="line"/>
    </contour>
  </outline>
</glyph>
<glyph name="W" format="1">
  <advance width="600"/>
  <unicode hex="0057"/>
  <outline>
    <contour>
      <point x="156" y="600" type="line"/>
      <point x="316" y="600" type="line"/>
      <point x="308" y="564" type="line"/>
      <point x="228" y="564" type="line"/>
      <point x="190" y="54" type="line"/>
      <point x="192" y="54" type="line"/>
      <point x="383" y="390" type="line"/>
      <point x="430" y="54" type="line"/>
      <point x="432" y="54" type="line"/>
      <point x="612" y="564" type="line"/>
      <point x="532" y="564" type="line"/>
      <point x="540" y="600" type="line"/>
      <point x="700" y="600" type="line"/>
      <point x="692" y="564" type="line"/>
      <point x="650" y="564" type="line"/>
      <point x="445" y="-12" type="line"/>
      <point x="403" y="-12" type="line"/>
      <point x="360" y="283" type="line"/>
      <point x="191" y="-12" type="line"/>
      <point x="149" y="-12" type="line"/>
      <point x="190" y="564" type="line"/>
      <point x="148" y="564" type="line"/>
    </contour>
  </outline>
</glyph>
<glyph name="X" format="1">
  <advance width="600"/>
  <unicode hex="0058"/>
  <outline>
    <contour>
      <point x="372" y="339" type="line"/>
      <point x="562" y="564" type="line"/>
      <point x="480" y="564" type="line"/>
      <point x="488" y="600" type="line"/>
      <point x="668" y="600" type="line"/>
      <point x="660" y="564" type="line"/>
      <point x="604" y="564" type="line"/>
      <point x="389" y="310" type="line"/>
      <point x="512" y="36" type="line"/>
      <point x="572" y="36" type="line"/>
      <point x="564" y="0" type="line"/>
      <point x="360" y="0" type="line"/>
      <point x="368" y="36" type="line"/>
      <point x="467" y="36" type="line"/>
      <point x="359" y="278" type="line"/>
      <point x="149" y="36" type="line"/>
      <point x="248" y="36" type="line"/>
      <point x="240" y="0" type="line"/>
      <point x="36" y="0" type="line"/>
      <point x="44" y="36" type="line"/>
      <point x="104" y="36" type="line"/>
      <point x="343" y="310" type="line"/>
      <point x="236" y="564" type="line"/>
      <point x="180" y="564" type="line"/>
      <point x="188" y="600" type="line"/>
      <point x="368" y="600" type="line"/>
      <point x="360" y="564" type="line"/>
      <point x="278" y="564" type="line"/>
    </contour>
  </outline>
</glyph>
<glyph name="Z" format="1">
  <advance width="600"/>
  <unicode hex="005A"/>
  <outline>
    <contour>
      <point x="223" y="600" type="line"/>
      <point x="609" y="600" type="line"/>
      <point x="601" y="564" type="line"/>
      <point x="135" y="36" type="line"/>
      <point x="366" y="36" type="line" smooth="yes"/>
      <point x="481" y="36"/>
      <point x="490" y="58"/>
      <point x="514" y="169" type="curve"/>
      <point x="516" y="180" type="line"/>
      <point x="555" y="180" type="line"/>
      <point x="517" y="0" type="line"/>
      <point x="83" y="0" type="line"/>
      <point x="91" y="36" type="line"/>
      <point x="558" y="564" type="line"/>
      <point x="374" y="564" type="line" smooth="yes"/>
      <point x="259" y="564"/>
      <point x="249" y="542"/>
      <point x="226" y="431" type="curve"/>
      <point x="223" y="420" type="line"/>
      <point x="184" y="420" type="line"/>
    </contour>
  </outline>
</glyph>
<glyph name="bracketleft" format="1">
  <advance width="600"/>
  <unicode hex="005B"/>
  <outline>
    <contour>
      <point x="632" y="709" type="line"/>
      <point x="624" y="673" type="line"/>
      <point x="475" y="673" type="line"/>
      <point x="316" y="-73" type="line"/>
      <point x="465" y="-73" type="line"/>
      <point x="458" y="-109" type="line"/>
      <point x="270" y="-109" type="line"/>
      <point x="444" y="709" type="line"/>
    </contour>
  </outline>
</glyph>
<glyph name="bracketright" format="1">
  <advance width="600"/>
  <unicode hex="005D"/>
  <outline>
    <contour>
      <point x="262" y="673" type="line"/>
      <point x="270" y="709" type="line"/>
      <point x="458" y="709" type="line"/>
      <point x="284" y="-109" type="line"/>
      <point x="96" y="-109" type="line"/>
      <point x="103" y="-73" type="line"/>
      <point x="252" y="-73" type="line"/>
      <point x="411" y="673" type="line"/>
    </contour>
  </outline>
</glyph>
<glyph name="grave" format="1">
  <advance width="600"/>
  <unicode hex="0060"/>
  <outline>
    <contour>
      <point x="330" y="645" type="line"/>
      <point x="474" y="503" type="line"/>
      <point x="445" y="473" type="line"/>
      <point x="284" y="600" type="line"/>
    </contour>
  </outline>
</glyph>
<glyph name="b" format="1">
  <advance width="600"/>
  <unicode hex="0062"/>
  <outline>
    <contour>
      <point x="245" y="333" type="curve"/>
      <point x="190" y="75" type="line"/>
      <point x="212" y="40"/>
      <point x="255" y="24"/>
      <point x="300" y="24" type="curve" smooth="yes"/>
      <point x="406" y="24"/>
      <point x="483" y="101"/>
      <point x="505" y="203" type="curve" smooth="yes"/>
      <point x="526" y="300"/>
      <point x="491" y="384"/>
      <point x="386" y="384" type="curve" smooth="yes"/>
      <point x="339" y="384"/>
      <point x="286" y="364"/>
    </contour>
    <contour>
      <point x="305" y="617" type="curve" smooth="yes"/>
      <point x="254" y="378" type="line"/>
      <point x="299" y="404"/>
      <point x="353" y="420"/>
      <point x="399" y="420" type="curve" smooth="yes"/>
      <point x="519" y="420"/>
      <point x="574" y="327"/>
      <point x="548" y="209" type="curve"/>
      <point x="522" y="86"/>
      <point x="423" y="-12"/>
      <point x="295" y="-12" type="curve" smooth="yes"/>
      <point x="251" y="-12"/>
      <point x="204" y="4"/>
      <point x="177" y="34" type="curve"/>
      <point x="170" y="13"/>
      <point x="153" y="-6"/>
      <point x="136" y="-23" type="curve"/>
      <point x="108" y="-7" type="line"/>
      <point x="138" y="25"/>
      <point x="142" y="32"/>
      <point x="150" y="70" type="curve" smooth="yes"/>
      <point x="261" y="592" type="line"/>
      <point x="232" y="586"/>
      <point x="199" y="578"/>
      <point x="163" y="576" type="curve"/>
      <point x="165" y="612" type="line"/>
      <point x="199" y="613"/>
      <point x="247" y="618"/>
      <point x="274" y="643" type="curve" smooth="yes"/>
      <point x="281" y="650"/>
      <point x="287" y="656"/>
      <point x="298" y="656" type="curve" smooth="yes"/>
      <point x="312" y="656"/>
      <point x="308" y="631"/>
    </contour>
  </outline>
</glyph>
<glyph name="c" format="1">
  <advance width="600"/>
  <unicode hex="0063"/>
  <outline>
    <contour>
      <point x="499" y="65" type="curve"/>
      <point x="505" y="32" type="line"/>
      <point x="447" y="4"/>
      <point x="372" y="-12"/>
      <point x="312" y="-12" type="curve" smooth="yes"/>
      <point x="187" y="-12"/>
      <point x="109" y="71"/>
      <point x="137" y="200" type="curve" smooth="yes"/>
      <point x="164" y="328"/>
      <point x="276" y="420"/>
      <point x="404" y="420" type="curve" smooth="yes"/>
      <point x="456" y="420"/>
      <point x="519" y="404"/>
      <point x="534" y="355" type="curve"/>
      <point x="515" y="264" type="line"/>
      <point x="479" y="264" type="line"/>
      <point x="483" y="282" type="line"/>
      <point x="498" y="355"/>
      <point x="464" y="384"/>
      <point x="393" y="384" type="curve" smooth="yes"/>
      <point x="289" y="384"/>
      <point x="201" y="308"/>
      <point x="180" y="206" type="curve" smooth="yes"/>
      <point x="157" y="99"/>
      <point x="215" y="24"/>
      <point x="322" y="24" type="curve" smooth="yes"/>
      <point x="377" y="24"/>
      <point x="444" y="40"/>
    </contour>
  </outline>
</glyph>
<glyph name="d" format="1">
  <advance width="600"/>
  <unicode hex="0064"/>
  <outline>
    <contour>
      <point x="409" y="67" type="curve"/>
      <point x="469" y="348" type="line"/>
      <point x="441" y="370"/>
      <point x="406" y="384"/>
      <point x="367" y="384" type="curve" smooth="yes"/>
      <point x="273" y="384"/>
      <point x="183" y="312"/>
      <point x="160" y="204" type="curve" smooth="yes"/>
      <point x="141" y="113"/>
      <point x="181" y="24"/>
      <point x="279" y="24" type="curve" smooth="yes"/>
      <point x="324" y="24"/>
      <point x="369" y="40"/>
    </contour>
    <contour>
      <point x="395" y="0" type="line"/>
      <point x="401" y="27" type="line"/>
      <point x="362" y="3"/>
      <point x="307" y="-12"/>
      <point x="267" y="-12" type="curve" smooth="yes"/>
      <point x="152" y="-12"/>
      <point x="94" y="90"/>
      <point x="118" y="201" type="curve"/>
      <point x="142" y="317"/>
      <point x="244" y="420"/>
      <point x="366" y="420" type="curve" smooth="yes"/>
      <point x="409" y="420"/>
      <point x="444" y="410"/>
      <point x="478" y="391" type="curve"/>
      <point x="521" y="592" type="line"/>
      <point x="492" y="586"/>
      <point x="459" y="578"/>
      <point x="423" y="576" type="curve"/>
      <point x="425" y="612" type="line"/>
      <point x="459" y="613"/>
      <point x="507" y="618"/>
      <point x="534" y="643" type="curve" smooth="yes"/>
      <point x="541" y="650"/>
      <point x="547" y="656"/>
      <point x="558" y="656" type="curve" smooth="yes"/>
      <point x="572" y="656"/>
      <point x="568" y="631"/>
      <point x="565" y="617" type="curve" smooth="yes"/>
      <point x="442" y="36" type="line"/>
      <point x="522" y="36" type="line"/>
      <point x="514" y="0" type="line"/>
    </contour>
  </outline>
</glyph>
<glyph name="f" format="1">
  <advance width="600"/>
  <unicode hex="0066"/>
  <outline>
    <contour>
      <point x="679" y="569" type="curve"/>
      <point x="645" y="536" type="line"/>
      <point x="603" y="567"/>
      <point x="548" y="588"/>
      <point x="489" y="588" type="curve" smooth="yes"/>
      <point x="392" y="588"/>
      <point x="383" y="503"/>
      <point x="368" y="432" type="curve" smooth="yes"/>
      <point x="363" y="408" type="line"/>
      <point x="565" y="408" type="line"/>
      <point x="557" y="372" type="line"/>
      <point x="355" y="372" type="line"/>
      <point x="284" y="36" type="line"/>
      <point x="464" y="36" type="line"/>
      <point x="456" y="0" type="line"/>
      <point x="117" y="0" type="line"/>
      <point x="125" y="36" type="line"/>
      <point x="245" y="36" type="line"/>
      <point x="316" y="372" type="line"/>
      <point x="165" y="372" type="line"/>
      <point x="173" y="408" type="line"/>
      <point x="324" y="408" type="line"/>
      <point x="329" y="432" type="line" smooth="yes"/>
      <point x="346" y="512"/>
      <point x="361" y="624"/>
      <point x="493" y="624" type="curve" smooth="yes"/>
      <point x="562" y="624"/>
      <point x="629" y="606"/>
    </contour>
  </outline>
</glyph>
<glyph name="g" format="1">
  <advance width="600"/>
  <unicode hex="0067"/>
  <outline>
    <contour>
      <point x="265" y="-180" type="curve" smooth="yes"/>
      <point x="332" y="-180"/>
      <point x="472" y="-163"/>
      <point x="492" y="-72" type="curve"/>
      <point x="505" y="-8"/>
      <point x="459" y="-2"/>
      <point x="407" y="-2" type="curve" smooth="yes"/>
      <point x="231" y="-2" type="line"/>
      <point x="187" y="-25"/>
      <point x="138" y="-53"/>
      <point x="127" y="-103" type="curve" smooth="yes"/>
      <point x="112" y="-174"/>
      <point x="213" y="-180"/>
    </contour>
    <contour>
      <point x="445" y="408" type="curve"/>
      <point x="564" y="408" type="line"/>
      <point x="556" y="372" type="line"/>
      <point x="490" y="372" type="line"/>
      <point x="509" y="339"/>
      <point x="516" y="306"/>
      <point x="507" y="264" type="curve" smooth="yes"/>
      <point x="487" y="169"/>
      <point x="411" y="114"/>
      <point x="319" y="114" type="curve" smooth="yes"/>
      <point x="306" y="114"/>
      <point x="294" y="115"/>
      <point x="283" y="118" type="curve"/>
      <point x="264" y="108"/>
      <point x="213" y="74"/>
      <point x="208" y="54" type="curve" smooth="yes"/>
      <point x="205" y="38"/>
      <point x="259" y="38"/>
      <point x="273" y="38" type="curve" smooth="yes"/>
      <point x="410" y="38" type="line" smooth="yes"/>
      <point x="496" y="38"/>
      <point x="551" y="9"/>
      <point x="535" y="-65" type="curve" smooth="yes"/>
      <point x="509" y="-188"/>
      <point x="360" y="-216"/>
      <point x="263" y="-216" type="curve" smooth="yes"/>
      <point x="189" y="-216"/>
      <point x="63" y="-207"/>
      <point x="84" y="-106" type="curve" smooth="yes"/>
      <point x="95" y="-56"/>
      <point x="142" y="-15"/>
      <point x="189" y="7" type="curve"/>
      <point x="173" y="11"/>
      <point x="160" y="23"/>
      <point x="164" y="42" type="curve" smooth="yes"/>
      <point x="171" y="77"/>
      <point x="217" y="110"/>
      <point x="248" y="129" type="curve"/>
      <point x="195" y="150"/>
      <point x="171" y="202"/>
      <point x="184" y="264" type="curve" smooth="yes"/>
      <point x="203" y="352"/>
      <point x="284" y="420"/>
      <point x="382" y="420" type="curve" smooth="yes"/>
      <point x="404" y="420"/>
      <point x="425" y="416"/>
    </contour>
    <contour>
      <point x="465" y="264" type="curve" smooth="yes"/>
      <point x="480" y="333"/>
      <point x="445" y="384"/>
      <point x="376" y="384" type="curve" smooth="yes"/>
      <point x="310" y="384"/>
      <point x="242" y="338"/>
      <point x="227" y="269" type="curve" smooth="yes"/>
      <point x="211" y="193"/>
      <point x="255" y="150"/>
      <point x="329" y="150" type="curve" smooth="yes"/>
      <point x="404" y="150"/>
      <point x="451" y="199"/>
    </contour>
  </outline>
</glyph>
<glyph name="h" format="1">
  <advance width="600"/>
  <unicode hex="0068"/>
  <outline>
    <contour>
      <point x="303" y="617" type="curve" smooth="yes"/>
      <point x="249" y="362" type="line"/>
      <point x="307" y="390"/>
      <point x="378" y="420"/>
      <point x="437" y="420" type="curve" smooth="yes"/>
      <point x="524" y="420"/>
      <point x="559" y="381"/>
      <point x="532" y="253" type="curve" smooth="yes"/>
      <point x="486" y="36" type="line"/>
      <point x="556" y="36" type="line"/>
      <point x="548" y="0" type="line"/>
      <point x="361" y="0" type="line"/>
      <point x="369" y="36" type="line"/>
      <point x="447" y="36" type="line"/>
      <point x="490" y="240" type="line" smooth="yes"/>
      <point x="505" y="309"/>
      <point x="521" y="384"/>
      <point x="429" y="384" type="curve" smooth="yes"/>
      <point x="366" y="384"/>
      <point x="299" y="353"/>
      <point x="240" y="320" type="curve"/>
      <point x="180" y="36" type="line"/>
      <point x="258" y="36" type="line"/>
      <point x="250" y="0" type="line"/>
      <point x="63" y="0" type="line"/>
      <point x="71" y="36" type="line"/>
      <point x="141" y="36" type="line"/>
      <point x="259" y="592" type="line"/>
      <point x="230" y="586"/>
      <point x="197" y="578"/>
      <point x="161" y="576" type="curve"/>
      <point x="163" y="612" type="line"/>
      <point x="197" y="613"/>
      <point x="245" y="618"/>
      <point x="272" y="643" type="curve" smooth="yes"/>
      <point x="279" y="650"/>
      <point x="285" y="656"/>
      <point x="296" y="656" type="curve" smooth="yes"/>
      <point x="310" y="656"/>
      <point x="306" y="631"/>
    </contour>
  </outline>
</glyph>
<glyph name="i" format="1">
  <advance width="600"/>
  <unicode hex="0069"/>
  <outline>
    <contour>
      <point x="89" y="0" type="line"/>
      <point x="97" y="36" type="line"/>
      <point x="300" y="36" type="line"/>
      <point x="371" y="374" type="line"/>
      <point x="342" y="368"/>
      <point x="250" y="360"/>
      <point x="175" y="358" type="curve"/>
      <point x="177" y="394" type="line"/>
      <point x="250" y="395"/>
      <point x="358" y="400"/>
      <point x="384" y="425" type="curve" smooth="yes"/>
      <point x="392" y="432"/>
      <point x="398" y="438"/>
      <point x="409" y="438" type="curve" smooth="yes"/>
      <point x="423" y="438"/>
      <point x="419" y="413"/>
      <point x="416" y="399" type="curve" smooth="yes"/>
      <point x="339" y="36" type="line"/>
      <point x="519" y="36" type="line"/>
      <point x="511" y="0" type="line"/>
    </contour>
    <contour>
      <point x="474" y="558" type="curve" smooth="yes"/>
      <point x="467" y="528"/>
      <point x="438" y="504"/>
      <point x="408" y="504" type="curve" smooth="yes"/>
      <point x="378" y="504"/>
      <point x="359" y="528"/>
      <point x="366" y="558" type="curve" smooth="yes"/>
      <point x="372" y="588"/>
      <point x="401" y="612"/>
      <point x="431" y="612" type="curve" smooth="yes"/>
      <point x="461" y="612"/>
      <point x="480" y="588"/>
    </contour>
  </outline>
</glyph>
<glyph name="j" format="1">
  <advance width="600"/>
  <unicode hex="006A"/>
  <outline>
    <contour>
      <point x="476" y="386" type="curve" smooth="yes"/>
      <point x="392" y="-8" type="line" smooth="yes"/>
      <point x="372" y="-104"/>
      <point x="356" y="-216"/>
      <point x="224" y="-216" type="curve" smooth="yes"/>
      <point x="155" y="-216"/>
      <point x="89" y="-198"/>
      <point x="38" y="-161" type="curve"/>
      <point x="72" y="-128" type="line"/>
      <point x="114" y="-159"/>
      <point x="169" y="-180"/>
      <point x="228" y="-180" type="curve" smooth="yes"/>
      <point x="322" y="-180"/>
      <point x="334" y="-101"/>
      <point x="348" y="-31" type="curve" smooth="yes"/>
      <point x="434" y="374" type="line"/>
      <point x="392" y="360"/>
      <point x="346" y="355"/>
      <point x="306" y="358" type="curve" smooth="yes"/>
      <point x="239" y="362" type="line"/>
      <point x="240" y="397" type="line"/>
      <point x="317" y="393" type="line" smooth="yes"/>
      <point x="351" y="391"/>
      <point x="416" y="396"/>
      <point x="447" y="425" type="curve" smooth="yes"/>
      <point x="454" y="431"/>
      <point x="460" y="437"/>
      <point x="469" y="437" type="curve" smooth="yes"/>
      <point x="492" y="437"/>
      <point x="479" y="400"/>
    </contour>
    <contour>
      <point x="549" y="558" type="curve" smooth="yes"/>
      <point x="542" y="528"/>
      <point x="513" y="504"/>
      <point x="483" y="504" type="curve" smooth="yes"/>
      <point x="453" y="504"/>
      <point x="434" y="528"/>
      <point x="441" y="558" type="curve" smooth="yes"/>
      <point x="447" y="588"/>
      <point x="476" y="612"/>
      <point x="506" y="612" type="curve" smooth="yes"/>
      <point x="536" y="612"/>
      <point x="555" y="588"/>
    </contour>
  </outline>
</glyph>
<glyph name="k" format="1">
  <advance width="600"/>
  <unicode hex="006B"/>
  <outline>
    <contour>
      <point x="320" y="617" type="curve" smooth="yes"/>
      <point x="226" y="174" type="line"/>
      <point x="479" y="372" type="line"/>
      <point x="421" y="372" type="line"/>
      <point x="429" y="408" type="line"/>
      <point x="604" y="408" type="line"/>
      <point x="596" y="372" type="line"/>
      <point x="529" y="372" type="line"/>
      <point x="377" y="249" type="line"/>
      <point x="501" y="36" type="line"/>
      <point x="574" y="36" type="line"/>
      <point x="566" y="0" type="line"/>
      <point x="390" y="0" type="line"/>
      <point x="398" y="36" type="line"/>
      <point x="455" y="36" type="line"/>
      <point x="345" y="225" type="line"/>
      <point x="217" y="131" type="line"/>
      <point x="197" y="36" type="line"/>
      <point x="274" y="36" type="line"/>
      <point x="266" y="0" type="line"/>
      <point x="52" y="0" type="line"/>
      <point x="60" y="36" type="line"/>
      <point x="158" y="36" type="line"/>
      <point x="276" y="592" type="line"/>
      <point x="247" y="586"/>
      <point x="214" y="578"/>
      <point x="178" y="576" type="curve"/>
      <point x="180" y="612" type="line"/>
      <point x="214" y="613"/>
      <point x="262" y="618"/>
      <point x="289" y="643" type="curve" smooth="yes"/>
      <point x="296" y="650"/>
      <point x="302" y="656"/>
      <point x="313" y="656" type="curve" smooth="yes"/>
      <point x="327" y="656"/>
      <point x="323" y="631"/>
    </contour>
  </outline>
</glyph>
<glyph name="l" format="1">
  <advance width="600"/>
  <unicode hex="006C"/>
  <outline>
    <contour>
      <point x="461" y="617" type="curve" smooth="yes"/>
      <point x="338" y="36" type="line"/>
      <point x="508" y="36" type="line"/>
      <point x="500" y="0" type="line"/>
      <point x="100" y="0" type="line"/>
      <point x="108" y="36" type="line"/>
      <point x="299" y="36" type="line"/>
      <point x="417" y="592" type="line"/>
      <point x="388" y="586"/>
      <point x="305" y="578"/>
      <point x="244" y="576" type="curve"/>
      <point x="246" y="612" type="line"/>
      <point x="305" y="613"/>
      <point x="403" y="618"/>
      <point x="430" y="643" type="curve" smooth="yes"/>
      <point x="437" y="650"/>
      <point x="443" y="656"/>
      <point x="454" y="656" type="curve" smooth="yes"/>
      <point x="468" y="656"/>
      <point x="464" y="631"/>
    </contour>
  </outline>
</glyph>
<glyph name="m" format="1">
  <advance width="600"/>
  <unicode hex="006D"/>
  <outline>
    <contour>
      <point x="210" y="334" type="curve"/>
      <point x="147" y="36" type="line"/>
      <point x="196" y="36" type="line"/>
      <point x="188" y="0" type="line"/>
      <point x="39" y="0" type="line"/>
      <point x="47" y="36" type="line"/>
      <point x="108" y="36" type="line"/>
      <point x="179" y="374" type="line"/>
      <point x="150" y="368"/>
      <point x="130" y="360"/>
      <point x="100" y="359" type="curve"/>
      <point x="102" y="394" type="line"/>
      <point x="130" y="395"/>
      <point x="166" y="400"/>
      <point x="192" y="425" type="curve" smooth="yes"/>
      <point x="200" y="432"/>
      <point x="206" y="438"/>
      <point x="217" y="438" type="curve" smooth="yes"/>
      <point x="231" y="438"/>
      <point x="227" y="413"/>
      <point x="224" y="399" type="curve" smooth="yes"/>
      <point x="219" y="376" type="line"/>
      <point x="249" y="397"/>
      <point x="300" y="420"/>
      <point x="333" y="420" type="curve" smooth="yes"/>
      <point x="368" y="420"/>
      <point x="390" y="402"/>
      <point x="396" y="370" type="curve"/>
      <point x="436" y="399"/>
      <point x="481" y="420"/>
      <point x="528" y="420" type="curve" smooth="yes"/>
      <point x="609" y="420"/>
      <point x="595" y="348"/>
      <point x="582" y="288" type="curve" smooth="yes"/>
      <point x="529" y="36" type="line"/>
      <point x="590" y="36" type="line"/>
      <point x="582" y="0" type="line"/>
      <point x="433" y="0" type="line"/>
      <point x="441" y="36" type="line"/>
      <point x="490" y="36" type="line"/>
      <point x="543" y="288" type="line" smooth="yes"/>
      <point x="551" y="326"/>
      <point x="568" y="384"/>
      <point x="515" y="384" type="curve" smooth="yes"/>
      <point x="476" y="384"/>
      <point x="433" y="358"/>
      <point x="401" y="334" type="curve"/>
      <point x="338" y="36" type="line"/>
      <point x="387" y="36" type="line"/>
      <point x="379" y="0" type="line"/>
      <point x="242" y="0" type="line"/>
      <point x="250" y="36" type="line"/>
      <point x="299" y="36" type="line"/>
      <point x="352" y="288" type="line" smooth="yes"/>
      <point x="360" y="326"/>
      <point x="374" y="384"/>
      <point x="322" y="384" type="curve" smooth="yes"/>
      <point x="289" y="384"/>
      <point x="239" y="355"/>
    </contour>
  </outline>
</glyph>
<glyph name="n" format="1">
  <advance width="600"/>
  <unicode hex="006E"/>
  <outline>
    <contour>
      <point x="240" y="320" type="curve"/>
      <point x="180" y="36" type="line"/>
      <point x="258" y="36" type="line"/>
      <point x="250" y="0" type="line"/>
      <point x="63" y="0" type="line"/>
      <point x="71" y="36" type="line"/>
      <point x="141" y="36" type="line"/>
      <point x="212" y="374" type="line"/>
      <point x="183" y="368"/>
      <point x="163" y="360"/>
      <point x="133" y="359" type="curve"/>
      <point x="135" y="394" type="line"/>
      <point x="163" y="395"/>
      <point x="199" y="400"/>
      <point x="225" y="425" type="curve" smooth="yes"/>
      <point x="233" y="432"/>
      <point x="239" y="438"/>
      <point x="250" y="438" type="curve" smooth="yes"/>
      <point x="264" y="438"/>
      <point x="260" y="413"/>
      <point x="257" y="399" type="curve" smooth="yes"/>
      <point x="249" y="362" type="line"/>
      <point x="307" y="390"/>
      <point x="378" y="420"/>
      <point x="437" y="420" type="curve" smooth="yes"/>
      <point x="524" y="420"/>
      <point x="559" y="381"/>
      <point x="532" y="253" type="curve" smooth="yes"/>
      <point x="486" y="36" type="line"/>
      <point x="556" y="36" type="line"/>
      <point x="548" y="0" type="line"/>
      <point x="361" y="0" type="line"/>
      <point x="369" y="36" type="line"/>
      <point x="447" y="36" type="line"/>
      <point x="490" y="240" type="line" smooth="yes"/>
      <point x="505" y="309"/>
      <point x="521" y="384"/>
      <point x="429" y="384" type="curve" smooth="yes"/>
      <point x="366" y="384"/>
      <point x="299" y="353"/>
    </contour>
  </outline>
</glyph>
<glyph name="o" format="1">
  <advance width="600"/>
  <unicode hex="006F"/>
  <outline>
    <contour>
      <point x="297" y="-12" type="curve" smooth="yes"/>
      <point x="175" y="-12"/>
      <point x="108" y="84"/>
      <point x="133" y="204" type="curve" smooth="yes"/>
      <point x="159" y="324"/>
      <point x="267" y="420"/>
      <point x="389" y="420" type="curve" smooth="yes"/>
      <point x="511" y="420"/>
      <point x="579" y="324"/>
      <point x="553" y="204" type="curve" smooth="yes"/>
      <point x="528" y="84"/>
      <point x="419" y="-12"/>
    </contour>
    <contour>
      <point x="305" y="24" type="curve" smooth="yes"/>
      <point x="406" y="24"/>
      <point x="491" y="107"/>
      <point x="511" y="204" type="curve" smooth="yes"/>
      <point x="532" y="301"/>
      <point x="483" y="384"/>
      <point x="382" y="384" type="curve" smooth="yes"/>
      <point x="281" y="384"/>
      <point x="196" y="301"/>
      <point x="175" y="204" type="curve" smooth="yes"/>
      <point x="155" y="107"/>
      <point x="204" y="24"/>
    </contour>
  </outline>
</glyph>
<glyph name="p" format="1">
  <advance width="600"/>
  <unicode hex="0070"/>
  <outline>
    <contour>
      <point x="255" y="307" type="curve"/>
      <point x="201" y="54" type="line"/>
      <point x="231" y="34"/>
      <point x="264" y="24"/>
      <point x="304" y="24" type="curve" smooth="yes"/>
      <point x="405" y="24"/>
      <point x="491" y="109"/>
      <point x="512" y="206" type="curve" smooth="yes"/>
      <point x="530" y="291"/>
      <point x="500" y="384"/>
      <point x="405" y="384" type="curve" smooth="yes"/>
      <point x="353" y="384"/>
      <point x="291" y="350"/>
    </contour>
    <contour>
      <point x="193" y="14" type="curve"/>
      <point x="154" y="-168" type="line"/>
      <point x="252" y="-168" type="line"/>
      <point x="245" y="-204" type="line"/>
      <point x="46" y="-204" type="line"/>
      <point x="53" y="-168" type="line"/>
      <point x="115" y="-168" type="line"/>
      <point x="230" y="374" type="line"/>
      <point x="201" y="368"/>
      <point x="181" y="360"/>
      <point x="151" y="359" type="curve"/>
      <point x="153" y="394" type="line"/>
      <point x="181" y="395"/>
      <point x="217" y="400"/>
      <point x="243" y="425" type="curve" smooth="yes"/>
      <point x="251" y="432"/>
      <point x="257" y="438"/>
      <point x="268" y="438" type="curve" smooth="yes"/>
      <point x="282" y="438"/>
      <point x="278" y="413"/>
      <point x="275" y="399" type="curve" smooth="yes"/>
      <point x="267" y="361" type="line"/>
      <point x="312" y="394"/>
      <point x="360" y="420"/>
      <point x="412" y="420" type="curve" smooth="yes"/>
      <point x="531" y="420"/>
      <point x="577" y="316"/>
      <point x="554" y="205" type="curve"/>
      <point x="528" y="85"/>
      <point x="421" y="-12"/>
      <point x="297" y="-12" type="curve" smooth="yes"/>
      <point x="258" y="-12"/>
      <point x="224" y="-3"/>
    </contour>
  </outline>
</glyph>
<glyph name="q" format="1">
  <advance width="600"/>
  <unicode hex="0071"/>
  <outline>
    <contour>
      <point x="422" y="33" type="curve"/>
      <point x="489" y="347" type="line"/>
      <point x="463" y="370"/>
      <point x="421" y="384"/>
      <point x="383" y="384" type="curve" smooth="yes"/>
      <point x="278" y="384"/>
      <point x="205" y="297"/>
      <point x="183" y="194" type="curve" smooth="yes"/>
      <point x="159" y="78"/>
      <point x="217" y="24"/>
      <point x="328" y="24" type="curve" smooth="yes"/>
      <point x="359" y="24"/>
      <point x="391" y="26"/>
    </contour>
    <contour>
      <point x="527" y="342" type="curve" smooth="yes"/>
      <point x="418" y="-168" type="line"/>
      <point x="508" y="-168" type="line"/>
      <point x="501" y="-204" type="line"/>
      <point x="260" y="-204" type="line"/>
      <point x="267" y="-168" type="line"/>
      <point x="379" y="-168" type="line"/>
      <point x="414" y="-4" type="line"/>
      <point x="383" y="-7"/>
      <point x="351" y="-12"/>
      <point x="320" y="-12" type="curve" smooth="yes"/>
      <point x="177" y="-12"/>
      <point x="113" y="60"/>
      <point x="142" y="199" type="curve" smooth="yes"/>
      <point x="177" y="363"/>
      <point x="305" y="420"/>
      <point x="388" y="420" type="curve" smooth="yes"/>
      <point x="432" y="420"/>
      <point x="469" y="406"/>
      <point x="501" y="383" type="curve"/>
      <point x="510" y="403"/>
      <point x="521" y="423"/>
      <point x="533" y="438" type="curve"/>
      <point x="564" y="424" type="line"/>
      <point x="543" y="395"/>
      <point x="535" y="379"/>
    </contour>
  </outline>
</glyph>
<glyph name="r" format="1">
  <advance width="600"/>
  <unicode hex="0072"/>
  <outline>
    <contour>
      <point x="295" y="267" type="curve"/>
      <point x="246" y="36" type="line"/>
      <point x="431" y="36" type="line"/>
      <point x="423" y="0" type="line"/>
      <point x="110" y="0" type="line"/>
      <point x="118" y="36" type="line"/>
      <point x="207" y="36" type="line"/>
      <point x="278" y="374" type="line"/>
      <point x="249" y="368"/>
      <point x="229" y="360"/>
      <point x="199" y="359" type="curve"/>
      <point x="201" y="394" type="line"/>
      <point x="229" y="395"/>
      <point x="265" y="400"/>
      <point x="291" y="425" type="curve" smooth="yes"/>
      <point x="299" y="432"/>
      <point x="305" y="438"/>
      <point x="316" y="438" type="curve" smooth="yes"/>
      <point x="330" y="438"/>
      <point x="326" y="413"/>
      <point x="323" y="399" type="curve" smooth="yes"/>
      <point x="306" y="319" type="line"/>
      <point x="371" y="361"/>
      <point x="452" y="420"/>
      <point x="523" y="420" type="curve" smooth="yes"/>
      <point x="566" y="420"/>
      <point x="590" y="391"/>
      <point x="597" y="352" type="curve"/>
      <point x="551" y="336" type="line"/>
      <point x="549" y="359"/>
      <point x="538" y="384"/>
      <point x="510" y="384" type="curve" smooth="yes"/>
      <point x="450" y="384"/>
      <point x="347" y="307"/>
    </contour>
  </outline>
</glyph>
<glyph name="t" format="1">
  <advance width="600"/>
  <unicode hex="0074"/>
  <outline>
    <contour>
      <point x="361" y="523" type="line"/>
      <point x="337" y="408" type="line"/>
      <point x="575" y="408" type="line"/>
      <point x="567" y="372" type="line"/>
      <point x="329" y="372" type="line"/>
      <point x="283" y="153" type="line" smooth="yes"/>
      <point x="270" y="93"/>
      <point x="252" y="24"/>
      <point x="332" y="24" type="curve" smooth="yes"/>
      <point x="386" y="24"/>
      <point x="455" y="43"/>
      <point x="511" y="55" type="curve"/>
      <point x="515" y="21" type="line"/>
      <point x="451" y="5"/>
      <point x="382" y="-12"/>
      <point x="318" y="-12" type="curve" smooth="yes"/>
      <point x="238" y="-12"/>
      <point x="217" y="26"/>
      <point x="244" y="153" type="curve" smooth="yes"/>
      <point x="290" y="372" type="line"/>
      <point x="143" y="372" type="line"/>
      <point x="151" y="408" type="line"/>
      <point x="298" y="408" type="line"/>
      <point x="322" y="523" type="line"/>
    </contour>
  </outline>
</glyph>
<glyph name="v" format="1">
  <advance width="600"/>
  <unicode hex="0076"/>
  <outline>
    <contour>
      <point x="138" y="408" type="line"/>
      <point x="306" y="408" type="line"/>
      <point x="298" y="372" type="line"/>
      <point x="236" y="372" type="line"/>
      <point x="305" y="24" type="line"/>
      <point x="522" y="372" type="line"/>
      <point x="459" y="372" type="line"/>
      <point x="467" y="408" type="line"/>
      <point x="636" y="408" type="line"/>
      <point x="628" y="372" type="line"/>
      <point x="564" y="372" type="line"/>
      <point x="319" y="-12" type="line"/>
      <point x="275" y="-12" type="line"/>
      <point x="194" y="372" type="line"/>
      <point x="130" y="372" type="line"/>
    </contour>
  </outline>
</glyph>
<glyph name="w" format="1">
  <advance width="600"/>
  <unicode hex="0077"/>
  <outline>
    <contour>
      <point x="98" y="408" type="line"/>
      <point x="274" y="408" type="line"/>
      <point x="266" y="372" type="line"/>
      <point x="194" y="372" type="line"/>
      <point x="215" y="28" type="line"/>
      <point x="357" y="295" type="line"/>
      <point x="386" y="295" type="line"/>
      <point x="416" y="28" type="line"/>
      <point x="581" y="372" type="line"/>
      <point x="505" y="372" type="line"/>
      <point x="513" y="408" type="line"/>
      <point x="676" y="408" type="line"/>
      <point x="668" y="372" type="line"/>
      <point x="617" y="372" type="line"/>
      <point x="435" y="-12" type="line"/>
      <point x="382" y="-12" type="line"/>
      <point x="355" y="219" type="line"/>
      <point x="232" y="-12" type="line"/>
      <point x="177" y="-12" type="line"/>
      <point x="156" y="372" type="line"/>
      <point x="90" y="372" type="line"/>
    </contour>
  </outline>
</glyph>
<glyph name="x" format="1">
  <advance width="600"/>
  <unicode hex="0078"/>
  <outline>
    <contour>
      <point x="137" y="408" type="line"/>
      <point x="328" y="408" type="line"/>
      <point x="320" y="372" type="line"/>
      <point x="243" y="372" type="line"/>
      <point x="341" y="244" type="line"/>
      <point x="488" y="372" type="line"/>
      <point x="410" y="372" type="line"/>
      <point x="418" y="408" type="line"/>
      <point x="612" y="408" type="line"/>
      <point x="604" y="372" type="line"/>
      <point x="537" y="372" type="line"/>
      <point x="361" y="217" type="line"/>
      <point x="500" y="36" type="line"/>
      <point x="568" y="36" type="line"/>
      <point x="560" y="0" type="line"/>
      <point x="354" y="0" type="line"/>
      <point x="362" y="36" type="line"/>
      <point x="448" y="36" type="line"/>
      <point x="329" y="190" type="line"/>
      <point x="154" y="36" type="line"/>
      <point x="246" y="36" type="line"/>
      <point x="238" y="0" type="line"/>
      <point x="39" y="0" type="line"/>
      <point x="47" y="36" type="line"/>
      <point x="104" y="36" type="line"/>
      <point x="309" y="216" type="line"/>
      <point x="189" y="372" type="line"/>
      <point x="129" y="372" type="line"/>
    </contour>
  </outline>
</glyph>
<glyph name="braceleft" format="1">
  <advance width="600"/>
  <unicode hex="007B"/>
  <outline>
    <contour>
      <point x="355" y="192" type="curve"/>
      <point x="328" y="65" type="line" smooth="yes"/>
      <point x="317" y="12"/>
      <point x="321" y="-23"/>
      <point x="387" y="-33" type="curve"/>
      <point x="383" y="-53" type="line"/>
      <point x="286" y="-46"/>
      <point x="272" y="-14"/>
      <point x="292" y="78" type="curve" smooth="yes"/>
      <point x="318" y="202" type="line"/>
      <point x="329" y="260"/>
      <point x="329" y="287"/>
      <point x="271" y="304" type="curve"/>
      <point x="335" y="320"/>
      <point x="348" y="348"/>
      <point x="361" y="405" type="curve" smooth="yes"/>
      <point x="389" y="537" type="line" smooth="yes"/>
      <point x="408" y="627"/>
      <point x="442" y="653"/>
      <point x="533" y="656" type="curve"/>
      <point x="529" y="636" type="line"/>
      <point x="459" y="626"/>
      <point x="440" y="591"/>
      <point x="428" y="538" type="curve" smooth="yes"/>
      <point x="401" y="411" type="line" smooth="yes"/>
      <point x="388" y="354"/>
      <point x="373" y="320"/>
      <point x="307" y="305" type="curve"/>
      <point x="306" y="303" type="line"/>
      <point x="367" y="287"/>
      <point x="366" y="251"/>
    </contour>
  </outline>
</glyph>
<glyph name="braceright" format="1">
  <advance width="600"/>
  <unicode hex="007D"/>
  <outline>
    <contour>
      <point x="373" y="411" type="curve"/>
      <point x="400" y="538" type="line" smooth="yes"/>
      <point x="412" y="591"/>
      <point x="407" y="626"/>
      <point x="341" y="636" type="curve"/>
      <point x="345" y="656" type="line"/>
      <point x="442" y="649"/>
      <point x="456" y="617"/>
      <point x="437" y="525" type="curve"/>
      <point x="410" y="401" type="line"/>
      <point x="399" y="343"/>
      <point x="399" y="316"/>
      <point x="458" y="300" type="curve"/>
      <point x="458" y="298" type="line"/>
      <point x="393" y="283"/>
      <point x="380" y="255"/>
      <point x="367" y="198" type="curve" smooth="yes"/>
      <point x="339" y="66" type="line" smooth="yes"/>
      <point x="320" y="-24"/>
      <point x="286" y="-50"/>
      <point x="195" y="-53" type="curve"/>
      <point x="199" y="-33" type="line"/>
      <point x="269" y="-23"/>
      <point x="289" y="12"/>
      <point x="300" y="65" type="curve" smooth="yes"/>
      <point x="327" y="192" type="line" smooth="yes"/>
      <point x="340" y="249"/>
      <point x="355" y="283"/>
      <point x="421" y="298" type="curve"/>
      <point x="422" y="300" type="line"/>
      <point x="361" y="316"/>
      <point x="362" y="352"/>
    </contour>
  </outline>
</glyph>
<glyph name="exclamdown" format="1">
  <advance width="600"/>
  <unicode hex="00A1"/>
  <outline>
    <contour>
      <point x="337" y="249" type="line"/>
      <point x="367" y="249" type="line"/>
      <point x="313" y="-159" type="line"/>
      <point x="308" y="-185"/>
      <point x="282" y="-204"/>
      <point x="256" y="-204" type="curve" smooth="yes"/>
      <point x="230" y="-204"/>
      <point x="212" y="-185"/>
      <point x="217" y="-159" type="curve"/>
    </contour>
    <contour>
      <point x="324" y="367" type="curve" smooth="yes"/>
      <point x="330" y="396"/>
      <point x="359" y="420"/>
      <point x="388" y="420" type="curve" smooth="yes"/>
      <point x="418" y="420"/>
      <point x="437" y="396"/>
      <point x="431" y="367" type="curve" smooth="yes"/>
      <point x="425" y="337"/>
      <point x="396" y="313"/>
      <point x="366" y="313" type="curve" smooth="yes"/>
      <point x="337" y="313"/>
      <point x="318" y="337"/>
    </contour>
  </outline>
</glyph>
<glyph name="cent" format="1">
  <advance width="600"/>
  <unicode hex="00A2"/>
  <outline>
    <contour>
      <point x="430" y="636" type="line"/>
      <point x="469" y="636" type="line"/>
      <point x="446" y="525" type="line"/>
      <point x="496" y="523"/>
      <point x="555" y="511"/>
      <point x="575" y="464" type="curve"/>
      <point x="567" y="449"/>
      <point x="564" y="433"/>
      <point x="561" y="417" type="curve" smooth="yes"/>
      <point x="557" y="401"/>
      <point x="556" y="386"/>
      <point x="555" y="370" type="curve"/>
      <point x="516" y="370" type="line"/>
      <point x="521" y="395" type="line" smooth="yes"/>
      <point x="533" y="450"/>
      <point x="507" y="489"/>
      <point x="426" y="489" type="curve" smooth="yes"/>
      <point x="328" y="489"/>
      <point x="241" y="408"/>
      <point x="221" y="313" type="curve" smooth="yes"/>
      <point x="199" y="213"/>
      <point x="249" y="126"/>
      <point x="354" y="126" type="curve" smooth="yes"/>
      <point x="412" y="126"/>
      <point x="477" y="146"/>
      <point x="535" y="170" type="curve"/>
      <point x="543" y="136" type="line"/>
      <point x="481" y="108"/>
      <point x="416" y="92"/>
      <point x="353" y="90" type="curve"/>
      <point x="325" y="-44" type="line"/>
      <point x="286" y="-44" type="line"/>
      <point x="314" y="90" type="line"/>
      <point x="202" y="108"/>
      <point x="155" y="200"/>
      <point x="179" y="314" type="curve" smooth="yes"/>
      <point x="202" y="422"/>
      <point x="296" y="511"/>
      <point x="407" y="525" type="curve"/>
    </contour>
  </outline>
</glyph>
<glyph name="sterling" format="1">
  <advance width="600"/>
  <unicode hex="00A3"/>
  <outline>
    <contour>
      <point x="278" y="102" type="curve"/>
      <point x="261" y="127"/>
      <point x="246" y="149"/>
      <point x="210" y="149" type="curve" smooth="yes"/>
      <point x="172" y="149"/>
      <point x="142" y="123"/>
      <point x="134" y="85" type="curve" smooth="yes"/>
      <point x="127" y="52"/>
      <point x="147" y="24"/>
      <point x="181" y="24" type="curve" smooth="yes"/>
      <point x="221" y="24"/>
      <point x="265" y="63"/>
    </contour>
    <contour>
      <point x="317" y="327" type="curve"/>
      <point x="466" y="327" type="line"/>
      <point x="458" y="291" type="line"/>
      <point x="319" y="291" type="line"/>
      <point x="326" y="244"/>
      <point x="333" y="183"/>
      <point x="322" y="133" type="curve"/>
      <point x="317" y="114" type="line"/>
      <point x="334" y="80"/>
      <point x="373" y="24"/>
      <point x="417" y="24" type="curve" smooth="yes"/>
      <point x="469" y="24"/>
      <point x="503" y="77"/>
      <point x="513" y="122" type="curve"/>
      <point x="546" y="117" type="line"/>
      <point x="532" y="53"/>
      <point x="481" y="-12"/>
      <point x="411" y="-12" type="curve" smooth="yes"/>
      <point x="357" y="-12"/>
      <point x="323" y="33"/>
      <point x="298" y="70" type="curve"/>
      <point x="273" y="24"/>
      <point x="220" y="-12"/>
      <point x="170" y="-12" type="curve" smooth="yes"/>
      <point x="116" y="-12"/>
      <point x="81" y="31"/>
      <point x="92" y="86" type="curve"/>
      <point x="105" y="144"/>
      <point x="156" y="185"/>
      <point x="214" y="185" type="curve" smooth="yes"/>
      <point x="248" y="185"/>
      <point x="270" y="175"/>
      <point x="288" y="151" type="curve"/>
      <point x="296" y="197"/>
      <point x="286" y="241"/>
      <point x="280" y="284" type="curve" smooth="yes"/>
      <point x="279" y="291" type="line"/>
      <point x="154" y="291" type="line"/>
      <point x="162" y="327" type="line"/>
      <point x="276" y="327" type="line"/>
      <point x="270" y="364"/>
      <point x="268" y="403"/>
      <point x="276" y="442" type="curve" smooth="yes"/>
      <point x="297" y="542"/>
      <point x="370" y="612"/>
      <point x="473" y="612" type="curve" smooth="yes"/>
      <point x="553" y="612"/>
      <point x="623" y="557"/>
      <point x="605" y="471" type="curve" smooth="yes"/>
      <point x="599" y="440"/>
      <point x="584" y="409"/>
      <point x="558" y="409" type="curve" smooth="yes"/>
      <point x="539" y="409"/>
      <point x="537" y="430"/>
      <point x="541" y="446" type="curve" smooth="yes"/>
      <point x="545" y="465"/>
      <point x="553" y="475"/>
      <point x="568" y="489" type="curve"/>
      <point x="573" y="545"/>
      <point x="517" y="576"/>
      <point x="466" y="576" type="curve" smooth="yes"/>
      <point x="383" y="576"/>
      <point x="334" y="516"/>
      <point x="317" y="439" type="curve" smooth="yes"/>
      <point x="309" y="399"/>
      <point x="312" y="365"/>
    </contour>
  </outline>
</glyph>
<glyph name="yen" format="1">
  <advance width="600"/>
  <unicode hex="00A5"/>
  <outline>
    <contour>
      <point x="404" y="295" type="line"/>
      <point x="529" y="295" type="line"/>
      <point x="521" y="259" type="line"/>
      <point x="375" y="259" type="line"/>
      <point x="328" y="36" type="line"/>
      <point x="462" y="36" type="line"/>
      <point x="454" y="0" type="line"/>
      <point x="147" y="0" type="line"/>
      <point x="155" y="36" type="line"/>
      <point x="289" y="36" type="line"/>
      <point x="336" y="259" type="line"/>
      <point x="191" y="259" type="line"/>
      <point x="199" y="295" type="line"/>
      <point x="323" y="295" type="line"/>
      <point x="217" y="564" type="line"/>
      <point x="158" y="564" type="line"/>
      <point x="166" y="600" type="line"/>
      <point x="358" y="600" type="line"/>
      <point x="350" y="564" type="line"/>
      <point x="259" y="564" type="line"/>
      <point x="364" y="297" type="line"/>
      <point x="583" y="564" type="line"/>
      <point x="490" y="564" type="line"/>
      <point x="498" y="600" type="line"/>
      <point x="690" y="600" type="line"/>
      <point x="682" y="564" type="line"/>
      <point x="624" y="564" type="line"/>
    </contour>
  </outline>
</glyph>
<glyph name="section" format="1">
  <advance width="600"/>
  <unicode hex="00A7"/>
  <outline>
    <contour>
      <point x="288" y="208" type="curve" smooth="yes"/>
      <point x="399" y="108" type="line"/>
      <point x="432" y="122"/>
      <point x="458" y="149"/>
      <point x="465" y="183" type="curve" smooth="yes"/>
      <point x="473" y="223"/>
      <point x="449" y="251"/>
      <point x="424" y="273" type="curve" smooth="yes"/>
      <point x="303" y="385" type="line"/>
      <point x="270" y="366"/>
      <point x="247" y="342"/>
      <point x="239" y="306" type="curve" smooth="yes"/>
      <point x="230" y="264"/>
      <point x="262" y="231"/>
    </contour>
    <contour>
      <point x="422" y="576" type="curve" smooth="yes"/>
      <point x="370" y="576"/>
      <point x="319" y="546"/>
      <point x="307" y="491" type="curve" smooth="yes"/>
      <point x="284" y="381"/>
      <point x="534" y="309"/>
      <point x="507" y="184" type="curve" smooth="yes"/>
      <point x="497" y="137"/>
      <point x="461" y="106"/>
      <point x="418" y="84" type="curve"/>
      <point x="438" y="56"/>
      <point x="449" y="31"/>
      <point x="440" y="-9" type="curve" smooth="yes"/>
      <point x="425" y="-81"/>
      <point x="344" y="-120"/>
      <point x="280" y="-120" type="curve" smooth="yes"/>
      <point x="206" y="-120"/>
      <point x="147" y="-74"/>
      <point x="164" y="6" type="curve" smooth="yes"/>
      <point x="167" y="20"/>
      <point x="178" y="45"/>
      <point x="196" y="45" type="curve" smooth="yes"/>
      <point x="213" y="45"/>
      <point x="215" y="23"/>
      <point x="212" y="9" type="curve" smooth="yes"/>
      <point x="210" y="-2"/>
      <point x="205" y="-9"/>
      <point x="199" y="-19" type="curve"/>
      <point x="205" y="-64"/>
      <point x="238" y="-84"/>
      <point x="285" y="-84" type="curve" smooth="yes"/>
      <point x="335" y="-84"/>
      <point x="388" y="-58"/>
      <point x="400" y="-2" type="curve" smooth="yes"/>
      <point x="421" y="101"/>
      <point x="170" y="180"/>
      <point x="197" y="307" type="curve" smooth="yes"/>
      <point x="207" y="354"/>
      <point x="239" y="383"/>
      <point x="282" y="408" type="curve"/>
      <point x="264" y="429"/>
      <point x="259" y="459"/>
      <point x="265" y="490" type="curve" smooth="yes"/>
      <point x="282" y="567"/>
      <point x="355" y="612"/>
      <point x="427" y="612" type="curve" smooth="yes"/>
      <point x="494" y="612"/>
      <point x="558" y="570"/>
      <point x="542" y="496" type="curve" smooth="yes"/>
      <point x="539" y="482"/>
      <point x="530" y="454"/>
      <point x="512" y="454" type="curve" smooth="yes"/>
      <point x="497" y="454"/>
      <point x="492" y="468"/>
      <point x="495" y="481" type="curve" smooth="yes"/>
      <point x="498" y="492"/>
      <point x="503" y="502"/>
      <point x="509" y="513" type="curve"/>
      <point x="512" y="557"/>
      <point x="460" y="576"/>
    </contour>
  </outline>
</glyph>
<glyph name="dieresis" format="1">
  <advance width="600"/>
  <unicode hex="00A8"/>
  <outline>
    <contour>
      <point x="262" y="559" type="curve" smooth="yes"/>
      <point x="268" y="586"/>
      <point x="294" y="608"/>
      <point x="321" y="608" type="curve" smooth="yes"/>
      <point x="348" y="608"/>
      <point x="366" y="586"/>
      <point x="360" y="559" type="curve" smooth="yes"/>
      <point x="354" y="532"/>
      <point x="327" y="510"/>
      <point x="300" y="510" type="curve" smooth="yes"/>
      <point x="273" y="510"/>
      <point x="256" y="532"/>
    </contour>
    <contour>
      <point x="478" y="559" type="curve" smooth="yes"/>
      <point x="484" y="586"/>
      <point x="510" y="608"/>
      <point x="537" y="608" type="curve" smooth="yes"/>
      <point x="564" y="608"/>
      <point x="582" y="586"/>
      <point x="576" y="559" type="curve" smooth="yes"/>
      <point x="570" y="532"/>
      <point x="543" y="510"/>
      <point x="516" y="510" type="curve" smooth="yes"/>
      <point x="489" y="510"/>
      <point x="472" y="532"/>
    </contour>
  </outline>
</glyph>
<glyph name="copyright" format="1">
  <advance width="600"/>
  <unicode hex="00A9"/>
  <outline>
    <contour>
      <point x="297" y="-12" type="curve" smooth="yes"/>
      <point x="179" y="-12"/>
      <point x="44" y="66"/>
      <point x="94" y="300" type="curve" smooth="yes"/>
      <point x="144" y="534"/>
      <point x="312" y="612"/>
      <point x="430" y="612" type="curve" smooth="yes"/>
      <point x="548" y="612"/>
      <point x="684" y="534"/>
      <point x="634" y="300" type="curve" smooth="yes"/>
      <point x="584" y="66"/>
      <point x="415" y="-12"/>
    </contour>
    <contour>
      <point x="305" y="24" type="curve" smooth="yes"/>
      <point x="405" y="24"/>
      <point x="548" y="93"/>
      <point x="592" y="300" type="curve" smooth="yes"/>
      <point x="636" y="507"/>
      <point x="522" y="576"/>
      <point x="422" y="576" type="curve" smooth="yes"/>
      <point x="322" y="576"/>
      <point x="180" y="507"/>
      <point x="136" y="300" type="curve" smooth="yes"/>
      <point x="92" y="93"/>
      <point x="205" y="24"/>
    </contour>
    <contour>
      <point x="439" y="240" type="curve"/>
      <point x="458" y="240" type="line"/>
      <point x="445" y="180" type="line"/>
      <point x="409" y="150"/>
      <point x="370" y="122"/>
      <point x="323" y="122" type="curve" smooth="yes"/>
      <point x="265" y="122"/>
      <point x="209" y="172"/>
      <point x="237" y="304" type="curve" smooth="yes"/>
      <point x="264" y="434"/>
      <point x="340" y="475"/>
      <point x="400" y="475" type="curve" smooth="yes"/>
      <point x="432" y="475"/>
      <point x="459" y="468"/>
      <point x="476" y="452" type="curve"/>
      <point x="487" y="464" type="line"/>
      <point x="504" y="458" type="line"/>
      <point x="494" y="444"/>
      <point x="490" y="425"/>
      <point x="486" y="406" type="curve" smooth="yes"/>
      <point x="480" y="372" type="line"/>
      <point x="459" y="372" type="line"/>
      <point x="469" y="423"/>
      <point x="447" y="446"/>
      <point x="395" y="446" type="curve" smooth="yes"/>
      <point x="327" y="446"/>
      <point x="286" y="372"/>
      <point x="271" y="302" type="curve" smooth="yes"/>
      <point x="257" y="233"/>
      <point x="264" y="151"/>
      <point x="331" y="151" type="curve" smooth="yes"/>
      <point x="384" y="151"/>
      <point x="427" y="184"/>
    </contour>
  </outline>
</glyph>
<glyph name="ordfeminine" format="1">
  <advance width="600"/>
  <unicode hex="00AA"/>
  <outline>
    <contour>
      <point x="210" y="257" type="line"/>
      <point x="499" y="257" type="line"/>
      <point x="491" y="221" type="line"/>
      <point x="202" y="221" type="line"/>
    </contour>
    <contour>
      <point x="437" y="357" type="line"/>
      <point x="441" y="377" type="line"/>
      <point x="400" y="361"/>
      <point x="357" y="350"/>
      <point x="316" y="350" type="curve" smooth="yes"/>
      <point x="272" y="350"/>
      <point x="227" y="366"/>
      <point x="238" y="418" type="curve" smooth="yes"/>
      <point x="250" y="473"/>
      <point x="308" y="493"/>
      <point x="352" y="496" type="curve" smooth="yes"/>
      <point x="468" y="505" type="line"/>
      <point x="472" y="524" type="line" smooth="yes"/>
      <point x="480" y="561"/>
      <point x="483" y="582"/>
      <point x="439" y="582" type="curve" smooth="yes"/>
      <point x="406" y="582"/>
      <point x="370" y="574"/>
      <point x="337" y="557" type="curve"/>
      <point x="330" y="522" type="line"/>
      <point x="294" y="522" type="line"/>
      <point x="306" y="578" type="line"/>
      <point x="348" y="599"/>
      <point x="397" y="612"/>
      <point x="440" y="612" type="curve" smooth="yes"/>
      <point x="461" y="612"/>
      <point x="492" y="608"/>
      <point x="506" y="594" type="curve" smooth="yes"/>
      <point x="521" y="579"/>
      <point x="515" y="554"/>
      <point x="510" y="533" type="curve" smooth="yes"/>
      <point x="479" y="387" type="line"/>
      <point x="533" y="387" type="line"/>
      <point x="527" y="357" type="line"/>
    </contour>
    <contour>
      <point x="448" y="411" type="curve"/>
      <point x="462" y="476" type="line"/>
      <point x="421" y="475"/>
      <point x="374" y="472"/>
      <point x="337" y="464" type="curve" smooth="yes"/>
      <point x="309" y="458"/>
      <point x="280" y="447"/>
      <point x="274" y="418" type="curve" smooth="yes"/>
      <point x="267" y="387"/>
      <point x="297" y="380"/>
      <point x="322" y="380" type="curve" smooth="yes"/>
      <point x="362" y="380"/>
      <point x="406" y="395"/>
    </contour>
  </outline>
</glyph>
<glyph name="guillemotleft" format="1">
  <advance width="600"/>
  <unicode hex="00AB"/>
  <outline>
    <contour>
      <point x="454" y="548" type="line"/>
      <point x="475" y="522" type="line"/>
      <point x="187" y="300" type="line"/>
      <point x="381" y="78" type="line"/>
      <point x="349" y="52" type="line"/>
      <point x="136" y="300" type="line"/>
    </contour>
    <contour>
      <point x="618" y="548" type="line"/>
      <point x="639" y="522" type="line"/>
      <point x="351" y="300" type="line"/>
      <point x="545" y="78" type="line"/>
      <point x="513" y="52" type="line"/>
      <point x="300" y="300" type="line"/>
    </contour>
  </outline>
</glyph>
<glyph name="registered" format="1">
  <advance width="600"/>
  <unicode hex="00AE"/>
  <outline>
    <contour>
      <point x="485" y="148" type="line"/>
      <point x="480" y="122" type="line"/>
      <point x="423" y="122" type="line"/>
      <point x="346" y="289" type="line"/>
      <point x="293" y="289" type="line"/>
      <point x="263" y="148" type="line"/>
      <point x="317" y="148" type="line"/>
      <point x="312" y="122" type="line"/>
      <point x="188" y="122" type="line"/>
      <point x="193" y="148" type="line"/>
      <point x="231" y="148" type="line"/>
      <point x="294" y="443" type="line"/>
      <point x="257" y="447" type="line"/>
      <point x="263" y="473" type="line"/>
      <point x="315" y="471" type="line" smooth="yes"/>
      <point x="346" y="470"/>
      <point x="377" y="475"/>
      <point x="407" y="475" type="curve" smooth="yes"/>
      <point x="451" y="475"/>
      <point x="493" y="443"/>
      <point x="480" y="383" type="curve" smooth="yes"/>
      <point x="470" y="333"/>
      <point x="431" y="303"/>
      <point x="383" y="293" type="curve"/>
      <point x="449" y="148" type="line"/>
    </contour>
    <contour>
      <point x="326" y="443" type="curve"/>
      <point x="299" y="313" type="line"/>
      <point x="329" y="313" type="line" smooth="yes"/>
      <point x="382" y="313"/>
      <point x="432" y="320"/>
      <point x="445" y="381" type="curve" smooth="yes"/>
      <point x="455" y="426"/>
      <point x="433" y="446"/>
      <point x="393" y="446" type="curve" smooth="yes"/>
      <point x="372" y="446"/>
      <point x="339" y="443"/>
    </contour>
    <contour>
      <point x="305" y="24" type="curve" smooth="yes"/>
      <point x="405" y="24"/>
      <point x="548" y="93"/>
      <point x="592" y="300" type="curve" smooth="yes"/>
      <point x="636" y="507"/>
      <point x="522" y="576"/>
      <point x="422" y="576" type="curve" smooth="yes"/>
      <point x="322" y="576"/>
      <point x="180" y="507"/>
      <point x="136" y="300" type="curve" smooth="yes"/>
      <point x="92" y="93"/>
      <point x="205" y="24"/>
    </contour>
    <contour>
      <point x="297" y="-12" type="curve" smooth="yes"/>
      <point x="179" y="-12"/>
      <point x="44" y="66"/>
      <point x="94" y="300" type="curve" smooth="yes"/>
      <point x="144" y="534"/>
      <point x="312" y="612"/>
      <point x="430" y="612" type="curve" smooth="yes"/>
      <point x="548" y="612"/>
      <point x="684" y="534"/>
      <point x="634" y="300" type="curve" smooth="yes"/>
      <point x="584" y="66"/>
      <point x="415" y="-12"/>
    </contour>
  </outline>
</glyph>
<glyph name="macron" format="1">
  <advance width="600"/>
  <unicode hex="00AF"/>
  <outline>
    <contour>
      <point x="535" y="541" type="line"/>
      <point x="295" y="541" type="line"/>
      <point x="303" y="577" type="line"/>
      <point x="543" y="577" type="line"/>
    </contour>
  </outline>
</glyph>
<glyph name="twosuperior" format="1">
  <advance width="600"/>
  <unicode hex="00B2"/>
  <outline>
    <contour>
      <point x="457" y="346" type="line"/>
      <point x="485" y="339" type="line"/>
      <point x="446" y="282" type="line"/>
      <point x="248" y="282" type="line"/>
      <point x="254" y="310" type="line"/>
      <point x="271" y="325" type="line" smooth="yes"/>
      <point x="324" y="372"/>
      <point x="446" y="459"/>
      <point x="460" y="528" type="curve" smooth="yes"/>
      <point x="467" y="561"/>
      <point x="443" y="584"/>
      <point x="411" y="584" type="curve" smooth="yes"/>
      <point x="392" y="584"/>
      <point x="373" y="577"/>
      <point x="356" y="556" type="curve"/>
      <point x="353" y="540"/>
      <point x="340" y="520"/>
      <point x="320" y="520" type="curve" smooth="yes"/>
      <point x="310" y="520"/>
      <point x="307" y="528"/>
      <point x="309" y="537" type="curve" smooth="yes"/>
      <point x="319" y="584"/>
      <point x="377" y="612"/>
      <point x="418" y="612" type="curve" smooth="yes"/>
      <point x="465" y="612"/>
      <point x="506" y="581"/>
      <point x="496" y="530" type="curve"/>
      <point x="487" y="490"/>
      <point x="461" y="456"/>
      <point x="429" y="427" type="curve" smooth="yes"/>
      <point x="296" y="310" type="line"/>
      <point x="430" y="310" type="line"/>
    </contour>
  </outline>
</glyph>
<glyph name="threesuperior" format="1">
  <advance width="600"/>
  <unicode hex="00B3"/>
  <outline>
    <contour>
      <point x="257" y="301" type="curve"/>
      <point x="275" y="326" type="line"/>
      <point x="297" y="312"/>
      <point x="328" y="304"/>
      <point x="357" y="304" type="curve" smooth="yes"/>
      <point x="402" y="304"/>
      <point x="442" y="325"/>
      <point x="452" y="374" type="curve" smooth="yes"/>
      <point x="462" y="419"/>
      <point x="440" y="444"/>
      <point x="396" y="444" type="curve" smooth="yes"/>
      <point x="369" y="444" type="line"/>
      <point x="375" y="472" type="line"/>
      <point x="394" y="472" type="line" smooth="yes"/>
      <point x="427" y="472"/>
      <point x="460" y="483"/>
      <point x="468" y="521" type="curve" smooth="yes"/>
      <point x="476" y="558"/>
      <point x="460" y="584"/>
      <point x="423" y="584" type="curve" smooth="yes"/>
      <point x="409" y="584"/>
      <point x="394" y="579"/>
      <point x="381" y="571" type="curve"/>
      <point x="377" y="553"/>
      <point x="360" y="531"/>
      <point x="341" y="531" type="curve" smooth="yes"/>
      <point x="331" y="531"/>
      <point x="327" y="539"/>
      <point x="328" y="548" type="curve"/>
      <point x="333" y="567"/>
      <point x="368" y="612"/>
      <point x="436" y="612" type="curve" smooth="yes"/>
      <point x="486" y="612"/>
      <point x="514" y="573"/>
      <point x="503" y="524" type="curve" smooth="yes"/>
      <point x="497" y="493"/>
      <point x="481" y="479"/>
      <point x="455" y="460" type="curve"/>
      <point x="456" y="459" type="line"/>
      <point x="483" y="434"/>
      <point x="497" y="421"/>
      <point x="488" y="375" type="curve"/>
      <point x="473" y="308"/>
      <point x="413" y="276"/>
      <point x="351" y="276" type="curve" smooth="yes"/>
      <point x="318" y="276"/>
      <point x="281" y="283"/>
    </contour>
  </outline>
</glyph>
<glyph name="acute" format="1">
  <advance width="600"/>
  <unicode hex="00B4"/>
  <outline>
    <contour>
      <point x="544" y="645" type="line"/>
      <point x="572" y="600" type="line"/>
      <point x="357" y="473" type="line"/>
      <point x="340" y="503" type="line"/>
    </contour>
  </outline>
</glyph>
<glyph name="paragraph" format="1">
  <advance width="600"/>
  <unicode hex="00B6"/>
  <outline>
    <contour>
      <point x="259" y="-94" type="line"/>
      <point x="338" y="278" type="line"/>
      <point x="240" y="270"/>
      <point x="168" y="334"/>
      <point x="190" y="438" type="curve" smooth="yes"/>
      <point x="203" y="500"/>
      <point x="253" y="600"/>
      <point x="420" y="600" type="curve" smooth="yes"/>
      <point x="631" y="600" type="line"/>
      <point x="623" y="564" type="line"/>
      <point x="584" y="564" type="line"/>
      <point x="444" y="-94" type="line"/>
      <point x="405" y="-94" type="line"/>
      <point x="545" y="564" type="line"/>
      <point x="438" y="564" type="line"/>
      <point x="298" y="-94" type="line"/>
    </contour>
  </outline>
</glyph>
<glyph name="cedilla" format="1">
  <advance width="600"/>
  <unicode hex="00B8"/>
  <outline>
    <contour>
      <point x="282" y="9" type="line"/>
      <point x="319" y="9" type="line"/>
      <point x="288" y="-68" type="line"/>
      <point x="307" y="-68" type="line" smooth="yes"/>
      <point x="356" y="-68"/>
      <point x="396" y="-93"/>
      <point x="385" y="-147" type="curve" smooth="yes"/>
      <point x="371" y="-211"/>
      <point x="303" y="-235"/>
      <point x="248" y="-235" type="curve" smooth="yes"/>
      <point x="214" y="-235"/>
      <point x="175" y="-227"/>
      <point x="149" y="-210" type="curve"/>
      <point x="157" y="-173" type="line"/>
      <point x="185" y="-188"/>
      <point x="218" y="-199"/>
      <point x="252" y="-199" type="curve" smooth="yes"/>
      <point x="285" y="-199"/>
      <point x="334" y="-186"/>
      <point x="343" y="-146" type="curve" smooth="yes"/>
      <point x="350" y="-111"/>
      <point x="307" y="-105"/>
      <point x="281" y="-105" type="curve"/>
      <point x="232" y="-108" type="line"/>
    </contour>
  </outline>
</glyph>
<glyph name="onesuperior" format="1">
  <advance width="600"/>
  <unicode hex="00B9"/>
  <outline>
    <contour>
      <point x="442" y="581" type="curve" smooth="yes"/>
      <point x="385" y="310" type="line"/>
      <point x="459" y="310" type="line"/>
      <point x="453" y="282" type="line"/>
      <point x="267" y="282" type="line"/>
      <point x="273" y="310" type="line"/>
      <point x="350" y="310" type="line"/>
      <point x="405" y="567" type="line"/>
      <point x="387" y="563"/>
      <point x="368" y="561"/>
      <point x="349" y="561" type="curve" smooth="yes"/>
      <point x="332" y="561" type="line"/>
      <point x="333" y="589" type="line"/>
      <point x="349" y="589" type="line" smooth="yes"/>
      <point x="368" y="589"/>
      <point x="401" y="590"/>
      <point x="418" y="605" type="curve" smooth="yes"/>
      <point x="422" y="609"/>
      <point x="427" y="612"/>
      <point x="433" y="612" type="curve" smooth="yes"/>
      <point x="451" y="612"/>
      <point x="445" y="594"/>
    </contour>
  </outline>
</glyph>
<glyph name="ordmasculine" format="1">
  <advance width="600"/>
  <unicode hex="00BA"/>
  <outline>
    <contour>
      <point x="210" y="257" type="line"/>
      <point x="499" y="257" type="line"/>
      <point x="491" y="221" type="line"/>
      <point x="202" y="221" type="line"/>
    </contour>
    <contour>
      <point x="374" y="350" type="curve" smooth="yes"/>
      <point x="299" y="350"/>
      <point x="246" y="403"/>
      <point x="262" y="481" type="curve" smooth="yes"/>
      <point x="279" y="559"/>
      <point x="355" y="612"/>
      <point x="430" y="612" type="curve" smooth="yes"/>
      <point x="505" y="612"/>
      <point x="559" y="559"/>
      <point x="542" y="481" type="curve" smooth="yes"/>
      <point x="526" y="403"/>
      <point x="449" y="350"/>
    </contour>
    <contour>
      <point x="381" y="380" type="curve" smooth="yes"/>
      <point x="439" y="380"/>
      <point x="494" y="423"/>
      <point x="506" y="481" type="curve" smooth="yes"/>
      <point x="519" y="539"/>
      <point x="482" y="582"/>
      <point x="424" y="582" type="curve" smooth="yes"/>
      <point x="366" y="582"/>
      <point x="311" y="539"/>
      <point x="298" y="481" type="curve" smooth="yes"/>
      <point x="286" y="423"/>
      <point x="323" y="380"/>
    </contour>
  </outline>
</glyph>
<glyph name="guillemotright" format="1">
  <advance width="600"/>
  <unicode hex="00BB"/>
  <outline>
    <contour>
      <point x="183" y="522" type="line"/>
      <point x="214" y="548" type="line"/>
      <point x="428" y="300" type="line"/>
      <point x="109" y="52" type="line"/>
      <point x="89" y="78" type="line"/>
      <point x="377" y="300" type="line"/>
    </contour>
    <contour>
      <point x="347" y="522" type="line"/>
      <point x="378" y="548" type="line"/>
      <point x="592" y="300" type="line"/>
      <point x="273" y="52" type="line"/>
      <point x="253" y="78" type="line"/>
      <point x="541" y="300" type="line"/>
    </contour>
  </outline>
</glyph>
<glyph name="onehalf" format="1">
  <advance width="600"/>
  <unicode hex="00BD"/>
  <outline>
    <contour>
      <point x="546" y="629" type="line"/>
      <point x="569" y="613" type="line"/>
      <point x="158" y="-27" type="line"/>
      <point x="135" y="-11" type="line"/>
    </contour>
    <contour>
      <point x="541" y="64" type="line"/>
      <point x="569" y="57" type="line"/>
      <point x="530" y="0" type="line"/>
      <point x="332" y="0" type="line"/>
      <point x="338" y="28" type="line"/>
      <point x="355" y="43" type="line" smooth="yes"/>
      <point x="408" y="90"/>
      <point x="530" y="177"/>
      <point x="544" y="246" type="curve" smooth="yes"/>
      <point x="551" y="279"/>
      <point x="527" y="302"/>
      <point x="495" y="302" type="curve" smooth="yes"/>
      <point x="476" y="302"/>
      <point x="457" y="295"/>
      <point x="440" y="274" type="curve"/>
      <point x="437" y="258"/>
      <point x="424" y="238"/>
      <point x="404" y="238" type="curve" smooth="yes"/>
      <point x="394" y="238"/>
      <point x="391" y="246"/>
      <point x="393" y="255" type="curve" smooth="yes"/>
      <point x="403" y="302"/>
      <point x="461" y="330"/>
      <point x="502" y="330" type="curve" smooth="yes"/>
      <point x="549" y="330"/>
      <point x="591" y="299"/>
      <point x="580" y="248" type="curve" smooth="yes"/>
      <point x="571" y="208"/>
      <point x="545" y="174"/>
      <point x="513" y="145" type="curve" smooth="yes"/>
      <point x="380" y="28" type="line"/>
      <point x="514" y="28" type="line"/>
    </contour>
    <contour>
      <point x="283" y="581" type="curve" smooth="yes"/>
      <point x="226" y="310" type="line"/>
      <point x="300" y="310" type="line"/>
      <point x="294" y="282" type="line"/>
      <point x="108" y="282" type="line"/>
      <point x="114" y="310" type="line"/>
      <point x="191" y="310" type="line"/>
      <point x="246" y="567" type="line"/>
      <point x="228" y="563"/>
      <point x="209" y="561"/>
      <point x="190" y="561" type="curve" smooth="yes"/>
      <point x="173" y="561" type="line"/>
      <point x="174" y="589" type="line"/>
      <point x="190" y="589" type="line" smooth="yes"/>
      <point x="209" y="589"/>
      <point x="242" y="590"/>
      <point x="259" y="605" type="curve" smooth="yes"/>
      <point x="263" y="609"/>
      <point x="268" y="612"/>
      <point x="274" y="612" type="curve" smooth="yes"/>
      <point x="292" y="612"/>
      <point x="286" y="594"/>
    </contour>
  </outline>
</glyph>
<glyph name="threequarters" format="1">
  <advance width="600"/>
  <unicode hex="00BE"/>
  <outline>
    <contour>
      <point x="568" y="629" type="line"/>
      <point x="591" y="613" type="line"/>
      <point x="180" y="-27" type="line"/>
      <point x="157" y="-11" type="line"/>
    </contour>
    <contour>
      <point x="538" y="227" type="line"/>
      <point x="573" y="227" type="line"/>
      <point x="549" y="113" type="line"/>
      <point x="595" y="113" type="line"/>
      <point x="589" y="85" type="line"/>
      <point x="543" y="85" type="line"/>
      <point x="531" y="28" type="line"/>
      <point x="577" y="28" type="line"/>
      <point x="571" y="0" type="line"/>
      <point x="436" y="0" type="line"/>
      <point x="442" y="28" type="line"/>
      <point x="496" y="28" type="line"/>
      <point x="508" y="85" type="line"/>
      <point x="347" y="85" type="line"/>
      <point x="353" y="113" type="line"/>
      <point x="414" y="187"/>
      <point x="473" y="264"/>
      <point x="513" y="349" type="curve"/>
      <point x="544" y="340" type="line"/>
      <point x="505" y="258"/>
      <point x="446" y="184"/>
      <point x="386" y="113" type="curve"/>
      <point x="514" y="113" type="line"/>
    </contour>
    <contour>
      <point x="92" y="301" type="curve"/>
      <point x="110" y="326" type="line"/>
      <point x="132" y="312"/>
      <point x="163" y="304"/>
      <point x="192" y="304" type="curve" smooth="yes"/>
      <point x="237" y="304"/>
      <point x="277" y="325"/>
      <point x="287" y="374" type="curve" smooth="yes"/>
      <point x="297" y="419"/>
      <point x="275" y="444"/>
      <point x="231" y="444" type="curve" smooth="yes"/>
      <point x="204" y="444" type="line"/>
      <point x="210" y="472" type="line"/>
      <point x="229" y="472" type="line" smooth="yes"/>
      <point x="262" y="472"/>
      <point x="295" y="483"/>
      <point x="303" y="521" type="curve" smooth="yes"/>
      <point x="311" y="558"/>
      <point x="295" y="584"/>
      <point x="258" y="584" type="curve" smooth="yes"/>
      <point x="244" y="584"/>
      <point x="229" y="579"/>
      <point x="216" y="571" type="curve"/>
      <point x="212" y="553"/>
      <point x="195" y="531"/>
      <point x="176" y="531" type="curve" smooth="yes"/>
      <point x="166" y="531"/>
      <point x="162" y="539"/>
      <point x="163" y="548" type="curve"/>
      <point x="168" y="567"/>
      <point x="203" y="612"/>
      <point x="271" y="612" type="curve" smooth="yes"/>
      <point x="321" y="612"/>
      <point x="349" y="573"/>
      <point x="338" y="524" type="curve" smooth="yes"/>
      <point x="332" y="493"/>
      <point x="316" y="479"/>
      <point x="290" y="460" type="curve"/>
      <point x="291" y="459" type="line"/>
      <point x="318" y="434"/>
      <point x="332" y="421"/>
      <point x="323" y="375" type="curve"/>
      <point x="308" y="308"/>
      <point x="248" y="276"/>
      <point x="186" y="276" type="curve" smooth="yes"/>
      <point x="153" y="276"/>
      <point x="116" y="283"/>
    </contour>
  </outline>
</glyph>
<glyph name="questiondown" format="1">
  <advance width="600"/>
  <unicode hex="00BF"/>
  <outline>
    <contour>
      <point x="365" y="249" type="curve"/>
      <point x="402" y="249" type="line"/>
      <point x="398" y="230" type="line" smooth="yes"/>
      <point x="366" y="81"/>
      <point x="227" y="44"/>
      <point x="205" y="-61" type="curve" smooth="yes"/>
      <point x="193" y="-119"/>
      <point x="222" y="-168"/>
      <point x="281" y="-168" type="curve" smooth="yes"/>
      <point x="337" y="-168"/>
      <point x="394" y="-133"/>
      <point x="413" y="-76" type="curve"/>
      <point x="411" y="-66"/>
      <point x="411" y="-56"/>
      <point x="413" y="-45" type="curve" smooth="yes"/>
      <point x="416" y="-31"/>
      <point x="427" y="-12"/>
      <point x="443" y="-12" type="curve" smooth="yes"/>
      <point x="468" y="-12"/>
      <point x="464" y="-40"/>
      <point x="460" y="-59" type="curve" smooth="yes"/>
      <point x="444" y="-136"/>
      <point x="366" y="-204"/>
      <point x="274" y="-204" type="curve" smooth="yes"/>
      <point x="199" y="-204"/>
      <point x="145" y="-146"/>
      <point x="161" y="-69" type="curve" smooth="yes"/>
      <point x="176" y="-1"/>
      <point x="220" y="41"/>
      <point x="272" y="90" type="curve" smooth="yes"/>
      <point x="332" y="145"/>
      <point x="351" y="174"/>
    </contour>
    <contour>
      <point x="462" y="366" type="curve" smooth="yes"/>
      <point x="456" y="337"/>
      <point x="427" y="313"/>
      <point x="398" y="313" type="curve" smooth="yes"/>
      <point x="368" y="313"/>
      <point x="349" y="337"/>
      <point x="355" y="366" type="curve" smooth="yes"/>
      <point x="361" y="396"/>
      <point x="390" y="420"/>
      <point x="420" y="420" type="curve" smooth="yes"/>
      <point x="449" y="420"/>
      <point x="468" y="396"/>
    </contour>
  </outline>
</glyph>
<glyph name="Agrave" format="1">
  <advance width="600"/>
  <unicode hex="00C0"/>
  <outline>
    <contour>
      <point x="437" y="663" type="line"/>
      <point x="535" y="36" type="line"/>
      <point x="583" y="36" type="line"/>
      <point x="575" y="0" type="line"/>
      <point x="392" y="0" type="line"/>
      <point x="400" y="36" type="line"/>
      <point x="493" y="36" type="line"/>
      <point x="469" y="192" type="line"/>
      <point x="208" y="192" type="line"/>
      <point x="121" y="36" type="line"/>
      <point x="214" y="36" type="line"/>
      <point x="206" y="0" type="line"/>
      <point x="25" y="0" type="line"/>
      <point x="33" y="36" type="line"/>
      <point x="81" y="36" type="line"/>
    </contour>
    <contour>
      <point x="464" y="228" type="line"/>
      <point x="414" y="560" type="line"/>
      <point x="228" y="228" type="line"/>
    </contour>
    <contour>
      <point x="330" y="837" type="line"/>
      <point x="474" y="695" type="line"/>
      <point x="445" y="665" type="line"/>
      <point x="284" y="792" type="line"/>
    </contour>
  </outline>
</glyph>
<glyph name="Acircumflex" format="1">
  <advance width="600"/>
  <unicode hex="00C2"/>
  <outline>
    <contour>
      <point x="437" y="663" type="line"/>
      <point x="535" y="36" type="line"/>
      <point x="583" y="36" type="line"/>
      <point x="575" y="0" type="line"/>
      <point x="392" y="0" type="line"/>
      <point x="400" y="36" type="line"/>
      <point x="493" y="36" type="line"/>
      <point x="469" y="192" type="line"/>
      <point x="208" y="192" type="line"/>
      <point x="121" y="36" type="line"/>
      <point x="214" y="36" type="line"/>
      <point x="206" y="0" type="line"/>
      <point x="25" y="0" type="line"/>
      <point x="33" y="36" type="line"/>
      <point x="81" y="36" type="line"/>
    </contour>
    <contour>
      <point x="464" y="228" type="line"/>
      <point x="414" y="560" type="line"/>
      <point x="228" y="228" type="line"/>
    </contour>
    <contour>
      <point x="422" y="765" type="line"/>
      <point x="259" y="667" type="line"/>
      <point x="241" y="690" type="line"/>
      <point x="437" y="835" type="line"/>
      <point x="571" y="690" type="line"/>
      <point x="543" y="667" type="line"/>
    </contour>
  </outline>
</glyph>
<glyph name="Adieresis" format="1">
  <advance width="600"/>
  <unicode hex="00C4"/>
  <outline>
    <contour>
      <point x="437" y="663" type="line"/>
      <point x="535" y="36" type="line"/>
      <point x="583" y="36" type="line"/>
      <point x="575" y="0" type="line"/>
      <point x="392" y="0" type="line"/>
      <point x="400" y="36" type="line"/>
      <point x="493" y="36" type="line"/>
      <point x="469" y="192" type="line"/>
      <point x="208" y="192" type="line"/>
      <point x="121" y="36" type="line"/>
      <point x="214" y="36" type="line"/>
      <point x="206" y="0" type="line"/>
      <point x="25" y="0" type="line"/>
      <point x="33" y="36" type="line"/>
      <point x="81" y="36" type="line"/>
    </contour>
    <contour>
      <point x="464" y="228" type="line"/>
      <point x="414" y="560" type="line"/>
      <point x="228" y="228" type="line"/>
    </contour>
    <contour>
      <point x="262" y="751" type="curve" smooth="yes"/>
      <point x="268" y="778"/>
      <point x="294" y="800"/>
      <point x="321" y="800" type="curve" smooth="yes"/>
      <point x="348" y="800"/>
      <point x="366" y="778"/>
      <point x="360" y="751" type="curve" smooth="yes"/>
      <point x="354" y="724"/>
      <point x="327" y="702"/>
      <point x="300" y="702" type="curve" smooth="yes"/>
      <point x="273" y="702"/>
      <point x="256" y="724"/>
    </contour>
    <contour>
      <point x="478" y="751" type="curve" smooth="yes"/>
      <point x="484" y="778"/>
      <point x="510" y="800"/>
      <point x="537" y="800" type="curve" smooth="yes"/>
      <point x="564" y="800"/>
      <point x="582" y="778"/>
      <point x="576" y="751" type="curve" smooth="yes"/>
      <point x="570" y="724"/>
      <point x="543" y="702"/>
      <point x="516" y="702" type="curve" smooth="yes"/>
      <point x="489" y="702"/>
      <point x="472" y="724"/>
    </contour>
  </outline>
</glyph>
<glyph name="Aring" format="1">
  <advance width="600"/>
  <unicode hex="00C5"/>
  <outline>
    <contour>
      <point x="437" y="663" type="line"/>
      <point x="535" y="36" type="line"/>
      <point x="583" y="36" type="line"/>
      <point x="575" y="0" type="line"/>
      <point x="392" y="0" type="line"/>
      <point x="400" y="36" type="line"/>
      <point x="493" y="36" type="line"/>
      <point x="469" y="192" type="line"/>
      <point x="208" y="192" type="line"/>
      <point x="121" y="36" type="line"/>
      <point x="214" y="36" type="line"/>
      <point x="206" y="0" type="line"/>
      <point x="25" y="0" type="line"/>
      <point x="33" y="36" type="line"/>
      <point x="81" y="36" type="line"/>
    </contour>
    <contour>
      <point x="464" y="228" type="line"/>
      <point x="414" y="560" type="line"/>
      <point x="228" y="228" type="line"/>
    </contour>
    <contour>
      <point x="337" y="754" type="curve" smooth="yes"/>
      <point x="347" y="799"/>
      <point x="392" y="836"/>
      <point x="437" y="836" type="curve" smooth="yes"/>
      <point x="482" y="836"/>
      <point x="511" y="799"/>
      <point x="501" y="754" type="curve" smooth="yes"/>
      <point x="492" y="709"/>
      <point x="447" y="672"/>
      <point x="402" y="672" type="curve" smooth="yes"/>
      <point x="357" y="672"/>
      <point x="328" y="709"/>
    </contour>
    <contour>
      <point x="379" y="754" type="curve" smooth="yes"/>
      <point x="375" y="732"/>
      <point x="386" y="708"/>
      <point x="410" y="708" type="curve" smooth="yes"/>
      <point x="434" y="708"/>
      <point x="455" y="732"/>
      <point x="459" y="754" type="curve" smooth="yes"/>
      <point x="464" y="777"/>
      <point x="453" y="800"/>
      <point x="429" y="800" type="curve" smooth="yes"/>
      <point x="405" y="800"/>
      <point x="384" y="777"/>
    </contour>
  </outline>
</glyph>
<glyph name="AE" format="1">
  <advance width="600"/>
  <unicode hex="00C6"/>
  <outline>
    <contour>
      <point x="693" y="600" type="line"/>
      <point x="660" y="449" type="line"/>
      <point x="621" y="449" type="line"/>
      <point x="626" y="470" type="line"/>
      <point x="640" y="538"/>
      <point x="624" y="564"/>
      <point x="560" y="564" type="curve" smooth="yes"/>
      <point x="471" y="564" type="line"/>
      <point x="424" y="345" type="line"/>
      <point x="514" y="345" type="line"/>
      <point x="529" y="414" type="line"/>
      <point x="568" y="414" type="line"/>
      <point x="531" y="242" type="line"/>
      <point x="492" y="242" type="line"/>
      <point x="507" y="309" type="line"/>
      <point x="417" y="309" type="line"/>
      <point x="359" y="36" type="line"/>
      <point x="436" y="36" type="line" smooth="yes"/>
      <point x="521" y="36"/>
      <point x="535" y="43"/>
      <point x="556" y="142" type="curve"/>
      <point x="564" y="177" type="line"/>
      <point x="603" y="177" type="line"/>
      <point x="565" y="0" type="line"/>
      <point x="265" y="0" type="line"/>
      <point x="273" y="36" type="line"/>
      <point x="320" y="36" type="line"/>
      <point x="353" y="193" type="line"/>
      <point x="184" y="193" type="line"/>
      <point x="98" y="36" type="line"/>
      <point x="186" y="36" type="line"/>
      <point x="178" y="0" type="line"/>
      <point x="23" y="0" type="line"/>
      <point x="31" y="36" type="line"/>
      <point x="60" y="36" type="line"/>
      <point x="372" y="600" type="line"/>
    </contour>
    <contour>
      <point x="361" y="229" type="line"/>
      <point x="432" y="564" type="line"/>
      <point x="389" y="564" type="line"/>
      <point x="205" y="229" type="line"/>
    </contour>
  </outline>
</glyph>
<glyph name="Ccedilla" format="1">
  <advance width="600"/>
  <unicode hex="00C7"/>
  <outline>
    <contour>
      <point x="596" y="571" type="curve"/>
      <point x="616" y="609" type="line"/>
      <point x="649" y="597" type="line"/>
      <point x="630" y="565"/>
      <point x="621" y="530"/>
      <point x="613" y="496" type="curve"/>
      <point x="602" y="426" type="line"/>
      <point x="564" y="420" type="line"/>
      <point x="581" y="517"/>
      <point x="557" y="576"/>
      <point x="452" y="576" type="curve" smooth="yes"/>
      <point x="303" y="576"/>
      <point x="219" y="427"/>
      <point x="192" y="302" type="curve" smooth="yes"/>
      <point x="166" y="179"/>
      <point x="188" y="24"/>
      <point x="334" y="24" type="curve" smooth="yes"/>
      <point x="438" y="24"/>
      <point x="503" y="92"/>
      <point x="524" y="192" type="curve"/>
      <point x="563" y="192" type="line"/>
      <point x="538" y="75" type="line"/>
      <point x="474" y="22"/>
      <point x="398" y="-12"/>
      <point x="323" y="-12" type="curve" smooth="yes"/>
      <point x="218" y="-12"/>
      <point x="101" y="71"/>
      <point x="151" y="306" type="curve" smooth="yes"/>
      <point x="200" y="537"/>
      <point x="352" y="612"/>
      <point x="458" y="612" type="curve" smooth="yes"/>
      <point x="509" y="612"/>
      <point x="558" y="597"/>
    </contour>
    <contour>
      <point x="282" y="9" type="line"/>
      <point x="319" y="9" type="line"/>
      <point x="288" y="-68" type="line"/>
      <point x="307" y="-68" type="line" smooth="yes"/>
      <point x="356" y="-68"/>
      <point x="396" y="-93"/>
      <point x="385" y="-147" type="curve" smooth="yes"/>
      <point x="371" y="-211"/>
      <point x="303" y="-235"/>
      <point x="248" y="-235" type="curve" smooth="yes"/>
      <point x="214" y="-235"/>
      <point x="175" y="-227"/>
      <point x="149" y="-210" type="curve"/>
      <point x="157" y="-173" type="line"/>
      <point x="185" y="-188"/>
      <point x="218" y="-199"/>
      <point x="252" y="-199" type="curve" smooth="yes"/>
      <point x="285" y="-199"/>
      <point x="334" y="-186"/>
      <point x="343" y="-146" type="curve" smooth="yes"/>
      <point x="350" y="-111"/>
      <point x="307" y="-105"/>
      <point x="281" y="-105" type="curve"/>
      <point x="232" y="-108" type="line"/>
    </contour>
  </outline>
</glyph>
<glyph name="Edieresis" format="1">
  <advance width="600"/>
  <unicode hex="00CB"/>
  <outline>
    <contour>
      <point x="527" y="0" type="line"/>
      <point x="47" y="0" type="line"/>
      <point x="55" y="36" type="line"/>
      <point x="158" y="36" type="line"/>
      <point x="270" y="564" type="line"/>
      <point x="167" y="564" type="line"/>
      <point x="175" y="600" type="line"/>
      <point x="637" y="600" type="line"/>
      <point x="603" y="442" type="line"/>
      <point x="564" y="442" type="line"/>
      <point x="567" y="457" type="line" smooth="yes"/>
      <point x="586" y="548"/>
      <point x="582" y="564"/>
      <point x="493" y="564" type="curve" smooth="yes"/>
      <point x="309" y="564" type="line"/>
      <point x="263" y="346" type="line"/>
      <point x="427" y="346" type="line"/>
      <point x="445" y="433" type="line"/>
      <point x="484" y="433" type="line"/>
      <point x="437" y="212" type="line"/>
      <point x="398" y="212" type="line"/>
      <point x="419" y="310" type="line"/>
      <point x="255" y="310" type="line"/>
      <point x="197" y="36" type="line"/>
      <point x="377" y="36" type="line" smooth="yes"/>
      <point x="492" y="36"/>
      <point x="500" y="58"/>
      <point x="521" y="157" type="curve" smooth="yes"/>
      <point x="526" y="180" type="line"/>
      <point x="565" y="180" type="line"/>
    </contour>
    <contour>
      <point x="262" y="751" type="curve" smooth="yes"/>
      <point x="268" y="778"/>
      <point x="294" y="800"/>
      <point x="321" y="800" type="curve" smooth="yes"/>
      <point x="348" y="800"/>
      <point x="366" y="778"/>
      <point x="360" y="751" type="curve" smooth="yes"/>
      <point x="354" y="724"/>
      <point x="327" y="702"/>
      <point x="300" y="702" type="curve" smooth="yes"/>
      <point x="273" y="702"/>
      <point x="256" y="724"/>
    </contour>
    <contour>
      <point x="478" y="751" type="curve" smooth="yes"/>
      <point x="484" y="778"/>
      <point x="510" y="800"/>
      <point x="537" y="800" type="curve" smooth="yes"/>
      <point x="564" y="800"/>
      <point x="582" y="778"/>
      <point x="576" y="751" type="curve" smooth="yes"/>
      <point x="570" y="724"/>
      <point x="543" y="702"/>
      <point x="516" y="702" type="curve" smooth="yes"/>
      <point x="489" y="702"/>
      <point x="472" y="724"/>
    </contour>
  </outline>
</glyph>
<glyph name="Iacute" format="1">
  <advance width="600"/>
  <unicode hex="00CD"/>
  <outline>
    <contour>
      <point x="245" y="600" type="line"/>
      <point x="611" y="600" type="line"/>
      <point x="603" y="564" type="line"/>
      <point x="440" y="564" type="line"/>
      <point x="328" y="36" type="line"/>
      <point x="491" y="36" type="line"/>
      <point x="483" y="0" type="line"/>
      <point x="117" y="0" type="line"/>
      <point x="125" y="36" type="line"/>
      <point x="289" y="36" type="line"/>
      <point x="401" y="564" type="line"/>
      <point x="237" y="564" type="line"/>
    </contour>
    <contour>
      <point x="544" y="837" type="line"/>
      <point x="572" y="792" type="line"/>
      <point x="357" y="665" type="line"/>
      <point x="340" y="695" type="line"/>
    </contour>
  </outline>
</glyph>
<glyph name="Icircumflex" format="1">
  <advance width="600"/>
  <unicode hex="00CE"/>
  <outline>
    <contour>
      <point x="245" y="600" type="line"/>
      <point x="611" y="600" type="line"/>
      <point x="603" y="564" type="line"/>
      <point x="440" y="564" type="line"/>
      <point x="328" y="36" type="line"/>
      <point x="491" y="36" type="line"/>
      <point x="483" y="0" type="line"/>
      <point x="117" y="0" type="line"/>
      <point x="125" y="36" type="line"/>
      <point x="289" y="36" type="line"/>
      <point x="401" y="564" type="line"/>
      <point x="237" y="564" type="line"/>
    </contour>
    <contour>
      <point x="422" y="765" type="line"/>
      <point x="259" y="667" type="line"/>
      <point x="241" y="690" type="line"/>
      <point x="437" y="835" type="line"/>
      <point x="571" y="690" type="line"/>
      <point x="543" y="667" type="line"/>
    </contour>
  </outline>
</glyph>
<glyph name="Idieresis" format="1">
  <advance width="600"/>
  <unicode hex="00CF"/>
  <outline>
    <contour>
      <point x="245" y="600" type="line"/>
      <point x="611" y="600" type="line"/>
      <point x="603" y="564" type="line"/>
      <point x="440" y="564" type="line"/>
      <point x="328" y="36" type="line"/>
      <point x="491" y="36" type="line"/>
      <point x="483" y="0" type="line"/>
      <point x="117" y="0" type="line"/>
      <point x="125" y="36" type="line"/>
      <point x="289" y="36" type="line"/>
      <point x="401" y="564" type="line"/>
      <point x="237" y="564" type="line"/>
    </contour>
    <contour>
      <point x="262" y="751" type="curve" smooth="yes"/>
      <point x="268" y="778"/>
      <point x="294" y="800"/>
      <point x="321" y="800" type="curve" smooth="yes"/>
      <point x="348" y="800"/>
      <point x="366" y="778"/>
      <point x="360" y="751" type="curve" smooth="yes"/>
      <point x="354" y="724"/>
      <point x="327" y="702"/>
      <point x="300" y="702" type="curve" smooth="yes"/>
      <point x="273" y="702"/>
      <point x="256" y="724"/>
    </contour>
    <contour>
      <point x="478" y="751" type="curve" smooth="yes"/>
      <point x="484" y="778"/>
      <point x="510" y="800"/>
      <point x="537" y="800" type="curve" smooth="yes"/>
      <point x="564" y="800"/>
      <point x="582" y="778"/>
      <point x="576" y="751" type="curve" smooth="yes"/>
      <point x="570" y="724"/>
      <point x="543" y="702"/>
      <point x="516" y="702" type="curve" smooth="yes"/>
      <point x="489" y="702"/>
      <point x="472" y="724"/>
    </contour>
  </outline>
</glyph>
<glyph name="Eth" format="1">
  <advance width="600"/>
  <unicode hex="00D0"/>
  <outline>
    <contour>
      <point x="114" y="292" type="line"/>
      <point x="122" y="328" type="line"/>
      <point x="203" y="328" type="line"/>
      <point x="250" y="552" type="line"/>
      <point x="172" y="564" type="line"/>
      <point x="184" y="600" type="line"/>
      <point x="209" y="596"/>
      <point x="233" y="588"/>
      <point x="267" y="588" type="curve" smooth="yes"/>
      <point x="306" y="588"/>
      <point x="351" y="600"/>
      <point x="401" y="600" type="curve" smooth="yes"/>
      <point x="576" y="600"/>
      <point x="622" y="463"/>
      <point x="585" y="289" type="curve" smooth="yes"/>
      <point x="534" y="49"/>
      <point x="387" y="0"/>
      <point x="280" y="0" type="curve" smooth="yes"/>
      <point x="236" y="0"/>
      <point x="195" y="12"/>
      <point x="151" y="12" type="curve" smooth="yes"/>
      <point x="120" y="12"/>
      <point x="88" y="4"/>
      <point x="56" y="0" type="curve"/>
      <point x="58" y="36" type="line"/>
      <point x="143" y="48" type="line"/>
      <point x="195" y="292" type="line"/>
    </contour>
    <contour>
      <point x="289" y="552" type="line"/>
      <point x="242" y="328" type="line"/>
      <point x="358" y="328" type="line"/>
      <point x="350" y="292" type="line"/>
      <point x="234" y="292" type="line"/>
      <point x="182" y="48" type="line"/>
      <point x="286" y="36" type="line" smooth="yes"/>
      <point x="395" y="23"/>
      <point x="503" y="100"/>
      <point x="540" y="273" type="curve" smooth="yes"/>
      <point x="588" y="500"/>
      <point x="496" y="580"/>
      <point x="377" y="564" type="curve" smooth="yes"/>
    </contour>
  </outline>
</glyph>
<glyph name="Ntilde" format="1">
  <advance width="600"/>
  <unicode hex="00D1"/>
  <outline>
    <contour>
      <point x="623" y="564" type="line"/>
      <point x="503" y="0" type="line"/>
      <point x="457" y="0" type="line"/>
      <point x="264" y="543" type="line"/>
      <point x="262" y="543" type="line"/>
      <point x="155" y="36" type="line"/>
      <point x="249" y="36" type="line"/>
      <point x="241" y="0" type="line"/>
      <point x="32" y="0" type="line"/>
      <point x="40" y="36" type="line"/>
      <point x="116" y="36" type="line"/>
      <point x="228" y="564" type="line"/>
      <point x="152" y="564" type="line"/>
      <point x="160" y="600" type="line"/>
      <point x="287" y="600" type="line"/>
      <point x="476" y="64" type="line"/>
      <point x="478" y="64" type="line"/>
      <point x="584" y="564" type="line"/>
      <point x="487" y="564" type="line"/>
      <point x="495" y="600" type="line"/>
      <point x="695" y="600" type="line"/>
      <point x="687" y="564" type="line"/>
    </contour>
    <contour>
      <point x="298" y="704" type="curve"/>
      <point x="257" y="704" type="line"/>
      <point x="265" y="754"/>
      <point x="298" y="803"/>
      <point x="356" y="803" type="curve" smooth="yes"/>
      <point x="384" y="803"/>
      <point x="407" y="789"/>
      <point x="428" y="775" type="curve" smooth="yes"/>
      <point x="449" y="761"/>
      <point x="468" y="748"/>
      <point x="487" y="748" type="curve" smooth="yes"/>
      <point x="518" y="748"/>
      <point x="533" y="782"/>
      <point x="539" y="807" type="curve"/>
      <point x="582" y="807" type="line"/>
      <point x="573" y="755"/>
      <point x="538" y="706"/>
      <point x="479" y="706" type="curve" smooth="yes"/>
      <point x="452" y="706"/>
      <point x="427" y="723"/>
      <point x="407" y="737" type="curve" smooth="yes"/>
      <point x="392" y="747"/>
      <point x="371" y="761"/>
      <point x="350" y="761" type="curve" smooth="yes"/>
      <point x="318" y="761"/>
      <point x="302" y="730"/>
    </contour>
  </outline>
</glyph>
<glyph name="Ograve" format="1">
  <advance width="600"/>
  <unicode hex="00D2"/>
  <outline>
    <contour>
      <point x="297" y="-12" type="curve" smooth="yes"/>
      <point x="195" y="-12"/>
      <point x="81" y="66"/>
      <point x="131" y="300" type="curve" smooth="yes"/>
      <point x="181" y="534"/>
      <point x="328" y="612"/>
      <point x="430" y="612" type="curve" smooth="yes"/>
      <point x="532" y="612"/>
      <point x="647" y="534"/>
      <point x="597" y="300" type="curve" smooth="yes"/>
      <point x="547" y="66"/>
      <point x="399" y="-12"/>
    </contour>
    <contour>
      <point x="305" y="24" type="curve" smooth="yes"/>
      <point x="396" y="24"/>
      <point x="511" y="96"/>
      <point x="555" y="300" type="curve" smooth="yes"/>
      <point x="598" y="504"/>
      <point x="513" y="576"/>
      <point x="422" y="576" type="curve" smooth="yes"/>
      <point x="331" y="576"/>
      <point x="216" y="504"/>
      <point x="173" y="300" type="curve" smooth="yes"/>
      <point x="129" y="96"/>
      <point x="214" y="24"/>
    </contour>
    <contour>
      <point x="330" y="837" type="line"/>
      <point x="474" y="695" type="line"/>
      <point x="445" y="665" type="line"/>
      <point x="284" y="792" type="line"/>
    </contour>
  </outline>
</glyph>
<glyph name="Ocircumflex" format="1">
  <advance width="600"/>
  <unicode hex="00D4"/>
  <outline>
    <contour>
      <point x="297" y="-12" type="curve" smooth="yes"/>
      <point x="195" y="-12"/>
      <point x="81" y="66"/>
      <point x="131" y="300" type="curve" smooth="yes"/>
      <point x="181" y="534"/>
      <point x="328" y="612"/>
      <point x="430" y="612" type="curve" smooth="yes"/>
      <point x="532" y="612"/>
      <point x="647" y="534"/>
      <point x="597" y="300" type="curve" smooth="yes"/>
      <point x="547" y="66"/>
      <point x="399" y="-12"/>
    </contour>
    <contour>
      <point x="305" y="24" type="curve" smooth="yes"/>
      <point x="396" y="24"/>
      <point x="511" y="96"/>
      <point x="555" y="300" type="curve" smooth="yes"/>
      <point x="598" y="504"/>
      <point x="513" y="576"/>
      <point x="422" y="576" type="curve" smooth="yes"/>
      <point x="331" y="576"/>
      <point x="216" y="504"/>
      <point x="173" y="300" type="curve" smooth="yes"/>
      <point x="129" y="96"/>
      <point x="214" y="24"/>
    </contour>
    <contour>
      <point x="422" y="765" type="line"/>
      <point x="259" y="667" type="line"/>
      <point x="241" y="690" type="line"/>
      <point x="437" y="835" type="line"/>
      <point x="571" y="690" type="line"/>
      <point x="543" y="667" type="line"/>
    </contour>
  </outline>
</glyph>
<glyph name="Otilde" format="1">
  <advance width="600"/>
  <unicode hex="00D5"/>
  <outline>
    <contour>
      <point x="297" y="-12" type="curve" smooth="yes"/>
      <point x="195" y="-12"/>
      <point x="81" y="66"/>
      <point x="131" y="300" type="curve" smooth="yes"/>
      <point x="181" y="534"/>
      <point x="328" y="612"/>
      <point x="430" y="612" type="curve" smooth="yes"/>
      <point x="532" y="612"/>
      <point x="647" y="534"/>
      <point x="597" y="300" type="curve" smooth="yes"/>
      <point x="547" y="66"/>
      <point x="399" y="-12"/>
    </contour>
    <contour>
      <point x="305" y="24" type="curve" smooth="yes"/>
      <point x="396" y="24"/>
      <point x="511" y="96"/>
      <point x="555" y="300" type="curve" smooth="yes"/>
      <point x="598" y="504"/>
      <point x="513" y="576"/>
      <point x="422" y="576" type="curve" smooth="yes"/>
      <point x="331" y="576"/>
      <point x="216" y="504"/>
      <point x="173" y="300" type="curve" smooth="yes"/>
      <point x="129" y="96"/>
      <point x="214" y="24"/>
    </contour>
    <contour>
      <point x="298" y="704" type="curve"/>
      <point x="257" y="704" type="line"/>
      <point x="265" y="754"/>
      <point x="298" y="803"/>
      <point x="356" y="803" type="curve" smooth="yes"/>
      <point x="384" y="803"/>
      <point x="407" y="789"/>
      <point x="428" y="775" type="curve" smooth="yes"/>
      <point x="449" y="761"/>
      <point x="468" y="748"/>
      <point x="487" y="748" type="curve" smooth="yes"/>
      <point x="518" y="748"/>
      <point x="533" y="782"/>
      <point x="539" y="807" type="curve"/>
      <point x="582" y="807" type="line"/>
      <point x="573" y="755"/>
      <point x="538" y="706"/>
      <point x="479" y="706" type="curve" smooth="yes"/>
      <point x="452" y="706"/>
      <point x="427" y="723"/>
      <point x="407" y="737" type="curve" smooth="yes"/>
      <point x="392" y="747"/>
      <point x="371" y="761"/>
      <point x="350" y="761" type="curve" smooth="yes"/>
      <point x="318" y="761"/>
      <point x="302" y="730"/>
    </contour>
  </outline>
</glyph>
<glyph name="Odieresis" format="1">
  <advance width="600"/>
  <unicode hex="00D6"/>
  <outline>
    <contour>
      <point x="297" y="-12" type="curve" smooth="yes"/>
      <point x="195" y="-12"/>
      <point x="81" y="66"/>
      <point x="131" y="300" type="curve" smooth="yes"/>
      <point x="181" y="534"/>
      <point x="328" y="612"/>
      <point x="430" y="612" type="curve" smooth="yes"/>
      <point x="532" y="612"/>
      <point x="647" y="534"/>
      <point x="597" y="300" type="curve" smooth="yes"/>
      <point x="547" y="66"/>
      <point x="399" y="-12"/>
    </contour>
    <contour>
      <point x="305" y="24" type="curve" smooth="yes"/>
      <point x="396" y="24"/>
      <point x="511" y="96"/>
      <point x="555" y="300" type="curve" smooth="yes"/>
      <point x="598" y="504"/>
      <point x="513" y="576"/>
      <point x="422" y="576" type="curve" smooth="yes"/>
      <point x="331" y="576"/>
      <point x="216" y="504"/>
      <point x="173" y="300" type="curve" smooth="yes"/>
      <point x="129" y="96"/>
      <point x="214" y="24"/>
    </contour>
    <contour>
      <point x="262" y="751" type="curve" smooth="yes"/>
      <point x="268" y="778"/>
      <point x="294" y="800"/>
      <point x="321" y="800" type="curve" smooth="yes"/>
      <point x="348" y="800"/>
      <point x="366" y="778"/>
      <point x="360" y="751" type="curve" smooth="yes"/>
      <point x="354" y="724"/>
      <point x="327" y="702"/>
      <point x="300" y="702" type="curve" smooth="yes"/>
      <point x="273" y="702"/>
      <point x="256" y="724"/>
    </contour>
    <contour>
      <point x="478" y="751" type="curve" smooth="yes"/>
      <point x="484" y="778"/>
      <point x="510" y="800"/>
      <point x="537" y="800" type="curve" smooth="yes"/>
      <point x="564" y="800"/>
      <point x="582" y="778"/>
      <point x="576" y="751" type="curve" smooth="yes"/>
      <point x="570" y="724"/>
      <point x="543" y="702"/>
      <point x="516" y="702" type="curve" smooth="yes"/>
      <point x="489" y="702"/>
      <point x="472" y="724"/>
    </contour>
  </outline>
</glyph>
<glyph name="Oslash" format="1">
  <advance width="600"/>
  <unicode hex="00D8"/>
  <outline>
    <contour>
      <point x="170" y="42" type="curve"/>
      <point x="117" y="-21" type="line"/>
      <point x="90" y="-1" type="line"/>
      <point x="149" y="70" type="line"/>
      <point x="113" y="130"/>
      <point x="115" y="224"/>
      <point x="131" y="300" type="curve" smooth="yes"/>
      <point x="181" y="534"/>
      <point x="328" y="612"/>
      <point x="430" y="612" type="curve" smooth="yes"/>
      <point x="483" y="612"/>
      <point x="524" y="594"/>
      <point x="558" y="558" type="curve"/>
      <point x="606" y="616" type="line"/>
      <point x="634" y="596" type="line"/>
      <point x="579" y="530" type="line"/>
      <point x="615" y="470"/>
      <point x="613" y="377"/>
      <point x="597" y="300" type="curve" smooth="yes"/>
      <point x="547" y="66"/>
      <point x="399" y="-12"/>
      <point x="297" y="-12" type="curve" smooth="yes"/>
      <point x="244" y="-12"/>
      <point x="200" y="6"/>
    </contour>
    <contour>
      <point x="548" y="494" type="curve"/>
      <point x="197" y="75" type="line"/>
      <point x="222" y="42"/>
      <point x="259" y="24"/>
      <point x="305" y="24" type="curve" smooth="yes"/>
      <point x="396" y="24"/>
      <point x="511" y="96"/>
      <point x="555" y="300" type="curve" smooth="yes"/>
      <point x="568" y="362"/>
      <point x="572" y="442"/>
    </contour>
    <contour>
      <point x="180" y="106" type="curve"/>
      <point x="530" y="525" type="line"/>
      <point x="507" y="558"/>
      <point x="467" y="576"/>
      <point x="422" y="576" type="curve" smooth="yes"/>
      <point x="331" y="576"/>
      <point x="216" y="504"/>
      <point x="173" y="300" type="curve" smooth="yes"/>
      <point x="160" y="238"/>
      <point x="156" y="158"/>
    </contour>
  </outline>
</glyph>
<glyph name="Uacute" format="1">
  <advance width="600"/>
  <unicode hex="00DA"/>
  <outline>
    <contour>
      <point x="494" y="600" type="line"/>
      <point x="678" y="600" type="line"/>
      <point x="670" y="564" type="line"/>
      <point x="600" y="564" type="line"/>
      <point x="517" y="172" type="line" smooth="yes"/>
      <point x="488" y="39"/>
      <point x="417" y="-12"/>
      <point x="297" y="-12" type="curve" smooth="yes"/>
      <point x="177" y="-12"/>
      <point x="128" y="39"/>
      <point x="157" y="172" type="curve" smooth="yes"/>
      <point x="240" y="564" type="line"/>
      <point x="170" y="564" type="line"/>
      <point x="178" y="600" type="line"/>
      <point x="362" y="600" type="line"/>
      <point x="354" y="564" type="line"/>
      <point x="279" y="564" type="line"/>
      <point x="198" y="184" type="line" smooth="yes"/>
      <point x="173" y="67"/>
      <point x="208" y="24"/>
      <point x="305" y="24" type="curve" smooth="yes"/>
      <point x="402" y="24"/>
      <point x="455" y="67"/>
      <point x="480" y="184" type="curve" smooth="yes"/>
      <point x="561" y="564" type="line"/>
      <point x="486" y="564" type="line"/>
    </contour>
    <contour>
      <point x="544" y="837" type="line"/>
      <point x="572" y="792" type="line"/>
      <point x="357" y="665" type="line"/>
      <point x="340" y="695" type="line"/>
    </contour>
  </outline>
</glyph>
<glyph name="Ucircumflex" format="1">
  <advance width="600"/>
  <unicode hex="00DB"/>
  <outline>
    <contour>
      <point x="494" y="600" type="line"/>
      <point x="678" y="600" type="line"/>
      <point x="670" y="564" type="line"/>
      <point x="600" y="564" type="line"/>
      <point x="517" y="172" type="line" smooth="yes"/>
      <point x="488" y="39"/>
      <point x="417" y="-12"/>
      <point x="297" y="-12" type="curve" smooth="yes"/>
      <point x="177" y="-12"/>
      <point x="128" y="39"/>
      <point x="157" y="172" type="curve" smooth="yes"/>
      <point x="240" y="564" type="line"/>
      <point x="170" y="564" type="line"/>
      <point x="178" y="600" type="line"/>
      <point x="362" y="600" type="line"/>
      <point x="354" y="564" type="line"/>
      <point x="279" y="564" type="line"/>
      <point x="198" y="184" type="line" smooth="yes"/>
      <point x="173" y="67"/>
      <point x="208" y="24"/>
      <point x="305" y="24" type="curve" smooth="yes"/>
      <point x="402" y="24"/>
      <point x="455" y="67"/>
      <point x="480" y="184" type="curve" smooth="yes"/>
      <point x="561" y="564" type="line"/>
      <point x="486" y="564" type="line"/>
    </contour>
    <contour>
      <point x="422" y="765" type="line"/>
      <point x="259" y="667" type="line"/>
      <point x="241" y="690" type="line"/>
      <point x="437" y="835" type="line"/>
      <point x="571" y="690" type="line"/>
      <point x="543" y="667" type="line"/>
    </contour>
  </outline>
</glyph>
<glyph name="Udieresis" format="1">
  <advance width="600"/>
  <unicode hex="00DC"/>
  <outline>
    <contour>
      <point x="494" y="600" type="line"/>
      <point x="678" y="600" type="line"/>
      <point x="670" y="564" type="line"/>
      <point x="600" y="564" type="line"/>
      <point x="517" y="172" type="line" smooth="yes"/>
      <point x="488" y="39"/>
      <point x="417" y="-12"/>
      <point x="297" y="-12" type="curve" smooth="yes"/>
      <point x="177" y="-12"/>
      <point x="128" y="39"/>
      <point x="157" y="172" type="curve" smooth="yes"/>
      <point x="240" y="564" type="line"/>
      <point x="170" y="564" type="line"/>
      <point x="178" y="600" type="line"/>
      <point x="362" y="600" type="line"/>
      <point x="354" y="564" type="line"/>
      <point x="279" y="564" type="line"/>
      <point x="198" y="184" type="line" smooth="yes"/>
      <point x="173" y="67"/>
      <point x="208" y="24"/>
      <point x="305" y="24" type="curve" smooth="yes"/>
      <point x="402" y="24"/>
      <point x="455" y="67"/>
      <point x="480" y="184" type="curve" smooth="yes"/>
      <point x="561" y="564" type="line"/>
      <point x="486" y="564" type="line"/>
    </contour>
    <contour>
      <point x="262" y="751" type="curve" smooth="yes"/>
      <point x="268" y="778"/>
      <point x="294" y="800"/>
      <point x="321" y="800" type="curve" smooth="yes"/>
      <point x="348" y="800"/>
      <point x="366" y="778"/>
      <point x="360" y="751" type="curve" smooth="yes"/>
      <point x="354" y="724"/>
      <point x="327" y="702"/>
      <point x="300" y="702" type="curve" smooth="yes"/>
      <point x="273" y="702"/>
      <point x="256" y="724"/>
    </contour>
    <contour>
      <point x="478" y="751" type="curve" smooth="yes"/>
      <point x="484" y="778"/>
      <point x="510" y="800"/>
      <point x="537" y="800" type="curve" smooth="yes"/>
      <point x="564" y="800"/>
      <point x="582" y="778"/>
      <point x="576" y="751" type="curve" smooth="yes"/>
      <point x="570" y="724"/>
      <point x="543" y="702"/>
      <point x="516" y="702" type="curve" smooth="yes"/>
      <point x="489" y="702"/>
      <point x="472" y="724"/>
    </contour>
  </outline>
</glyph>
<glyph name="Thorn" format="1">
  <advance width="600"/>
  <unicode hex="00DE"/>
  <outline>
    <contour>
      <point x="191" y="36" type="line"/>
      <point x="303" y="564" type="line"/>
      <point x="218" y="564" type="line"/>
      <point x="226" y="600" type="line"/>
      <point x="440" y="600" type="line"/>
      <point x="432" y="564" type="line"/>
      <point x="342" y="564" type="line"/>
      <point x="328" y="500" type="line"/>
      <point x="460" y="500" type="line" smooth="yes"/>
      <point x="544" y="500"/>
      <point x="600" y="459"/>
      <point x="580" y="365" type="curve" smooth="yes"/>
      <point x="557" y="261"/>
      <point x="466" y="214"/>
      <point x="357" y="214" type="curve" smooth="yes"/>
      <point x="267" y="214" type="line"/>
      <point x="230" y="36" type="line"/>
      <point x="320" y="36" type="line"/>
      <point x="312" y="0" type="line"/>
      <point x="98" y="0" type="line"/>
      <point x="106" y="36" type="line"/>
    </contour>
    <contour>
      <point x="321" y="464" type="line"/>
      <point x="275" y="250" type="line"/>
      <point x="387" y="250" type="line" smooth="yes"/>
      <point x="454" y="250"/>
      <point x="523" y="295"/>
      <point x="538" y="365" type="curve" smooth="yes"/>
      <point x="549" y="418"/>
      <point x="520" y="464"/>
      <point x="473" y="464" type="curve" smooth="yes"/>
    </contour>
  </outline>
</glyph>
<glyph name="germandbls" format="1">
  <advance width="600"/>
  <unicode hex="00DF"/>
  <outline>
    <contour>
      <point x="352" y="302" type="curve"/>
      <point x="361" y="342" type="line"/>
      <point x="437" y="345"/>
      <point x="511" y="361"/>
      <point x="530" y="453" type="curve" smooth="yes"/>
      <point x="547" y="533"/>
      <point x="505" y="576"/>
      <point x="428" y="576" type="curve" smooth="yes"/>
      <point x="300" y="576"/>
      <point x="282" y="462"/>
      <point x="262" y="367" type="curve" smooth="yes"/>
      <point x="184" y="0" type="line"/>
      <point x="65" y="0" type="line"/>
      <point x="73" y="36" type="line"/>
      <point x="153" y="36" type="line"/>
      <point x="235" y="422" type="line" smooth="yes"/>
      <point x="265" y="563"/>
      <point x="350" y="612"/>
      <point x="431" y="612" type="curve" smooth="yes"/>
      <point x="528" y="612"/>
      <point x="595" y="558"/>
      <point x="574" y="461" type="curve" smooth="yes"/>
      <point x="559" y="390"/>
      <point x="516" y="337"/>
      <point x="441" y="325" type="curve"/>
      <point x="441" y="323" type="line"/>
      <point x="527" y="320"/>
      <point x="565" y="243"/>
      <point x="547" y="159" type="curve" smooth="yes"/>
      <point x="527" y="67"/>
      <point x="454" y="-12"/>
      <point x="356" y="-12" type="curve" smooth="yes"/>
      <point x="277" y="-12"/>
      <point x="249" y="40"/>
      <point x="265" y="116" type="curve"/>
      <point x="267" y="129" type="line"/>
      <point x="303" y="129" type="line"/>
      <point x="289" y="71"/>
      <point x="302" y="24"/>
      <point x="366" y="24" type="curve" smooth="yes"/>
      <point x="437" y="24"/>
      <point x="490" y="89"/>
      <point x="504" y="154" type="curve" smooth="yes"/>
      <point x="528" y="269"/>
      <point x="452" y="300"/>
    </contour>
  </outline>
</glyph>
<glyph name="acircumflex" format="1">
  <advance width="600"/>
  <unicode hex="00E2"/>
  <outline>
    <contour>
      <point x="409" y="0" type="line"/>
      <point x="417" y="38" type="line"/>
      <point x="347" y="9"/>
      <point x="280" y="-12"/>
      <point x="208" y="-12" type="curve" smooth="yes"/>
      <point x="140" y="-12"/>
      <point x="84" y="19"/>
      <point x="100" y="96" type="curve" smooth="yes"/>
      <point x="120" y="187"/>
      <point x="216" y="235"/>
      <point x="460" y="238" type="curve"/>
      <point x="472" y="295" type="line" smooth="yes"/>
      <point x="484" y="354"/>
      <point x="486" y="384"/>
      <point x="404" y="384" type="curve" smooth="yes"/>
      <point x="351" y="384"/>
      <point x="293" y="368"/>
      <point x="243" y="338" type="curve"/>
      <point x="231" y="282" type="line"/>
      <point x="192" y="282" type="line"/>
      <point x="210" y="365" type="line"/>
      <point x="273" y="398"/>
      <point x="347" y="420"/>
      <point x="411" y="420" type="curve" smooth="yes"/>
      <point x="509" y="420"/>
      <point x="532" y="393"/>
      <point x="512" y="301" type="curve" smooth="yes"/>
      <point x="456" y="36" type="line"/>
      <point x="541" y="36" type="line"/>
      <point x="533" y="0" type="line"/>
    </contour>
    <contour>
      <point x="426" y="79" type="curve"/>
      <point x="452" y="202" type="line"/>
      <point x="215" y="194"/>
      <point x="155" y="156"/>
      <point x="142" y="96" type="curve" smooth="yes"/>
      <point x="131" y="41"/>
      <point x="171" y="24"/>
      <point x="219" y="24" type="curve" smooth="yes"/>
      <point x="287" y="24"/>
      <point x="359" y="50"/>
    </contour>
    <contour>
      <point x="422" y="573" type="line"/>
      <point x="259" y="475" type="line"/>
      <point x="241" y="498" type="line"/>
      <point x="437" y="643" type="line"/>
      <point x="571" y="498" type="line"/>
      <point x="543" y="475" type="line"/>
    </contour>
  </outline>
</glyph>
<glyph name="atilde" format="1">
  <advance width="600"/>
  <unicode hex="00E3"/>
  <outline>
    <contour>
      <point x="409" y="0" type="line"/>
      <point x="417" y="38" type="line"/>
      <point x="347" y="9"/>
      <point x="280" y="-12"/>
      <point x="208" y="-12" type="curve" smooth="yes"/>
      <point x="140" y="-12"/>
      <point x="84" y="19"/>
      <point x="100" y="96" type="curve" smooth="yes"/>
      <point x="120" y="187"/>
      <point x="216" y="235"/>
      <point x="460" y="238" type="curve"/>
      <point x="472" y="295" type="line" smooth="yes"/>
      <point x="484" y="354"/>
      <point x="486" y="384"/>
      <point x="404" y="384" type="curve" smooth="yes"/>
      <point x="351" y="384"/>
      <point x="293" y="368"/>
      <point x="243" y="338" type="curve"/>
      <point x="231" y="282" type="line"/>
      <point x="192" y="282" type="line"/>
      <point x="210" y="365" type="line"/>
      <point x="273" y="398"/>
      <point x="347" y="420"/>
      <point x="411" y="420" type="curve" smooth="yes"/>
      <point x="509" y="420"/>
      <point x="532" y="393"/>
      <point x="512" y="301" type="curve" smooth="yes"/>
      <point x="456" y="36" type="line"/>
      <point x="541" y="36" type="line"/>
      <point x="533" y="0" type="line"/>
    </contour>
    <contour>
      <point x="426" y="79" type="curve"/>
      <point x="452" y="202" type="line"/>
      <point x="215" y="194"/>
      <point x="155" y="156"/>
      <point x="142" y="96" type="curve" smooth="yes"/>
      <point x="131" y="41"/>
      <point x="171" y="24"/>
      <point x="219" y="24" type="curve" smooth="yes"/>
      <point x="287" y="24"/>
      <point x="359" y="50"/>
    </contour>
    <contour>
      <point x="298" y="512" type="curve"/>
      <point x="257" y="512" type="line"/>
      <point x="265" y="562"/>
      <point x="298" y="611"/>
      <point x="356" y="611" type="curve" smooth="yes"/>
      <point x="384" y="611"/>
      <point x="407" y="597"/>
      <point x="428" y="583" type="curve" smooth="yes"/>
      <point x="449" y="569"/>
      <point x="468" y="556"/>
      <point x="487" y="556" type="curve" smooth="yes"/>
      <point x="518" y="556"/>
      <point x="533" y="590"/>
      <point x="539" y="615" type="curve"/>
      <point x="582" y="615" type="line"/>
      <point x="573" y="563"/>
      <point x="538" y="514"/>
      <point x="479" y="514" type="curve" smooth="yes"/>
      <point x="452" y="514"/>
      <point x="427" y="531"/>
      <point x="407" y="545" type="curve" smooth="yes"/>
      <point x="392" y="555"/>
      <point x="371" y="569"/>
      <point x="350" y="569" type="curve" smooth="yes"/>
      <point x="318" y="569"/>
      <point x="302" y="538"/>
    </contour>
  </outline>
</glyph>
<glyph name="adieresis" format="1">
  <advance width="600"/>
  <unicode hex="00E4"/>
  <outline>
    <contour>
      <point x="409" y="0" type="line"/>
      <point x="417" y="38" type="line"/>
      <point x="347" y="9"/>
      <point x="280" y="-12"/>
      <point x="208" y="-12" type="curve" smooth="yes"/>
      <point x="140" y="-12"/>
      <point x="84" y="19"/>
      <point x="100" y="96" type="curve" smooth="yes"/>
      <point x="120" y="187"/>
      <point x="216" y="235"/>
      <point x="460" y="238" type="curve"/>
      <point x="472" y="295" type="line" smooth="yes"/>
      <point x="484" y="354"/>
      <point x="486" y="384"/>
      <point x="404" y="384" type="curve" smooth="yes"/>
      <point x="351" y="384"/>
      <point x="293" y="368"/>
      <point x="243" y="338" type="curve"/>
      <point x="231" y="282" type="line"/>
      <point x="192" y="282" type="line"/>
      <point x="210" y="365" type="line"/>
      <point x="273" y="398"/>
      <point x="347" y="420"/>
      <point x="411" y="420" type="curve" smooth="yes"/>
      <point x="509" y="420"/>
      <point x="532" y="393"/>
      <point x="512" y="301" type="curve" smooth="yes"/>
      <point x="456" y="36" type="line"/>
      <point x="541" y="36" type="line"/>
      <point x="533" y="0" type="line"/>
    </contour>
    <contour>
      <point x="426" y="79" type="curve"/>
      <point x="452" y="202" type="line"/>
      <point x="215" y="194"/>
      <point x="155" y="156"/>
      <point x="142" y="96" type="curve" smooth="yes"/>
      <point x="131" y="41"/>
      <point x="171" y="24"/>
      <point x="219" y="24" type="curve" smooth="yes"/>
      <point x="287" y="24"/>
      <point x="359" y="50"/>
    </contour>
    <contour>
      <point x="262" y="559" type="curve" smooth="yes"/>
      <point x="268" y="586"/>
      <point x="294" y="608"/>
      <point x="321" y="608" type="curve" smooth="yes"/>
      <point x="348" y="608"/>
      <point x="366" y="586"/>
      <point x="360" y="559" type="curve" smooth="yes"/>
      <point x="354" y="532"/>
      <point x="327" y="510"/>
      <point x="300" y="510" type="curve" smooth="yes"/>
      <point x="273" y="510"/>
      <point x="256" y="532"/>
    </contour>
    <contour>
      <point x="478" y="559" type="curve" smooth="yes"/>
      <point x="484" y="586"/>
      <point x="510" y="608"/>
      <point x="537" y="608" type="curve" smooth="yes"/>
      <point x="564" y="608"/>
      <point x="582" y="586"/>
      <point x="576" y="559" type="curve" smooth="yes"/>
      <point x="570" y="532"/>
      <point x="543" y="510"/>
      <point x="516" y="510" type="curve" smooth="yes"/>
      <point x="489" y="510"/>
      <point x="472" y="532"/>
    </contour>
  </outline>
</glyph>
<glyph name="aring" format="1">
  <advance width="600"/>
  <unicode hex="00E5"/>
  <outline>
    <contour>
      <point x="409" y="0" type="line"/>
      <point x="417" y="38" type="line"/>
      <point x="347" y="9"/>
      <point x="280" y="-12"/>
      <point x="208" y="-12" type="curve" smooth="yes"/>
      <point x="140" y="-12"/>
      <point x="84" y="19"/>
      <point x="100" y="96" type="curve" smooth="yes"/>
      <point x="120" y="187"/>
      <point x="216" y="235"/>
      <point x="460" y="238" type="curve"/>
      <point x="472" y="295" type="line" smooth="yes"/>
      <point x="484" y="354"/>
      <point x="486" y="384"/>
      <point x="404" y="384" type="curve" smooth="yes"/>
      <point x="351" y="384"/>
      <point x="293" y="368"/>
      <point x="243" y="338" type="curve"/>
      <point x="231" y="282" type="line"/>
      <point x="192" y="282" type="line"/>
      <point x="210" y="365" type="line"/>
      <point x="273" y="398"/>
      <point x="347" y="420"/>
      <point x="411" y="420" type="curve" smooth="yes"/>
      <point x="509" y="420"/>
      <point x="532" y="393"/>
      <point x="512" y="301" type="curve" smooth="yes"/>
      <point x="456" y="36" type="line"/>
      <point x="541" y="36" type="line"/>
      <point x="533" y="0" type="line"/>
    </contour>
    <contour>
      <point x="426" y="79" type="curve"/>
      <point x="452" y="202" type="line"/>
      <point x="215" y="194"/>
      <point x="155" y="156"/>
      <point x="142" y="96" type="curve" smooth="yes"/>
      <point x="131" y="41"/>
      <point x="171" y="24"/>
      <point x="219" y="24" type="curve" smooth="yes"/>
      <point x="287" y="24"/>
      <point x="359" y="50"/>
    </contour>
    <contour>
      <point x="337" y="562" type="curve" smooth="yes"/>
      <point x="347" y="607"/>
      <point x="392" y="644"/>
      <point x="437" y="644" type="curve" smooth="yes"/>
      <point x="482" y="644"/>
      <point x="511" y="607"/>
      <point x="501" y="562" type="curve" smooth="yes"/>
      <point x="492" y="517"/>
      <point x="447" y="480"/>
      <point x="402" y="480" type="curve" smooth="yes"/>
      <point x="357" y="480"/>
      <point x="328" y="517"/>
    </contour>
    <contour>
      <point x="379" y="562" type="curve" smooth="yes"/>
      <point x="375" y="540"/>
      <point x="386" y="516"/>
      <point x="410" y="516" type="curve" smooth="yes"/>
      <point x="434" y="516"/>
      <point x="455" y="540"/>
      <point x="459" y="562" type="curve" smooth="yes"/>
      <point x="464" y="585"/>
      <point x="453" y="608"/>
      <point x="429" y="608" type="curve" smooth="yes"/>
      <point x="405" y="608"/>
      <point x="384" y="585"/>
    </contour>
  </outline>
</glyph>
<glyph name="ae" format="1">
  <advance width="600"/>
  <unicode hex="00E6"/>
  <outline>
    <contour>
      <point x="396" y="284" type="curve" smooth="yes"/>
      <point x="383" y="222" type="line"/>
      <point x="577" y="222" type="line"/>
      <point x="595" y="297"/>
      <point x="588" y="384"/>
      <point x="500" y="384" type="curve" smooth="yes"/>
      <point x="437" y="384"/>
      <point x="408" y="340"/>
    </contour>
    <contour>
      <point x="337" y="186" type="line"/>
      <point x="261" y="186" type="line" smooth="yes"/>
      <point x="152" y="186"/>
      <point x="114" y="154"/>
      <point x="104" y="107" type="curve" smooth="yes"/>
      <point x="92" y="52"/>
      <point x="136" y="24"/>
      <point x="186" y="24" type="curve" smooth="yes"/>
      <point x="231" y="24"/>
      <point x="274" y="42"/>
      <point x="312" y="72" type="curve"/>
    </contour>
    <contour>
      <point x="613" y="232" type="curve"/>
      <point x="604" y="186" type="line"/>
      <point x="376" y="186" type="line"/>
      <point x="362" y="122" type="line" smooth="yes"/>
      <point x="347" y="52"/>
      <point x="365" y="24"/>
      <point x="431" y="24" type="curve" smooth="yes"/>
      <point x="480" y="24"/>
      <point x="530" y="50"/>
      <point x="573" y="82" type="curve"/>
      <point x="588" y="53" type="line"/>
      <point x="534" y="15"/>
      <point x="475" y="-12"/>
      <point x="414" y="-12" type="curve" smooth="yes"/>
      <point x="375" y="-12"/>
      <point x="337" y="4"/>
      <point x="322" y="39" type="curve"/>
      <point x="278" y="5"/>
      <point x="228" y="-12"/>
      <point x="178" y="-12" type="curve" smooth="yes"/>
      <point x="109" y="-12"/>
      <point x="45" y="26"/>
      <point x="61" y="103" type="curve" smooth="yes"/>
      <point x="76" y="174"/>
      <point x="125" y="222"/>
      <point x="270" y="222" type="curve" smooth="yes"/>
      <point x="344" y="222" type="line"/>
      <point x="356" y="279" type="line" smooth="yes"/>
      <point x="370" y="345"/>
      <point x="355" y="384"/>
      <point x="300" y="384" type="curve" smooth="yes"/>
      <point x="264" y="384"/>
      <point x="221" y="367"/>
      <point x="185" y="350" type="curve"/>
      <point x="173" y="291" type="line"/>
      <point x="134" y="291" type="line"/>
      <point x="152" y="375" type="line"/>
      <point x="199" y="395"/>
      <point x="260" y="420"/>
      <point x="307" y="420" type="curve" smooth="yes"/>
      <point x="348" y="420"/>
      <point x="384" y="401"/>
      <point x="393" y="363" type="curve"/>
      <point x="426" y="403"/>
      <point x="464" y="420"/>
      <point x="511" y="420" type="curve" smooth="yes"/>
      <point x="605" y="420"/>
      <point x="636" y="337"/>
    </contour>
  </outline>
</glyph>
<glyph name="ccedilla" format="1">
  <advance width="600"/>
  <unicode hex="00E7"/>
  <outline>
    <contour>
      <point x="499" y="65" type="curve"/>
      <point x="505" y="32" type="line"/>
      <point x="447" y="4"/>
      <point x="372" y="-12"/>
      <point x="312" y="-12" type="curve" smooth="yes"/>
      <point x="187" y="-12"/>
      <point x="109" y="71"/>
      <point x="137" y="200" type="curve" smooth="yes"/>
      <point x="164" y="328"/>
      <point x="276" y="420"/>
      <point x="404" y="420" type="curve" smooth="yes"/>
      <point x="456" y="420"/>
      <point x="519" y="404"/>
      <point x="534" y="355" type="curve"/>
      <point x="515" y="264" type="line"/>
      <point x="479" y="264" type="line"/>
      <point x="483" y="282" type="line"/>
      <point x="498" y="355"/>
      <point x="464" y="384"/>
      <point x="393" y="384" type="curve" smooth="yes"/>
      <point x="289" y="384"/>
      <point x="201" y="308"/>
      <point x="180" y="206" type="curve" smooth="yes"/>
      <point x="157" y="99"/>
      <point x="215" y="24"/>
      <point x="322" y="24" type="curve" smooth="yes"/>
      <point x="377" y="24"/>
      <point x="444" y="40"/>
    </contour>
    <contour>
      <point x="282" y="9" type="line"/>
      <point x="319" y="9" type="line"/>
      <point x="288" y="-68" type="line"/>
      <point x="307" y="-68" type="line" smooth="yes"/>
      <point x="356" y="-68"/>
      <point x="396" y="-93"/>
      <point x="385" y="-147" type="curve" smooth="yes"/>
      <point x="371" y="-211"/>
      <point x="303" y="-235"/>
      <point x="248" y="-235" type="curve" smooth="yes"/>
      <point x="214" y="-235"/>
      <point x="175" y="-227"/>
      <point x="149" y="-210" type="curve"/>
      <point x="157" y="-173" type="line"/>
      <point x="185" y="-188"/>
      <point x="218" y="-199"/>
      <point x="252" y="-199" type="curve" smooth="yes"/>
      <point x="285" y="-199"/>
      <point x="334" y="-186"/>
      <point x="343" y="-146" type="curve" smooth="yes"/>
      <point x="350" y="-111"/>
      <point x="307" y="-105"/>
      <point x="281" y="-105" type="curve"/>
      <point x="232" y="-108" type="line"/>
    </contour>
  </outline>
</glyph>
<glyph name="egrave" format="1">
  <advance width="600"/>
  <unicode hex="00E8"/>
  <outline>
    <contour>
      <point x="544" y="186" type="line"/>
      <point x="176" y="186" type="line"/>
      <point x="156" y="74"/>
      <point x="231" y="24"/>
      <point x="338" y="24" type="curve" smooth="yes"/>
      <point x="402" y="24"/>
      <point x="460" y="42"/>
      <point x="529" y="68" type="curve"/>
      <point x="535" y="36" type="line"/>
      <point x="464" y="5"/>
      <point x="387" y="-12"/>
      <point x="316" y="-12" type="curve" smooth="yes"/>
      <point x="193" y="-12"/>
      <point x="108" y="64"/>
      <point x="135" y="194" type="curve"/>
      <point x="162" y="318"/>
      <point x="273" y="420"/>
      <point x="400" y="420" type="curve" smooth="yes"/>
      <point x="521" y="420"/>
      <point x="580" y="342"/>
      <point x="554" y="222" type="curve"/>
    </contour>
    <contour>
      <point x="186" y="222" type="curve"/>
      <point x="513" y="222" type="line"/>
      <point x="538" y="317"/>
      <point x="482" y="384"/>
      <point x="393" y="384" type="curve" smooth="yes"/>
      <point x="304" y="384"/>
      <point x="214" y="315"/>
    </contour>
    <contour>
      <point x="330" y="645" type="line"/>
      <point x="474" y="503" type="line"/>
      <point x="445" y="473" type="line"/>
      <point x="284" y="600" type="line"/>
    </contour>
  </outline>
</glyph>
<glyph name="ecircumflex" format="1">
  <advance width="600"/>
  <unicode hex="00EA"/>
  <outline>
    <contour>
      <point x="544" y="186" type="line"/>
      <point x="176" y="186" type="line"/>
      <point x="156" y="74"/>
      <point x="231" y="24"/>
      <point x="338" y="24" type="curve" smooth="yes"/>
      <point x="402" y="24"/>
      <point x="460" y="42"/>
      <point x="529" y="68" type="curve"/>
      <point x="535" y="36" type="line"/>
      <point x="464" y="5"/>
      <point x="387" y="-12"/>
      <point x="316" y="-12" type="curve" smooth="yes"/>
      <point x="193" y="-12"/>
      <point x="108" y="64"/>
      <point x="135" y="194" type="curve"/>
      <point x="162" y="318"/>
      <point x="273" y="420"/>
      <point x="400" y="420" type="curve" smooth="yes"/>
      <point x="521" y="420"/>
      <point x="580" y="342"/>
      <point x="554" y="222" type="curve"/>
    </contour>
    <contour>
      <point x="186" y="222" type="curve"/>
      <point x="513" y="222" type="line"/>
      <point x="538" y="317"/>
      <point x="482" y="384"/>
      <point x="393" y="384" type="curve" smooth="yes"/>
      <point x="304" y="384"/>
      <point x="214" y="315"/>
    </contour>
    <contour>
      <point x="422" y="573" type="line"/>
      <point x="259" y="475" type="line"/>
      <point x="241" y="498" type="line"/>
      <point x="437" y="643" type="line"/>
      <point x="571" y="498" type="line"/>
      <point x="543" y="475" type="line"/>
    </contour>
  </outline>
</glyph>
<glyph name="igrave" format="1">
  <advance width="600"/>
  <unicode hex="00EC"/>
  <outline>
    <contour>
      <point x="89" y="0" type="line"/>
      <point x="97" y="36" type="line"/>
      <point x="300" y="36" type="line"/>
      <point x="371" y="374" type="line"/>
      <point x="342" y="368"/>
      <point x="250" y="360"/>
      <point x="175" y="358" type="curve"/>
      <point x="177" y="394" type="line"/>
      <point x="250" y="395"/>
      <point x="358" y="400"/>
      <point x="384" y="425" type="curve" smooth="yes"/>
      <point x="392" y="432"/>
      <point x="398" y="438"/>
      <point x="409" y="438" type="curve" smooth="yes"/>
      <point x="423" y="438"/>
      <point x="419" y="413"/>
      <point x="416" y="399" type="curve" smooth="yes"/>
      <point x="339" y="36" type="line"/>
      <point x="519" y="36" type="line"/>
      <point x="511" y="0" type="line"/>
    </contour>
    <contour>
      <point x="330" y="645" type="line"/>
      <point x="474" y="503" type="line"/>
      <point x="445" y="473" type="line"/>
      <point x="284" y="600" type="line"/>
    </contour>
  </outline>
</glyph>
<glyph name="icircumflex" format="1">
  <advance width="600"/>
  <unicode hex="00EE"/>
  <outline>
    <contour>
      <point x="89" y="0" type="line"/>
      <point x="97" y="36" type="line"/>
      <point x="300" y="36" type="line"/>
      <point x="371" y="374" type="line"/>
      <point x="342" y="368"/>
      <point x="250" y="360"/>
      <point x="175" y="358" type="curve"/>
      <point x="177" y="394" type="line"/>
      <point x="250" y="395"/>
      <point x="358" y="400"/>
      <point x="384" y="425" type="curve" smooth="yes"/>
      <point x="392" y="432"/>
      <point x="398" y="438"/>
      <point x="409" y="438" type="curve" smooth="yes"/>
      <point x="423" y="438"/>
      <point x="419" y="413"/>
      <point x="416" y="399" type="curve" smooth="yes"/>
      <point x="339" y="36" type="line"/>
      <point x="519" y="36" type="line"/>
      <point x="511" y="0" type="line"/>
    </contour>
    <contour>
      <point x="422" y="573" type="line"/>
      <point x="259" y="475" type="line"/>
      <point x="241" y="498" type="line"/>
      <point x="437" y="643" type="line"/>
      <point x="571" y="498" type="line"/>
      <point x="543" y="475" type="line"/>
    </contour>
  </outline>
</glyph>
<glyph name="idieresis" format="1">
  <advance width="600"/>
  <unicode hex="00EF"/>
  <outline>
    <contour>
      <point x="89" y="0" type="line"/>
      <point x="97" y="36" type="line"/>
      <point x="300" y="36" type="line"/>
      <point x="371" y="374" type="line"/>
      <point x="342" y="368"/>
      <point x="250" y="360"/>
      <point x="175" y="358" type="curve"/>
      <point x="177" y="394" type="line"/>
      <point x="250" y="395"/>
      <point x="358" y="400"/>
      <point x="384" y="425" type="curve" smooth="yes"/>
      <point x="392" y="432"/>
      <point x="398" y="438"/>
      <point x="409" y="438" type="curve" smooth="yes"/>
      <point x="423" y="438"/>
      <point x="419" y="413"/>
      <point x="416" y="399" type="curve" smooth="yes"/>
      <point x="339" y="36" type="line"/>
      <point x="519" y="36" type="line"/>
      <point x="511" y="0" type="line"/>
    </contour>
    <contour>
      <point x="262" y="559" type="curve" smooth="yes"/>
      <point x="268" y="586"/>
      <point x="294" y="608"/>
      <point x="321" y="608" type="curve" smooth="yes"/>
      <point x="348" y="608"/>
      <point x="366" y="586"/>
      <point x="360" y="559" type="curve" smooth="yes"/>
      <point x="354" y="532"/>
      <point x="327" y="510"/>
      <point x="300" y="510" type="curve" smooth="yes"/>
      <point x="273" y="510"/>
      <point x="256" y="532"/>
    </contour>
    <contour>
      <point x="478" y="559" type="curve" smooth="yes"/>
      <point x="484" y="586"/>
      <point x="510" y="608"/>
      <point x="537" y="608" type="curve" smooth="yes"/>
      <point x="564" y="608"/>
      <point x="582" y="586"/>
      <point x="576" y="559" type="curve" smooth="yes"/>
      <point x="570" y="532"/>
      <point x="543" y="510"/>
      <point x="516" y="510" type="curve" smooth="yes"/>
      <point x="489" y="510"/>
      <point x="472" y="532"/>
    </contour>
  </outline>
</glyph>
<glyph name="eth" format="1">
  <advance width="600"/>
  <unicode hex="00F0"/>
  <outline>
    <contour>
      <point x="183" y="192" type="curve" smooth="yes"/>
      <point x="164" y="102"/>
      <point x="210" y="24"/>
      <point x="303" y="24" type="curve" smooth="yes"/>
      <point x="400" y="24"/>
      <point x="480" y="103"/>
      <point x="500" y="197" type="curve" smooth="yes"/>
      <point x="520" y="293"/>
      <point x="471" y="363"/>
      <point x="375" y="363" type="curve" smooth="yes"/>
      <point x="276" y="363"/>
      <point x="203" y="286"/>
    </contour>
    <contour>
      <point x="353" y="547" type="line"/>
      <point x="463" y="612" type="line"/>
      <point x="475" y="585" type="line"/>
      <point x="372" y="524" type="line"/>
      <point x="453" y="425" type="line" smooth="yes"/>
      <point x="509" y="356"/>
      <point x="563" y="298"/>
      <point x="542" y="198" type="curve" smooth="yes"/>
      <point x="518" y="83"/>
      <point x="411" y="-12"/>
      <point x="295" y="-12" type="curve" smooth="yes"/>
      <point x="184" y="-12"/>
      <point x="118" y="84"/>
      <point x="141" y="193" type="curve" smooth="yes"/>
      <point x="164" y="301"/>
      <point x="264" y="399"/>
      <point x="377" y="399" type="curve" smooth="yes"/>
      <point x="393" y="399"/>
      <point x="408" y="397"/>
      <point x="427" y="397" type="curve"/>
      <point x="339" y="505" type="line"/>
      <point x="220" y="434" type="line"/>
      <point x="208" y="461" type="line"/>
      <point x="321" y="528" type="line"/>
      <point x="272" y="588" type="line"/>
      <point x="301" y="612" type="line"/>
    </contour>
  </outline>
</glyph>
<glyph name="ntilde" format="1">
  <advance width="600"/>
  <unicode hex="00F1"/>
  <outline>
    <contour>
      <point x="240" y="320" type="curve"/>
      <point x="180" y="36" type="line"/>
      <point x="258" y="36" type="line"/>
      <point x="250" y="0" type="line"/>
      <point x="63" y="0" type="line"/>
      <point x="71" y="36" type="line"/>
      <point x="141" y="36" type="line"/>
      <point x="212" y="374" type="line"/>
      <point x="183" y="368"/>
      <point x="163" y="360"/>
      <point x="133" y="359" type="curve"/>
      <point x="135" y="394" type="line"/>
      <point x="163" y="395"/>
      <point x="199" y="400"/>
      <point x="225" y="425" type="curve" smooth="yes"/>
      <point x="233" y="432"/>
      <point x="239" y="438"/>
      <point x="250" y="438" type="curve" smooth="yes"/>
      <point x="264" y="438"/>
      <point x="260" y="413"/>
      <point x="257" y="399" type="curve" smooth="yes"/>
      <point x="249" y="362" type="line"/>
      <point x="307" y="390"/>
      <point x="378" y="420"/>
      <point x="437" y="420" type="curve" smooth="yes"/>
      <point x="524" y="420"/>
      <point x="559" y="381"/>
      <point x="532" y="253" type="curve" smooth="yes"/>
      <point x="486" y="36" type="line"/>
      <point x="556" y="36" type="line"/>
      <point x="548" y="0" type="line"/>
      <point x="361" y="0" type="line"/>
      <point x="369" y="36" type="line"/>
      <point x="447" y="36" type="line"/>
      <point x="490" y="240" type="line" smooth="yes"/>
      <point x="505" y="309"/>
      <point x="521" y="384"/>
      <point x="429" y="384" type="curve" smooth="yes"/>
      <point x="366" y="384"/>
      <point x="299" y="353"/>
    </contour>
    <contour>
      <point x="298" y="512" type="curve"/>
      <point x="257" y="512" type="line"/>
      <point x="265" y="562"/>
      <point x="298" y="611"/>
      <point x="356" y="611" type="curve" smooth="yes"/>
      <point x="384" y="611"/>
      <point x="407" y="597"/>
      <point x="428" y="583" type="curve" smooth="yes"/>
      <point x="449" y="569"/>
      <point x="468" y="556"/>
      <point x="487" y="556" type="curve" smooth="yes"/>
      <point x="518" y="556"/>
      <point x="533" y="590"/>
      <point x="539" y="615" type="curve"/>
      <point x="582" y="615" type="line"/>
      <point x="573" y="563"/>
      <point x="538" y="514"/>
      <point x="479" y="514" type="curve" smooth="yes"/>
      <point x="452" y="514"/>
      <point x="427" y="531"/>
      <point x="407" y="545" type="curve" smooth="yes"/>
      <point x="392" y="555"/>
      <point x="371" y="569"/>
      <point x="350" y="569" type="curve" smooth="yes"/>
      <point x="318" y="569"/>
      <point x="302" y="538"/>
    </contour>
  </outline>
</glyph>
